<svg width="1094" height="30" viewBox="0 0 1094 30" fill="none" xmlns="http://www.w3.org/2000/svg">
<g filter="url(#filter0_d_2_1271)">
<rect width="127" height="22" rx="2" transform="matrix(1 0 0 -1 4 22)" fill="#577590"/>
<path d="M38.918 12.7734H35.3438L34.541 15H33.3809L36.6387 6.46875H37.623L40.8867 15H39.7324L38.918 12.7734ZM35.6836 11.8477H38.584L37.1309 7.85742L35.6836 11.8477ZM43.043 15H41.959V6H43.043V15ZM46.5527 12.0645L45.873 12.7734V15H44.7891V6H45.873V11.4434L46.4531 10.7461L48.4277 8.66016H49.7461L47.2793 11.3086L50.0332 15H48.7617L46.5527 12.0645ZM54.7793 15C54.7168 14.875 54.666 14.6523 54.627 14.332C54.123 14.8555 53.5215 15.1172 52.8223 15.1172C52.1973 15.1172 51.6836 14.9414 51.2812 14.5898C50.8828 14.2344 50.6836 13.7852 50.6836 13.2422C50.6836 12.582 50.9336 12.0703 51.4336 11.707C51.9375 11.3398 52.6445 11.1562 53.5547 11.1562H54.6094V10.6582C54.6094 10.2793 54.4961 9.97852 54.2695 9.75586C54.043 9.5293 53.709 9.41602 53.2676 9.41602C52.8809 9.41602 52.5566 9.51367 52.2949 9.70898C52.0332 9.9043 51.9023 10.1406 51.9023 10.418H50.8125C50.8125 10.1016 50.9238 9.79688 51.1465 9.50391C51.373 9.20703 51.6777 8.97266 52.0605 8.80078C52.4473 8.62891 52.8711 8.54297 53.332 8.54297C54.0625 8.54297 54.6348 8.72656 55.0488 9.09375C55.4629 9.45703 55.6777 9.95898 55.6934 10.5996V13.5176C55.6934 14.0996 55.7676 14.5625 55.916 14.9062V15H54.7793ZM52.9805 14.1738C53.3203 14.1738 53.6426 14.0859 53.9473 13.9102C54.252 13.7344 54.4727 13.5059 54.6094 13.2246V11.9238H53.7598C52.4316 11.9238 51.7676 12.3125 51.7676 13.0898C51.7676 13.4297 51.8809 13.6953 52.1074 13.8867C52.334 14.0781 52.625 14.1738 52.9805 14.1738ZM58.5703 15H57.4863V6H58.5703V15ZM61.4883 15H60.4043V8.66016H61.4883V15ZM60.3164 6.97852C60.3164 6.80273 60.3691 6.6543 60.4746 6.5332C60.584 6.41211 60.7441 6.35156 60.9551 6.35156C61.166 6.35156 61.3262 6.41211 61.4355 6.5332C61.5449 6.6543 61.5996 6.80273 61.5996 6.97852C61.5996 7.1543 61.5449 7.30078 61.4355 7.41797C61.3262 7.53516 61.166 7.59375 60.9551 7.59375C60.7441 7.59375 60.584 7.53516 60.4746 7.41797C60.3691 7.30078 60.3164 7.1543 60.3164 6.97852ZM67.8281 6.46875L70.6172 13.4297L73.4062 6.46875H74.8652V15H73.7402V11.6777L73.8457 8.0918L71.0449 15H70.1836L67.3887 8.10938L67.5 11.6777V15H66.375V6.46875H67.8281ZM79.3125 15.1172C78.4531 15.1172 77.7539 14.8359 77.2148 14.2734C76.6758 13.707 76.4062 12.9512 76.4062 12.0059V11.8066C76.4062 11.1777 76.5254 10.6172 76.7637 10.125C77.0059 9.62891 77.3418 9.24219 77.7715 8.96484C78.2051 8.68359 78.6738 8.54297 79.1777 8.54297C80.002 8.54297 80.6426 8.81445 81.0996 9.35742C81.5566 9.90039 81.7852 10.6777 81.7852 11.6895V12.1406H77.4902C77.5059 12.7656 77.6875 13.2715 78.0352 13.6582C78.3867 14.041 78.832 14.2324 79.3711 14.2324C79.7539 14.2324 80.0781 14.1543 80.3438 13.998C80.6094 13.8418 80.8418 13.6348 81.041 13.377L81.7031 13.8926C81.1719 14.709 80.375 15.1172 79.3125 15.1172ZM79.1777 9.43359C78.7402 9.43359 78.373 9.59375 78.0762 9.91406C77.7793 10.2305 77.5957 10.6758 77.5254 11.25H80.7012V11.168C80.6699 10.6172 80.5215 10.1914 80.2559 9.89062C79.9902 9.58594 79.6309 9.43359 79.1777 9.43359ZM84.5156 7.125V8.66016H85.6992V9.49805H84.5156V13.4297C84.5156 13.6836 84.5684 13.875 84.6738 14.0039C84.7793 14.1289 84.959 14.1914 85.2129 14.1914C85.3379 14.1914 85.5098 14.168 85.7285 14.1211V15C85.4434 15.0781 85.166 15.1172 84.8965 15.1172C84.4121 15.1172 84.0469 14.9707 83.8008 14.6777C83.5547 14.3848 83.4316 13.9688 83.4316 13.4297V9.49805H82.2773V8.66016H83.4316V7.125H84.5156ZM90.8848 15C90.8223 14.875 90.7715 14.6523 90.7324 14.332C90.2285 14.8555 89.627 15.1172 88.9277 15.1172C88.3027 15.1172 87.7891 14.9414 87.3867 14.5898C86.9883 14.2344 86.7891 13.7852 86.7891 13.2422C86.7891 12.582 87.0391 12.0703 87.5391 11.707C88.043 11.3398 88.75 11.1562 89.6602 11.1562H90.7148V10.6582C90.7148 10.2793 90.6016 9.97852 90.375 9.75586C90.1484 9.5293 89.8145 9.41602 89.373 9.41602C88.9863 9.41602 88.6621 9.51367 88.4004 9.70898C88.1387 9.9043 88.0078 10.1406 88.0078 10.418H86.918C86.918 10.1016 87.0293 9.79688 87.252 9.50391C87.4785 9.20703 87.7832 8.97266 88.166 8.80078C88.5527 8.62891 88.9766 8.54297 89.4375 8.54297C90.168 8.54297 90.7402 8.72656 91.1543 9.09375C91.5684 9.45703 91.7832 9.95898 91.7988 10.5996V13.5176C91.7988 14.0996 91.873 14.5625 92.0215 14.9062V15H90.8848ZM89.0859 14.1738C89.4258 14.1738 89.748 14.0859 90.0527 13.9102C90.3574 13.7344 90.5781 13.5059 90.7148 13.2246V11.9238H89.8652C88.5371 11.9238 87.873 12.3125 87.873 13.0898C87.873 13.4297 87.9863 13.6953 88.2129 13.8867C88.4395 14.0781 88.7305 14.1738 89.0859 14.1738ZM94.6758 15H93.5918V6H94.6758V15ZM100.107 13.3184C100.107 13.0254 99.9961 12.7988 99.7734 12.6387C99.5547 12.4746 99.1699 12.334 98.6191 12.2168C98.0723 12.0996 97.6367 11.959 97.3125 11.7949C96.9922 11.6309 96.7539 11.4355 96.5977 11.209C96.4453 10.9824 96.3691 10.7129 96.3691 10.4004C96.3691 9.88086 96.5879 9.44141 97.0254 9.08203C97.4668 8.72266 98.0293 8.54297 98.7129 8.54297C99.4316 8.54297 100.014 8.72852 100.459 9.09961C100.908 9.4707 101.133 9.94531 101.133 10.5234H100.043C100.043 10.2266 99.916 9.9707 99.6621 9.75586C99.4121 9.54102 99.0957 9.43359 98.7129 9.43359C98.3184 9.43359 98.0098 9.51953 97.7871 9.69141C97.5645 9.86328 97.4531 10.0879 97.4531 10.3652C97.4531 10.627 97.5566 10.8242 97.7637 10.957C97.9707 11.0898 98.3438 11.2168 98.8828 11.3379C99.4258 11.459 99.8652 11.6035 100.201 11.7715C100.537 11.9395 100.785 12.1426 100.945 12.3809C101.109 12.6152 101.191 12.9023 101.191 13.2422C101.191 13.8086 100.965 14.2637 100.512 14.6074C100.059 14.9473 99.4707 15.1172 98.748 15.1172C98.2402 15.1172 97.791 15.0273 97.4004 14.8477C97.0098 14.668 96.7031 14.418 96.4805 14.0977C96.2617 13.7734 96.1523 13.4238 96.1523 13.0488H97.2363C97.2559 13.4121 97.4004 13.7012 97.6699 13.916C97.9434 14.127 98.3027 14.2324 98.748 14.2324C99.1582 14.2324 99.4863 14.1504 99.7324 13.9863C99.9824 13.8184 100.107 13.5957 100.107 13.3184Z" fill="#223D5C"/>
<rect width="127" height="22" rx="2" transform="matrix(1 0 0 -1 141 22)" fill="#4D908E"/>
<path d="M159.809 12.7734H156.234L155.432 15H154.271L157.529 6.46875H158.514L161.777 15H160.623L159.809 12.7734ZM156.574 11.8477H159.475L158.021 7.85742L156.574 11.8477ZM163.934 15H162.85V6H163.934V15ZM167.443 12.0645L166.764 12.7734V15H165.68V6H166.764V11.4434L167.344 10.7461L169.318 8.66016H170.637L168.17 11.3086L170.924 15H169.652L167.443 12.0645ZM175.67 15C175.607 14.875 175.557 14.6523 175.518 14.332C175.014 14.8555 174.412 15.1172 173.713 15.1172C173.088 15.1172 172.574 14.9414 172.172 14.5898C171.773 14.2344 171.574 13.7852 171.574 13.2422C171.574 12.582 171.824 12.0703 172.324 11.707C172.828 11.3398 173.535 11.1562 174.445 11.1562H175.5V10.6582C175.5 10.2793 175.387 9.97852 175.16 9.75586C174.934 9.5293 174.6 9.41602 174.158 9.41602C173.771 9.41602 173.447 9.51367 173.186 9.70898C172.924 9.9043 172.793 10.1406 172.793 10.418H171.703C171.703 10.1016 171.814 9.79688 172.037 9.50391C172.264 9.20703 172.568 8.97266 172.951 8.80078C173.338 8.62891 173.762 8.54297 174.223 8.54297C174.953 8.54297 175.525 8.72656 175.939 9.09375C176.354 9.45703 176.568 9.95898 176.584 10.5996V13.5176C176.584 14.0996 176.658 14.5625 176.807 14.9062V15H175.67ZM173.871 14.1738C174.211 14.1738 174.533 14.0859 174.838 13.9102C175.143 13.7344 175.363 13.5059 175.5 13.2246V11.9238H174.65C173.322 11.9238 172.658 12.3125 172.658 13.0898C172.658 13.4297 172.771 13.6953 172.998 13.8867C173.225 14.0781 173.516 14.1738 173.871 14.1738ZM179.461 15H178.377V6H179.461V15ZM182.379 15H181.295V8.66016H182.379V15ZM181.207 6.97852C181.207 6.80273 181.26 6.6543 181.365 6.5332C181.475 6.41211 181.635 6.35156 181.846 6.35156C182.057 6.35156 182.217 6.41211 182.326 6.5332C182.436 6.6543 182.49 6.80273 182.49 6.97852C182.49 7.1543 182.436 7.30078 182.326 7.41797C182.217 7.53516 182.057 7.59375 181.846 7.59375C181.635 7.59375 181.475 7.53516 181.365 7.41797C181.26 7.30078 181.207 7.1543 181.207 6.97852ZM192.088 11.0566H188.391V14.0801H192.686V15H187.266V6.46875H192.627V7.39453H188.391V10.1367H192.088V11.0566ZM197.83 15C197.768 14.875 197.717 14.6523 197.678 14.332C197.174 14.8555 196.572 15.1172 195.873 15.1172C195.248 15.1172 194.734 14.9414 194.332 14.5898C193.934 14.2344 193.734 13.7852 193.734 13.2422C193.734 12.582 193.984 12.0703 194.484 11.707C194.988 11.3398 195.695 11.1562 196.605 11.1562H197.66V10.6582C197.66 10.2793 197.547 9.97852 197.32 9.75586C197.094 9.5293 196.76 9.41602 196.318 9.41602C195.932 9.41602 195.607 9.51367 195.346 9.70898C195.084 9.9043 194.953 10.1406 194.953 10.418H193.863C193.863 10.1016 193.975 9.79688 194.197 9.50391C194.424 9.20703 194.729 8.97266 195.111 8.80078C195.498 8.62891 195.922 8.54297 196.383 8.54297C197.113 8.54297 197.686 8.72656 198.1 9.09375C198.514 9.45703 198.729 9.95898 198.744 10.5996V13.5176C198.744 14.0996 198.818 14.5625 198.967 14.9062V15H197.83ZM196.031 14.1738C196.371 14.1738 196.693 14.0859 196.998 13.9102C197.303 13.7344 197.523 13.5059 197.66 13.2246V11.9238H196.811C195.482 11.9238 194.818 12.3125 194.818 13.0898C194.818 13.4297 194.932 13.6953 195.158 13.8867C195.385 14.0781 195.676 14.1738 196.031 14.1738ZM203.508 9.63281C203.344 9.60547 203.166 9.5918 202.975 9.5918C202.264 9.5918 201.781 9.89453 201.527 10.5V15H200.443V8.66016H201.498L201.516 9.39258C201.871 8.82617 202.375 8.54297 203.027 8.54297C203.238 8.54297 203.398 8.57031 203.508 8.625V9.63281ZM206.273 7.125V8.66016H207.457V9.49805H206.273V13.4297C206.273 13.6836 206.326 13.875 206.432 14.0039C206.537 14.1289 206.717 14.1914 206.971 14.1914C207.096 14.1914 207.268 14.168 207.486 14.1211V15C207.201 15.0781 206.924 15.1172 206.654 15.1172C206.17 15.1172 205.805 14.9707 205.559 14.6777C205.312 14.3848 205.189 13.9688 205.189 13.4297V9.49805H204.035V8.66016H205.189V7.125H206.273ZM209.812 9.42773C210.293 8.83789 210.918 8.54297 211.688 8.54297C213.027 8.54297 213.703 9.29883 213.715 10.8105V15H212.631V10.8047C212.627 10.3477 212.521 10.0098 212.314 9.79102C212.111 9.57227 211.793 9.46289 211.359 9.46289C211.008 9.46289 210.699 9.55664 210.434 9.74414C210.168 9.93164 209.961 10.1777 209.812 10.4824V15H208.729V6H209.812V9.42773ZM219.938 6.46875L222.727 13.4297L225.516 6.46875H226.975V15H225.85V11.6777L225.955 8.0918L223.154 15H222.293L219.498 8.10938L219.609 11.6777V15H218.484V6.46875H219.938ZM231.422 15.1172C230.562 15.1172 229.863 14.8359 229.324 14.2734C228.785 13.707 228.516 12.9512 228.516 12.0059V11.8066C228.516 11.1777 228.635 10.6172 228.873 10.125C229.115 9.62891 229.451 9.24219 229.881 8.96484C230.314 8.68359 230.783 8.54297 231.287 8.54297C232.111 8.54297 232.752 8.81445 233.209 9.35742C233.666 9.90039 233.895 10.6777 233.895 11.6895V12.1406H229.6C229.615 12.7656 229.797 13.2715 230.145 13.6582C230.496 14.041 230.941 14.2324 231.48 14.2324C231.863 14.2324 232.188 14.1543 232.453 13.998C232.719 13.8418 232.951 13.6348 233.15 13.377L233.812 13.8926C233.281 14.709 232.484 15.1172 231.422 15.1172ZM231.287 9.43359C230.85 9.43359 230.482 9.59375 230.186 9.91406C229.889 10.2305 229.705 10.6758 229.635 11.25H232.811V11.168C232.779 10.6172 232.631 10.1914 232.365 9.89062C232.1 9.58594 231.74 9.43359 231.287 9.43359ZM236.625 7.125V8.66016H237.809V9.49805H236.625V13.4297C236.625 13.6836 236.678 13.875 236.783 14.0039C236.889 14.1289 237.068 14.1914 237.322 14.1914C237.447 14.1914 237.619 14.168 237.838 14.1211V15C237.553 15.0781 237.275 15.1172 237.006 15.1172C236.521 15.1172 236.156 14.9707 235.91 14.6777C235.664 14.3848 235.541 13.9688 235.541 13.4297V9.49805H234.387V8.66016H235.541V7.125H236.625ZM242.994 15C242.932 14.875 242.881 14.6523 242.842 14.332C242.338 14.8555 241.736 15.1172 241.037 15.1172C240.412 15.1172 239.898 14.9414 239.496 14.5898C239.098 14.2344 238.898 13.7852 238.898 13.2422C238.898 12.582 239.148 12.0703 239.648 11.707C240.152 11.3398 240.859 11.1562 241.77 11.1562H242.824V10.6582C242.824 10.2793 242.711 9.97852 242.484 9.75586C242.258 9.5293 241.924 9.41602 241.482 9.41602C241.096 9.41602 240.771 9.51367 240.51 9.70898C240.248 9.9043 240.117 10.1406 240.117 10.418H239.027C239.027 10.1016 239.139 9.79688 239.361 9.50391C239.588 9.20703 239.893 8.97266 240.275 8.80078C240.662 8.62891 241.086 8.54297 241.547 8.54297C242.277 8.54297 242.85 8.72656 243.264 9.09375C243.678 9.45703 243.893 9.95898 243.908 10.5996V13.5176C243.908 14.0996 243.982 14.5625 244.131 14.9062V15H242.994ZM241.195 14.1738C241.535 14.1738 241.857 14.0859 242.162 13.9102C242.467 13.7344 242.688 13.5059 242.824 13.2246V11.9238H241.975C240.646 11.9238 239.982 12.3125 239.982 13.0898C239.982 13.4297 240.096 13.6953 240.322 13.8867C240.549 14.0781 240.84 14.1738 241.195 14.1738ZM246.785 15H245.701V6H246.785V15ZM252.217 13.3184C252.217 13.0254 252.105 12.7988 251.883 12.6387C251.664 12.4746 251.279 12.334 250.729 12.2168C250.182 12.0996 249.746 11.959 249.422 11.7949C249.102 11.6309 248.863 11.4355 248.707 11.209C248.555 10.9824 248.479 10.7129 248.479 10.4004C248.479 9.88086 248.697 9.44141 249.135 9.08203C249.576 8.72266 250.139 8.54297 250.822 8.54297C251.541 8.54297 252.123 8.72852 252.568 9.09961C253.018 9.4707 253.242 9.94531 253.242 10.5234H252.152C252.152 10.2266 252.025 9.9707 251.771 9.75586C251.521 9.54102 251.205 9.43359 250.822 9.43359C250.428 9.43359 250.119 9.51953 249.896 9.69141C249.674 9.86328 249.562 10.0879 249.562 10.3652C249.562 10.627 249.666 10.8242 249.873 10.957C250.08 11.0898 250.453 11.2168 250.992 11.3379C251.535 11.459 251.975 11.6035 252.311 11.7715C252.646 11.9395 252.895 12.1426 253.055 12.3809C253.219 12.6152 253.301 12.9023 253.301 13.2422C253.301 13.8086 253.074 14.2637 252.621 14.6074C252.168 14.9473 251.58 15.1172 250.857 15.1172C250.35 15.1172 249.9 15.0273 249.51 14.8477C249.119 14.668 248.812 14.418 248.59 14.0977C248.371 13.7734 248.262 13.4238 248.262 13.0488H249.346C249.365 13.4121 249.51 13.7012 249.779 13.916C250.053 14.127 250.412 14.2324 250.857 14.2324C251.268 14.2324 251.596 14.1504 251.842 13.9863C252.092 13.8184 252.217 13.5957 252.217 13.3184Z" fill="#223D5C"/>
<rect width="127" height="22" rx="2" transform="matrix(1 0 0 -1 278 22)" fill="#43AA8B"/>
<path d="M302.143 7.39453H299.4V15H298.281V7.39453H295.545V6.46875H302.143V7.39453ZM305.857 9.63281C305.693 9.60547 305.516 9.5918 305.324 9.5918C304.613 9.5918 304.131 9.89453 303.877 10.5V15H302.793V8.66016H303.848L303.865 9.39258C304.221 8.82617 304.725 8.54297 305.377 8.54297C305.588 8.54297 305.748 8.57031 305.857 8.625V9.63281ZM310.539 15C310.477 14.875 310.426 14.6523 310.387 14.332C309.883 14.8555 309.281 15.1172 308.582 15.1172C307.957 15.1172 307.443 14.9414 307.041 14.5898C306.643 14.2344 306.443 13.7852 306.443 13.2422C306.443 12.582 306.693 12.0703 307.193 11.707C307.697 11.3398 308.404 11.1562 309.314 11.1562H310.369V10.6582C310.369 10.2793 310.256 9.97852 310.029 9.75586C309.803 9.5293 309.469 9.41602 309.027 9.41602C308.641 9.41602 308.316 9.51367 308.055 9.70898C307.793 9.9043 307.662 10.1406 307.662 10.418H306.572C306.572 10.1016 306.684 9.79688 306.906 9.50391C307.133 9.20703 307.438 8.97266 307.82 8.80078C308.207 8.62891 308.631 8.54297 309.092 8.54297C309.822 8.54297 310.395 8.72656 310.809 9.09375C311.223 9.45703 311.438 9.95898 311.453 10.5996V13.5176C311.453 14.0996 311.527 14.5625 311.676 14.9062V15H310.539ZM308.74 14.1738C309.08 14.1738 309.402 14.0859 309.707 13.9102C310.012 13.7344 310.232 13.5059 310.369 13.2246V11.9238H309.52C308.191 11.9238 307.527 12.3125 307.527 13.0898C307.527 13.4297 307.641 13.6953 307.867 13.8867C308.094 14.0781 308.385 14.1738 308.74 14.1738ZM314.178 8.66016L314.213 9.45703C314.697 8.84766 315.33 8.54297 316.111 8.54297C317.451 8.54297 318.127 9.29883 318.139 10.8105V15H317.055V10.8047C317.051 10.3477 316.945 10.0098 316.738 9.79102C316.535 9.57227 316.217 9.46289 315.783 9.46289C315.432 9.46289 315.123 9.55664 314.857 9.74414C314.592 9.93164 314.385 10.1777 314.236 10.4824V15H313.152V8.66016H314.178ZM323.465 13.3184C323.465 13.0254 323.354 12.7988 323.131 12.6387C322.912 12.4746 322.527 12.334 321.977 12.2168C321.43 12.0996 320.994 11.959 320.67 11.7949C320.35 11.6309 320.111 11.4355 319.955 11.209C319.803 10.9824 319.727 10.7129 319.727 10.4004C319.727 9.88086 319.945 9.44141 320.383 9.08203C320.824 8.72266 321.387 8.54297 322.07 8.54297C322.789 8.54297 323.371 8.72852 323.816 9.09961C324.266 9.4707 324.49 9.94531 324.49 10.5234H323.4C323.4 10.2266 323.273 9.9707 323.02 9.75586C322.77 9.54102 322.453 9.43359 322.07 9.43359C321.676 9.43359 321.367 9.51953 321.145 9.69141C320.922 9.86328 320.811 10.0879 320.811 10.3652C320.811 10.627 320.914 10.8242 321.121 10.957C321.328 11.0898 321.701 11.2168 322.24 11.3379C322.783 11.459 323.223 11.6035 323.559 11.7715C323.895 11.9395 324.143 12.1426 324.303 12.3809C324.467 12.6152 324.549 12.9023 324.549 13.2422C324.549 13.8086 324.322 14.2637 323.869 14.6074C323.416 14.9473 322.828 15.1172 322.105 15.1172C321.598 15.1172 321.148 15.0273 320.758 14.8477C320.367 14.668 320.061 14.418 319.838 14.0977C319.619 13.7734 319.51 13.4238 319.51 13.0488H320.594C320.613 13.4121 320.758 13.7012 321.027 13.916C321.301 14.127 321.66 14.2324 322.105 14.2324C322.516 14.2324 322.844 14.1504 323.09 13.9863C323.34 13.8184 323.465 13.5957 323.465 13.3184ZM327.139 15H326.055V8.66016H327.139V15ZM325.967 6.97852C325.967 6.80273 326.02 6.6543 326.125 6.5332C326.234 6.41211 326.395 6.35156 326.605 6.35156C326.816 6.35156 326.977 6.41211 327.086 6.5332C327.195 6.6543 327.25 6.80273 327.25 6.97852C327.25 7.1543 327.195 7.30078 327.086 7.41797C326.977 7.53516 326.816 7.59375 326.605 7.59375C326.395 7.59375 326.234 7.53516 326.125 7.41797C326.02 7.30078 325.967 7.1543 325.967 6.97852ZM330.35 7.125V8.66016H331.533V9.49805H330.35V13.4297C330.35 13.6836 330.402 13.875 330.508 14.0039C330.613 14.1289 330.793 14.1914 331.047 14.1914C331.172 14.1914 331.344 14.168 331.562 14.1211V15C331.277 15.0781 331 15.1172 330.73 15.1172C330.246 15.1172 329.881 14.9707 329.635 14.6777C329.389 14.3848 329.266 13.9688 329.266 13.4297V9.49805H328.111V8.66016H329.266V7.125H330.35ZM333.982 15H332.898V8.66016H333.982V15ZM332.811 6.97852C332.811 6.80273 332.863 6.6543 332.969 6.5332C333.078 6.41211 333.238 6.35156 333.449 6.35156C333.66 6.35156 333.82 6.41211 333.93 6.5332C334.039 6.6543 334.094 6.80273 334.094 6.97852C334.094 7.1543 334.039 7.30078 333.93 7.41797C333.82 7.53516 333.66 7.59375 333.449 7.59375C333.238 7.59375 333.078 7.53516 332.969 7.41797C332.863 7.30078 332.811 7.1543 332.811 6.97852ZM335.436 11.7715C335.436 11.1504 335.557 10.5918 335.799 10.0957C336.045 9.59961 336.385 9.2168 336.818 8.94727C337.256 8.67773 337.754 8.54297 338.312 8.54297C339.176 8.54297 339.873 8.8418 340.404 9.43945C340.939 10.0371 341.207 10.832 341.207 11.8242V11.9004C341.207 12.5176 341.088 13.0723 340.85 13.5645C340.615 14.0527 340.277 14.4336 339.836 14.707C339.398 14.9805 338.895 15.1172 338.324 15.1172C337.465 15.1172 336.768 14.8184 336.232 14.2207C335.701 13.623 335.436 12.832 335.436 11.8477V11.7715ZM336.525 11.9004C336.525 12.6035 336.688 13.168 337.012 13.5938C337.34 14.0195 337.777 14.2324 338.324 14.2324C338.875 14.2324 339.312 14.0176 339.637 13.5879C339.961 13.1543 340.123 12.5488 340.123 11.7715C340.123 11.0762 339.957 10.5137 339.625 10.084C339.297 9.65039 338.859 9.43359 338.312 9.43359C337.777 9.43359 337.346 9.64648 337.018 10.0723C336.689 10.498 336.525 11.1074 336.525 11.9004ZM343.592 8.66016L343.627 9.45703C344.111 8.84766 344.744 8.54297 345.525 8.54297C346.865 8.54297 347.541 9.29883 347.553 10.8105V15H346.469V10.8047C346.465 10.3477 346.359 10.0098 346.152 9.79102C345.949 9.57227 345.631 9.46289 345.197 9.46289C344.846 9.46289 344.537 9.55664 344.271 9.74414C344.006 9.93164 343.799 10.1777 343.65 10.4824V15H342.566V8.66016H343.592ZM353.787 6.46875L356.576 13.4297L359.365 6.46875H360.824V15H359.699V11.6777L359.805 8.0918L357.004 15H356.143L353.348 8.10938L353.459 11.6777V15H352.334V6.46875H353.787ZM365.271 15.1172C364.412 15.1172 363.713 14.8359 363.174 14.2734C362.635 13.707 362.365 12.9512 362.365 12.0059V11.8066C362.365 11.1777 362.484 10.6172 362.723 10.125C362.965 9.62891 363.301 9.24219 363.73 8.96484C364.164 8.68359 364.633 8.54297 365.137 8.54297C365.961 8.54297 366.602 8.81445 367.059 9.35742C367.516 9.90039 367.744 10.6777 367.744 11.6895V12.1406H363.449C363.465 12.7656 363.646 13.2715 363.994 13.6582C364.346 14.041 364.791 14.2324 365.33 14.2324C365.713 14.2324 366.037 14.1543 366.303 13.998C366.568 13.8418 366.801 13.6348 367 13.377L367.662 13.8926C367.131 14.709 366.334 15.1172 365.271 15.1172ZM365.137 9.43359C364.699 9.43359 364.332 9.59375 364.035 9.91406C363.738 10.2305 363.555 10.6758 363.484 11.25H366.66V11.168C366.629 10.6172 366.48 10.1914 366.215 9.89062C365.949 9.58594 365.59 9.43359 365.137 9.43359ZM370.475 7.125V8.66016H371.658V9.49805H370.475V13.4297C370.475 13.6836 370.527 13.875 370.633 14.0039C370.738 14.1289 370.918 14.1914 371.172 14.1914C371.297 14.1914 371.469 14.168 371.688 14.1211V15C371.402 15.0781 371.125 15.1172 370.855 15.1172C370.371 15.1172 370.006 14.9707 369.76 14.6777C369.514 14.3848 369.391 13.9688 369.391 13.4297V9.49805H368.236V8.66016H369.391V7.125H370.475ZM376.844 15C376.781 14.875 376.73 14.6523 376.691 14.332C376.188 14.8555 375.586 15.1172 374.887 15.1172C374.262 15.1172 373.748 14.9414 373.346 14.5898C372.947 14.2344 372.748 13.7852 372.748 13.2422C372.748 12.582 372.998 12.0703 373.498 11.707C374.002 11.3398 374.709 11.1562 375.619 11.1562H376.674V10.6582C376.674 10.2793 376.561 9.97852 376.334 9.75586C376.107 9.5293 375.773 9.41602 375.332 9.41602C374.945 9.41602 374.621 9.51367 374.359 9.70898C374.098 9.9043 373.967 10.1406 373.967 10.418H372.877C372.877 10.1016 372.988 9.79688 373.211 9.50391C373.438 9.20703 373.742 8.97266 374.125 8.80078C374.512 8.62891 374.936 8.54297 375.396 8.54297C376.127 8.54297 376.699 8.72656 377.113 9.09375C377.527 9.45703 377.742 9.95898 377.758 10.5996V13.5176C377.758 14.0996 377.832 14.5625 377.98 14.9062V15H376.844ZM375.045 14.1738C375.385 14.1738 375.707 14.0859 376.012 13.9102C376.316 13.7344 376.537 13.5059 376.674 13.2246V11.9238H375.824C374.496 11.9238 373.832 12.3125 373.832 13.0898C373.832 13.4297 373.945 13.6953 374.172 13.8867C374.398 14.0781 374.689 14.1738 375.045 14.1738ZM380.635 15H379.551V6H380.635V15ZM386.066 13.3184C386.066 13.0254 385.955 12.7988 385.732 12.6387C385.514 12.4746 385.129 12.334 384.578 12.2168C384.031 12.0996 383.596 11.959 383.271 11.7949C382.951 11.6309 382.713 11.4355 382.557 11.209C382.404 10.9824 382.328 10.7129 382.328 10.4004C382.328 9.88086 382.547 9.44141 382.984 9.08203C383.426 8.72266 383.988 8.54297 384.672 8.54297C385.391 8.54297 385.973 8.72852 386.418 9.09961C386.867 9.4707 387.092 9.94531 387.092 10.5234H386.002C386.002 10.2266 385.875 9.9707 385.621 9.75586C385.371 9.54102 385.055 9.43359 384.672 9.43359C384.277 9.43359 383.969 9.51953 383.746 9.69141C383.523 9.86328 383.412 10.0879 383.412 10.3652C383.412 10.627 383.516 10.8242 383.723 10.957C383.93 11.0898 384.303 11.2168 384.842 11.3379C385.385 11.459 385.824 11.6035 386.16 11.7715C386.496 11.9395 386.744 12.1426 386.904 12.3809C387.068 12.6152 387.15 12.9023 387.15 13.2422C387.15 13.8086 386.924 14.2637 386.471 14.6074C386.018 14.9473 385.43 15.1172 384.707 15.1172C384.199 15.1172 383.75 15.0273 383.359 14.8477C382.969 14.668 382.662 14.418 382.439 14.0977C382.221 13.7734 382.111 13.4238 382.111 13.0488H383.195C383.215 13.4121 383.359 13.7012 383.629 13.916C383.902 14.127 384.262 14.2324 384.707 14.2324C385.117 14.2324 385.445 14.1504 385.691 13.9863C385.941 13.8184 386.066 13.5957 386.066 13.3184Z" fill="#223D5C"/>
<rect width="127" height="22" rx="2" transform="matrix(1 0 0 -1 415 22)" fill="#90BE6D"/>
<path d="M451.758 11.0098C451.758 11.8457 451.617 12.5762 451.336 13.2012C451.055 13.8223 450.656 14.2969 450.141 14.625C449.625 14.9531 449.023 15.1172 448.336 15.1172C447.664 15.1172 447.068 14.9531 446.549 14.625C446.029 14.293 445.625 13.8223 445.336 13.2129C445.051 12.5996 444.904 11.8906 444.896 11.0859V10.4707C444.896 9.65039 445.039 8.92578 445.324 8.29688C445.609 7.66797 446.012 7.1875 446.531 6.85547C447.055 6.51953 447.652 6.35156 448.324 6.35156C449.008 6.35156 449.609 6.51758 450.129 6.84961C450.652 7.17773 451.055 7.65625 451.336 8.28516C451.617 8.91016 451.758 9.63867 451.758 10.4707V11.0098ZM450.639 10.459C450.639 9.44727 450.436 8.67188 450.029 8.13281C449.623 7.58984 449.055 7.31836 448.324 7.31836C447.613 7.31836 447.053 7.58984 446.643 8.13281C446.236 8.67188 446.027 9.42188 446.016 10.3828V11.0098C446.016 11.9902 446.221 12.7617 446.631 13.3242C447.045 13.8828 447.613 14.1621 448.336 14.1621C449.062 14.1621 449.625 13.8984 450.023 13.3711C450.422 12.8398 450.627 12.0801 450.639 11.0918V10.459ZM454.746 7.125V8.66016H455.93V9.49805H454.746V13.4297C454.746 13.6836 454.799 13.875 454.904 14.0039C455.01 14.1289 455.189 14.1914 455.443 14.1914C455.568 14.1914 455.74 14.168 455.959 14.1211V15C455.674 15.0781 455.396 15.1172 455.127 15.1172C454.643 15.1172 454.277 14.9707 454.031 14.6777C453.785 14.3848 453.662 13.9688 453.662 13.4297V9.49805H452.508V8.66016H453.662V7.125H454.746ZM458.285 9.42773C458.766 8.83789 459.391 8.54297 460.16 8.54297C461.5 8.54297 462.176 9.29883 462.188 10.8105V15H461.104V10.8047C461.1 10.3477 460.994 10.0098 460.787 9.79102C460.584 9.57227 460.266 9.46289 459.832 9.46289C459.48 9.46289 459.172 9.55664 458.906 9.74414C458.641 9.93164 458.434 10.1777 458.285 10.4824V15H457.201V6H458.285V9.42773ZM466.441 15.1172C465.582 15.1172 464.883 14.8359 464.344 14.2734C463.805 13.707 463.535 12.9512 463.535 12.0059V11.8066C463.535 11.1777 463.654 10.6172 463.893 10.125C464.135 9.62891 464.471 9.24219 464.9 8.96484C465.334 8.68359 465.803 8.54297 466.307 8.54297C467.131 8.54297 467.771 8.81445 468.229 9.35742C468.686 9.90039 468.914 10.6777 468.914 11.6895V12.1406H464.619C464.635 12.7656 464.816 13.2715 465.164 13.6582C465.516 14.041 465.961 14.2324 466.5 14.2324C466.883 14.2324 467.207 14.1543 467.473 13.998C467.738 13.8418 467.971 13.6348 468.17 13.377L468.832 13.8926C468.301 14.709 467.504 15.1172 466.441 15.1172ZM466.307 9.43359C465.869 9.43359 465.502 9.59375 465.205 9.91406C464.908 10.2305 464.725 10.6758 464.654 11.25H467.83V11.168C467.799 10.6172 467.65 10.1914 467.385 9.89062C467.119 9.58594 466.76 9.43359 466.307 9.43359ZM473.238 9.63281C473.074 9.60547 472.896 9.5918 472.705 9.5918C471.994 9.5918 471.512 9.89453 471.258 10.5V15H470.174V8.66016H471.229L471.246 9.39258C471.602 8.82617 472.105 8.54297 472.758 8.54297C472.969 8.54297 473.129 8.57031 473.238 8.625V9.63281ZM478.84 6.46875L481.629 13.4297L484.418 6.46875H485.877V15H484.752V11.6777L484.857 8.0918L482.057 15H481.195L478.4 8.10938L478.512 11.6777V15H477.387V6.46875H478.84ZM490.324 15.1172C489.465 15.1172 488.766 14.8359 488.227 14.2734C487.688 13.707 487.418 12.9512 487.418 12.0059V11.8066C487.418 11.1777 487.537 10.6172 487.775 10.125C488.018 9.62891 488.354 9.24219 488.783 8.96484C489.217 8.68359 489.686 8.54297 490.189 8.54297C491.014 8.54297 491.654 8.81445 492.111 9.35742C492.568 9.90039 492.797 10.6777 492.797 11.6895V12.1406H488.502C488.518 12.7656 488.699 13.2715 489.047 13.6582C489.398 14.041 489.844 14.2324 490.383 14.2324C490.766 14.2324 491.09 14.1543 491.355 13.998C491.621 13.8418 491.854 13.6348 492.053 13.377L492.715 13.8926C492.184 14.709 491.387 15.1172 490.324 15.1172ZM490.189 9.43359C489.752 9.43359 489.385 9.59375 489.088 9.91406C488.791 10.2305 488.607 10.6758 488.537 11.25H491.713V11.168C491.682 10.6172 491.533 10.1914 491.268 9.89062C491.002 9.58594 490.643 9.43359 490.189 9.43359ZM495.527 7.125V8.66016H496.711V9.49805H495.527V13.4297C495.527 13.6836 495.58 13.875 495.686 14.0039C495.791 14.1289 495.971 14.1914 496.225 14.1914C496.35 14.1914 496.521 14.168 496.74 14.1211V15C496.455 15.0781 496.178 15.1172 495.908 15.1172C495.424 15.1172 495.059 14.9707 494.812 14.6777C494.566 14.3848 494.443 13.9688 494.443 13.4297V9.49805H493.289V8.66016H494.443V7.125H495.527ZM501.896 15C501.834 14.875 501.783 14.6523 501.744 14.332C501.24 14.8555 500.639 15.1172 499.939 15.1172C499.314 15.1172 498.801 14.9414 498.398 14.5898C498 14.2344 497.801 13.7852 497.801 13.2422C497.801 12.582 498.051 12.0703 498.551 11.707C499.055 11.3398 499.762 11.1562 500.672 11.1562H501.727V10.6582C501.727 10.2793 501.613 9.97852 501.387 9.75586C501.16 9.5293 500.826 9.41602 500.385 9.41602C499.998 9.41602 499.674 9.51367 499.412 9.70898C499.15 9.9043 499.02 10.1406 499.02 10.418H497.93C497.93 10.1016 498.041 9.79688 498.264 9.50391C498.49 9.20703 498.795 8.97266 499.178 8.80078C499.564 8.62891 499.988 8.54297 500.449 8.54297C501.18 8.54297 501.752 8.72656 502.166 9.09375C502.58 9.45703 502.795 9.95898 502.811 10.5996V13.5176C502.811 14.0996 502.885 14.5625 503.033 14.9062V15H501.896ZM500.098 14.1738C500.438 14.1738 500.76 14.0859 501.064 13.9102C501.369 13.7344 501.59 13.5059 501.727 13.2246V11.9238H500.877C499.549 11.9238 498.885 12.3125 498.885 13.0898C498.885 13.4297 498.998 13.6953 499.225 13.8867C499.451 14.0781 499.742 14.1738 500.098 14.1738ZM505.688 15H504.604V6H505.688V15ZM511.119 13.3184C511.119 13.0254 511.008 12.7988 510.785 12.6387C510.566 12.4746 510.182 12.334 509.631 12.2168C509.084 12.0996 508.648 11.959 508.324 11.7949C508.004 11.6309 507.766 11.4355 507.609 11.209C507.457 10.9824 507.381 10.7129 507.381 10.4004C507.381 9.88086 507.6 9.44141 508.037 9.08203C508.479 8.72266 509.041 8.54297 509.725 8.54297C510.443 8.54297 511.025 8.72852 511.471 9.09961C511.92 9.4707 512.145 9.94531 512.145 10.5234H511.055C511.055 10.2266 510.928 9.9707 510.674 9.75586C510.424 9.54102 510.107 9.43359 509.725 9.43359C509.33 9.43359 509.021 9.51953 508.799 9.69141C508.576 9.86328 508.465 10.0879 508.465 10.3652C508.465 10.627 508.568 10.8242 508.775 10.957C508.982 11.0898 509.355 11.2168 509.895 11.3379C510.438 11.459 510.877 11.6035 511.213 11.7715C511.549 11.9395 511.797 12.1426 511.957 12.3809C512.121 12.6152 512.203 12.9023 512.203 13.2422C512.203 13.8086 511.977 14.2637 511.523 14.6074C511.07 14.9473 510.482 15.1172 509.76 15.1172C509.252 15.1172 508.803 15.0273 508.412 14.8477C508.021 14.668 507.715 14.418 507.492 14.0977C507.273 13.7734 507.164 13.4238 507.164 13.0488H508.248C508.268 13.4121 508.412 13.7012 508.682 13.916C508.955 14.127 509.314 14.2324 509.76 14.2324C510.17 14.2324 510.498 14.1504 510.744 13.9863C510.994 13.8184 511.119 13.5957 511.119 13.3184Z" fill="#223D5C"/>
<rect width="127" height="22" rx="2" transform="matrix(1 0 0 -1 552 22)" fill="#F9C74F"/>
<path d="M589.518 6.46875L592.307 13.4297L595.096 6.46875H596.555V15H595.43V11.6777L595.535 8.0918L592.734 15H591.873L589.078 8.10938L589.189 11.6777V15H588.064V6.46875H589.518ZM601.002 15.1172C600.143 15.1172 599.443 14.8359 598.904 14.2734C598.365 13.707 598.096 12.9512 598.096 12.0059V11.8066C598.096 11.1777 598.215 10.6172 598.453 10.125C598.695 9.62891 599.031 9.24219 599.461 8.96484C599.895 8.68359 600.363 8.54297 600.867 8.54297C601.691 8.54297 602.332 8.81445 602.789 9.35742C603.246 9.90039 603.475 10.6777 603.475 11.6895V12.1406H599.18C599.195 12.7656 599.377 13.2715 599.725 13.6582C600.076 14.041 600.521 14.2324 601.061 14.2324C601.443 14.2324 601.768 14.1543 602.033 13.998C602.299 13.8418 602.531 13.6348 602.73 13.377L603.393 13.8926C602.861 14.709 602.064 15.1172 601.002 15.1172ZM600.867 9.43359C600.43 9.43359 600.062 9.59375 599.766 9.91406C599.469 10.2305 599.285 10.6758 599.215 11.25H602.391V11.168C602.359 10.6172 602.211 10.1914 601.945 9.89062C601.68 9.58594 601.32 9.43359 600.867 9.43359ZM606.205 7.125V8.66016H607.389V9.49805H606.205V13.4297C606.205 13.6836 606.258 13.875 606.363 14.0039C606.469 14.1289 606.648 14.1914 606.902 14.1914C607.027 14.1914 607.199 14.168 607.418 14.1211V15C607.133 15.0781 606.855 15.1172 606.586 15.1172C606.102 15.1172 605.736 14.9707 605.49 14.6777C605.244 14.3848 605.121 13.9688 605.121 13.4297V9.49805H603.967V8.66016H605.121V7.125H606.205ZM612.574 15C612.512 14.875 612.461 14.6523 612.422 14.332C611.918 14.8555 611.316 15.1172 610.617 15.1172C609.992 15.1172 609.479 14.9414 609.076 14.5898C608.678 14.2344 608.479 13.7852 608.479 13.2422C608.479 12.582 608.729 12.0703 609.229 11.707C609.732 11.3398 610.439 11.1562 611.35 11.1562H612.404V10.6582C612.404 10.2793 612.291 9.97852 612.064 9.75586C611.838 9.5293 611.504 9.41602 611.062 9.41602C610.676 9.41602 610.352 9.51367 610.09 9.70898C609.828 9.9043 609.697 10.1406 609.697 10.418H608.607C608.607 10.1016 608.719 9.79688 608.941 9.50391C609.168 9.20703 609.473 8.97266 609.855 8.80078C610.242 8.62891 610.666 8.54297 611.127 8.54297C611.857 8.54297 612.43 8.72656 612.844 9.09375C613.258 9.45703 613.473 9.95898 613.488 10.5996V13.5176C613.488 14.0996 613.562 14.5625 613.711 14.9062V15H612.574ZM610.775 14.1738C611.115 14.1738 611.438 14.0859 611.742 13.9102C612.047 13.7344 612.268 13.5059 612.404 13.2246V11.9238H611.555C610.227 11.9238 609.562 12.3125 609.562 13.0898C609.562 13.4297 609.676 13.6953 609.902 13.8867C610.129 14.0781 610.42 14.1738 610.775 14.1738ZM616.365 15H615.281V6H616.365V15ZM619.283 15H618.199V6H619.283V15ZM620.736 11.7715C620.736 11.1504 620.857 10.5918 621.1 10.0957C621.346 9.59961 621.686 9.2168 622.119 8.94727C622.557 8.67773 623.055 8.54297 623.613 8.54297C624.477 8.54297 625.174 8.8418 625.705 9.43945C626.24 10.0371 626.508 10.832 626.508 11.8242V11.9004C626.508 12.5176 626.389 13.0723 626.15 13.5645C625.916 14.0527 625.578 14.4336 625.137 14.707C624.699 14.9805 624.195 15.1172 623.625 15.1172C622.766 15.1172 622.068 14.8184 621.533 14.2207C621.002 13.623 620.736 12.832 620.736 11.8477V11.7715ZM621.826 11.9004C621.826 12.6035 621.988 13.168 622.312 13.5938C622.641 14.0195 623.078 14.2324 623.625 14.2324C624.176 14.2324 624.613 14.0176 624.938 13.5879C625.262 13.1543 625.424 12.5488 625.424 11.7715C625.424 11.0762 625.258 10.5137 624.926 10.084C624.598 9.65039 624.16 9.43359 623.613 9.43359C623.078 9.43359 622.646 9.64648 622.318 10.0723C621.99 10.498 621.826 11.1074 621.826 11.9004ZM629.045 15H627.961V8.66016H629.045V15ZM627.873 6.97852C627.873 6.80273 627.926 6.6543 628.031 6.5332C628.141 6.41211 628.301 6.35156 628.512 6.35156C628.723 6.35156 628.883 6.41211 628.992 6.5332C629.102 6.6543 629.156 6.80273 629.156 6.97852C629.156 7.1543 629.102 7.30078 628.992 7.41797C628.883 7.53516 628.723 7.59375 628.512 7.59375C628.301 7.59375 628.141 7.53516 628.031 7.41797C627.926 7.30078 627.873 7.1543 627.873 6.97852ZM630.521 11.7773C630.521 10.8047 630.752 10.0234 631.213 9.43359C631.674 8.83984 632.277 8.54297 633.023 8.54297C633.766 8.54297 634.354 8.79688 634.787 9.30469V6H635.871V15H634.875L634.822 14.3203C634.389 14.8516 633.785 15.1172 633.012 15.1172C632.277 15.1172 631.678 14.8164 631.213 14.2148C630.752 13.6133 630.521 12.8281 630.521 11.8594V11.7773ZM631.605 11.9004C631.605 12.6191 631.754 13.1816 632.051 13.5879C632.348 13.9941 632.758 14.1973 633.281 14.1973C633.969 14.1973 634.471 13.8887 634.787 13.2715V10.3594C634.463 9.76172 633.965 9.46289 633.293 9.46289C632.762 9.46289 632.348 9.66797 632.051 10.0781C631.754 10.4883 631.605 11.0957 631.605 11.9004ZM641.25 13.3184C641.25 13.0254 641.139 12.7988 640.916 12.6387C640.697 12.4746 640.312 12.334 639.762 12.2168C639.215 12.0996 638.779 11.959 638.455 11.7949C638.135 11.6309 637.896 11.4355 637.74 11.209C637.588 10.9824 637.512 10.7129 637.512 10.4004C637.512 9.88086 637.73 9.44141 638.168 9.08203C638.609 8.72266 639.172 8.54297 639.855 8.54297C640.574 8.54297 641.156 8.72852 641.602 9.09961C642.051 9.4707 642.275 9.94531 642.275 10.5234H641.186C641.186 10.2266 641.059 9.9707 640.805 9.75586C640.555 9.54102 640.238 9.43359 639.855 9.43359C639.461 9.43359 639.152 9.51953 638.93 9.69141C638.707 9.86328 638.596 10.0879 638.596 10.3652C638.596 10.627 638.699 10.8242 638.906 10.957C639.113 11.0898 639.486 11.2168 640.025 11.3379C640.568 11.459 641.008 11.6035 641.344 11.7715C641.68 11.9395 641.928 12.1426 642.088 12.3809C642.252 12.6152 642.334 12.9023 642.334 13.2422C642.334 13.8086 642.107 14.2637 641.654 14.6074C641.201 14.9473 640.613 15.1172 639.891 15.1172C639.383 15.1172 638.934 15.0273 638.543 14.8477C638.152 14.668 637.846 14.418 637.623 14.0977C637.404 13.7734 637.295 13.4238 637.295 13.0488H638.379C638.398 13.4121 638.543 13.7012 638.812 13.916C639.086 14.127 639.445 14.2324 639.891 14.2324C640.301 14.2324 640.629 14.1504 640.875 13.9863C641.125 13.8184 641.25 13.5957 641.25 13.3184Z" fill="#223D5C"/>
<rect width="127" height="22" rx="2" transform="matrix(1 0 0 -1 689 22)" fill="#277DA1"/>
<path d="M714.725 11.0098C714.725 11.8457 714.584 12.5762 714.303 13.2012C714.021 13.8223 713.623 14.2969 713.107 14.625C712.592 14.9531 711.99 15.1172 711.303 15.1172C710.631 15.1172 710.035 14.9531 709.516 14.625C708.996 14.293 708.592 13.8223 708.303 13.2129C708.018 12.5996 707.871 11.8906 707.863 11.0859V10.4707C707.863 9.65039 708.006 8.92578 708.291 8.29688C708.576 7.66797 708.979 7.1875 709.498 6.85547C710.021 6.51953 710.619 6.35156 711.291 6.35156C711.975 6.35156 712.576 6.51758 713.096 6.84961C713.619 7.17773 714.021 7.65625 714.303 8.28516C714.584 8.91016 714.725 9.63867 714.725 10.4707V11.0098ZM713.605 10.459C713.605 9.44727 713.402 8.67188 712.996 8.13281C712.59 7.58984 712.021 7.31836 711.291 7.31836C710.58 7.31836 710.02 7.58984 709.609 8.13281C709.203 8.67188 708.994 9.42188 708.982 10.3828V11.0098C708.982 11.9902 709.188 12.7617 709.598 13.3242C710.012 13.8828 710.58 14.1621 711.303 14.1621C712.029 14.1621 712.592 13.8984 712.99 13.3711C713.389 12.8398 713.594 12.0801 713.605 11.0918V10.459ZM717.713 7.125V8.66016H718.896V9.49805H717.713V13.4297C717.713 13.6836 717.766 13.875 717.871 14.0039C717.977 14.1289 718.156 14.1914 718.41 14.1914C718.535 14.1914 718.707 14.168 718.926 14.1211V15C718.641 15.0781 718.363 15.1172 718.094 15.1172C717.609 15.1172 717.244 14.9707 716.998 14.6777C716.752 14.3848 716.629 13.9688 716.629 13.4297V9.49805H715.475V8.66016H716.629V7.125H717.713ZM721.252 9.42773C721.732 8.83789 722.357 8.54297 723.127 8.54297C724.467 8.54297 725.143 9.29883 725.154 10.8105V15H724.07V10.8047C724.066 10.3477 723.961 10.0098 723.754 9.79102C723.551 9.57227 723.232 9.46289 722.799 9.46289C722.447 9.46289 722.139 9.55664 721.873 9.74414C721.607 9.93164 721.4 10.1777 721.252 10.4824V15H720.168V6H721.252V9.42773ZM729.408 15.1172C728.549 15.1172 727.85 14.8359 727.311 14.2734C726.771 13.707 726.502 12.9512 726.502 12.0059V11.8066C726.502 11.1777 726.621 10.6172 726.859 10.125C727.102 9.62891 727.438 9.24219 727.867 8.96484C728.301 8.68359 728.77 8.54297 729.273 8.54297C730.098 8.54297 730.738 8.81445 731.195 9.35742C731.652 9.90039 731.881 10.6777 731.881 11.6895V12.1406H727.586C727.602 12.7656 727.783 13.2715 728.131 13.6582C728.482 14.041 728.928 14.2324 729.467 14.2324C729.85 14.2324 730.174 14.1543 730.439 13.998C730.705 13.8418 730.938 13.6348 731.137 13.377L731.799 13.8926C731.268 14.709 730.471 15.1172 729.408 15.1172ZM729.273 9.43359C728.836 9.43359 728.469 9.59375 728.172 9.91406C727.875 10.2305 727.691 10.6758 727.621 11.25H730.797V11.168C730.766 10.6172 730.617 10.1914 730.352 9.89062C730.086 9.58594 729.727 9.43359 729.273 9.43359ZM736.205 9.63281C736.041 9.60547 735.863 9.5918 735.672 9.5918C734.961 9.5918 734.479 9.89453 734.225 10.5V15H733.141V8.66016H734.195L734.213 9.39258C734.568 8.82617 735.072 8.54297 735.725 8.54297C735.936 8.54297 736.096 8.57031 736.205 8.625V9.63281ZM746.91 15H745.779L741.484 8.42578V15H740.354V6.46875H741.484L745.791 13.0723V6.46875H746.91V15ZM748.451 11.7715C748.451 11.1504 748.572 10.5918 748.814 10.0957C749.061 9.59961 749.4 9.2168 749.834 8.94727C750.271 8.67773 750.77 8.54297 751.328 8.54297C752.191 8.54297 752.889 8.8418 753.42 9.43945C753.955 10.0371 754.223 10.832 754.223 11.8242V11.9004C754.223 12.5176 754.104 13.0723 753.865 13.5645C753.631 14.0527 753.293 14.4336 752.852 14.707C752.414 14.9805 751.91 15.1172 751.34 15.1172C750.48 15.1172 749.783 14.8184 749.248 14.2207C748.717 13.623 748.451 12.832 748.451 11.8477V11.7715ZM749.541 11.9004C749.541 12.6035 749.703 13.168 750.027 13.5938C750.355 14.0195 750.793 14.2324 751.34 14.2324C751.891 14.2324 752.328 14.0176 752.652 13.5879C752.977 13.1543 753.139 12.5488 753.139 11.7715C753.139 11.0762 752.973 10.5137 752.641 10.084C752.312 9.65039 751.875 9.43359 751.328 9.43359C750.793 9.43359 750.361 9.64648 750.033 10.0723C749.705 10.498 749.541 11.1074 749.541 11.9004ZM756.607 8.66016L756.643 9.45703C757.127 8.84766 757.76 8.54297 758.541 8.54297C759.881 8.54297 760.557 9.29883 760.568 10.8105V15H759.484V10.8047C759.48 10.3477 759.375 10.0098 759.168 9.79102C758.965 9.57227 758.646 9.46289 758.213 9.46289C757.861 9.46289 757.553 9.55664 757.287 9.74414C757.021 9.93164 756.814 10.1777 756.666 10.4824V15H755.582V8.66016H756.607ZM763.223 8.66016L763.252 9.36328C763.717 8.81641 764.344 8.54297 765.133 8.54297C766.02 8.54297 766.623 8.88281 766.943 9.5625C767.154 9.25781 767.428 9.01172 767.764 8.82422C768.104 8.63672 768.504 8.54297 768.965 8.54297C770.355 8.54297 771.062 9.2793 771.086 10.752V15H770.002V10.8164C770.002 10.3633 769.898 10.0254 769.691 9.80273C769.484 9.57617 769.137 9.46289 768.648 9.46289C768.246 9.46289 767.912 9.58398 767.646 9.82617C767.381 10.0645 767.227 10.3867 767.184 10.793V15H766.094V10.8457C766.094 9.92383 765.643 9.46289 764.74 9.46289C764.029 9.46289 763.543 9.76562 763.281 10.3711V15H762.197V8.66016H763.223ZM775.357 15.1172C774.498 15.1172 773.799 14.8359 773.26 14.2734C772.721 13.707 772.451 12.9512 772.451 12.0059V11.8066C772.451 11.1777 772.57 10.6172 772.809 10.125C773.051 9.62891 773.387 9.24219 773.816 8.96484C774.25 8.68359 774.719 8.54297 775.223 8.54297C776.047 8.54297 776.688 8.81445 777.145 9.35742C777.602 9.90039 777.83 10.6777 777.83 11.6895V12.1406H773.535C773.551 12.7656 773.732 13.2715 774.08 13.6582C774.432 14.041 774.877 14.2324 775.416 14.2324C775.799 14.2324 776.123 14.1543 776.389 13.998C776.654 13.8418 776.887 13.6348 777.086 13.377L777.748 13.8926C777.217 14.709 776.42 15.1172 775.357 15.1172ZM775.223 9.43359C774.785 9.43359 774.418 9.59375 774.121 9.91406C773.824 10.2305 773.641 10.6758 773.57 11.25H776.746V11.168C776.715 10.6172 776.566 10.1914 776.301 9.89062C776.035 9.58594 775.676 9.43359 775.223 9.43359ZM780.561 7.125V8.66016H781.744V9.49805H780.561V13.4297C780.561 13.6836 780.613 13.875 780.719 14.0039C780.824 14.1289 781.004 14.1914 781.258 14.1914C781.383 14.1914 781.555 14.168 781.773 14.1211V15C781.488 15.0781 781.211 15.1172 780.941 15.1172C780.457 15.1172 780.092 14.9707 779.846 14.6777C779.6 14.3848 779.477 13.9688 779.477 13.4297V9.49805H778.322V8.66016H779.477V7.125H780.561ZM786.93 15C786.867 14.875 786.816 14.6523 786.777 14.332C786.273 14.8555 785.672 15.1172 784.973 15.1172C784.348 15.1172 783.834 14.9414 783.432 14.5898C783.033 14.2344 782.834 13.7852 782.834 13.2422C782.834 12.582 783.084 12.0703 783.584 11.707C784.088 11.3398 784.795 11.1562 785.705 11.1562H786.76V10.6582C786.76 10.2793 786.646 9.97852 786.42 9.75586C786.193 9.5293 785.859 9.41602 785.418 9.41602C785.031 9.41602 784.707 9.51367 784.445 9.70898C784.184 9.9043 784.053 10.1406 784.053 10.418H782.963C782.963 10.1016 783.074 9.79688 783.297 9.50391C783.523 9.20703 783.828 8.97266 784.211 8.80078C784.598 8.62891 785.021 8.54297 785.482 8.54297C786.213 8.54297 786.785 8.72656 787.199 9.09375C787.613 9.45703 787.828 9.95898 787.844 10.5996V13.5176C787.844 14.0996 787.918 14.5625 788.066 14.9062V15H786.93ZM785.131 14.1738C785.471 14.1738 785.793 14.0859 786.098 13.9102C786.402 13.7344 786.623 13.5059 786.76 13.2246V11.9238H785.91C784.582 11.9238 783.918 12.3125 783.918 13.0898C783.918 13.4297 784.031 13.6953 784.258 13.8867C784.484 14.0781 784.775 14.1738 785.131 14.1738ZM790.721 15H789.637V6H790.721V15ZM796.152 13.3184C796.152 13.0254 796.041 12.7988 795.818 12.6387C795.6 12.4746 795.215 12.334 794.664 12.2168C794.117 12.0996 793.682 11.959 793.357 11.7949C793.037 11.6309 792.799 11.4355 792.643 11.209C792.49 10.9824 792.414 10.7129 792.414 10.4004C792.414 9.88086 792.633 9.44141 793.07 9.08203C793.512 8.72266 794.074 8.54297 794.758 8.54297C795.477 8.54297 796.059 8.72852 796.504 9.09961C796.953 9.4707 797.178 9.94531 797.178 10.5234H796.088C796.088 10.2266 795.961 9.9707 795.707 9.75586C795.457 9.54102 795.141 9.43359 794.758 9.43359C794.363 9.43359 794.055 9.51953 793.832 9.69141C793.609 9.86328 793.498 10.0879 793.498 10.3652C793.498 10.627 793.602 10.8242 793.809 10.957C794.016 11.0898 794.389 11.2168 794.928 11.3379C795.471 11.459 795.91 11.6035 796.246 11.7715C796.582 11.9395 796.83 12.1426 796.99 12.3809C797.154 12.6152 797.236 12.9023 797.236 13.2422C797.236 13.8086 797.01 14.2637 796.557 14.6074C796.104 14.9473 795.516 15.1172 794.793 15.1172C794.285 15.1172 793.836 15.0273 793.445 14.8477C793.055 14.668 792.748 14.418 792.525 14.0977C792.307 13.7734 792.197 13.4238 792.197 13.0488H793.281C793.301 13.4121 793.445 13.7012 793.715 13.916C793.988 14.127 794.348 14.2324 794.793 14.2324C795.203 14.2324 795.531 14.1504 795.777 13.9863C796.027 13.8184 796.152 13.5957 796.152 13.3184Z" fill="#223D5C"/>
<rect width="127" height="22" rx="2" transform="matrix(1 0 0 -1 826 22)" fill="#F9844A"/>
<path d="M871.67 15H870.539V11.0566H866.238V15H865.113V6.46875H866.238V10.1367H870.539V6.46875H871.67V15ZM877.412 15C877.35 14.875 877.299 14.6523 877.26 14.332C876.756 14.8555 876.154 15.1172 875.455 15.1172C874.83 15.1172 874.316 14.9414 873.914 14.5898C873.516 14.2344 873.316 13.7852 873.316 13.2422C873.316 12.582 873.566 12.0703 874.066 11.707C874.57 11.3398 875.277 11.1562 876.188 11.1562H877.242V10.6582C877.242 10.2793 877.129 9.97852 876.902 9.75586C876.676 9.5293 876.342 9.41602 875.9 9.41602C875.514 9.41602 875.189 9.51367 874.928 9.70898C874.666 9.9043 874.535 10.1406 874.535 10.418H873.445C873.445 10.1016 873.557 9.79688 873.779 9.50391C874.006 9.20703 874.311 8.97266 874.693 8.80078C875.08 8.62891 875.504 8.54297 875.965 8.54297C876.695 8.54297 877.268 8.72656 877.682 9.09375C878.096 9.45703 878.311 9.95898 878.326 10.5996V13.5176C878.326 14.0996 878.4 14.5625 878.549 14.9062V15H877.412ZM875.613 14.1738C875.953 14.1738 876.275 14.0859 876.58 13.9102C876.885 13.7344 877.105 13.5059 877.242 13.2246V11.9238H876.393C875.064 11.9238 874.4 12.3125 874.4 13.0898C874.4 13.4297 874.514 13.6953 874.74 13.8867C874.967 14.0781 875.258 14.1738 875.613 14.1738ZM881.203 15H880.119V6H881.203V15ZM882.656 11.7715C882.656 11.1504 882.777 10.5918 883.02 10.0957C883.266 9.59961 883.605 9.2168 884.039 8.94727C884.477 8.67773 884.975 8.54297 885.533 8.54297C886.396 8.54297 887.094 8.8418 887.625 9.43945C888.16 10.0371 888.428 10.832 888.428 11.8242V11.9004C888.428 12.5176 888.309 13.0723 888.07 13.5645C887.836 14.0527 887.498 14.4336 887.057 14.707C886.619 14.9805 886.115 15.1172 885.545 15.1172C884.686 15.1172 883.988 14.8184 883.453 14.2207C882.922 13.623 882.656 12.832 882.656 11.8477V11.7715ZM883.746 11.9004C883.746 12.6035 883.908 13.168 884.232 13.5938C884.561 14.0195 884.998 14.2324 885.545 14.2324C886.096 14.2324 886.533 14.0176 886.857 13.5879C887.182 13.1543 887.344 12.5488 887.344 11.7715C887.344 11.0762 887.178 10.5137 886.846 10.084C886.518 9.65039 886.08 9.43359 885.533 9.43359C884.998 9.43359 884.566 9.64648 884.238 10.0723C883.91 10.498 883.746 11.1074 883.746 11.9004ZM889.529 11.7773C889.529 10.7891 889.758 10.0039 890.215 9.42188C890.672 8.83594 891.277 8.54297 892.031 8.54297C892.805 8.54297 893.408 8.81641 893.842 9.36328L893.895 8.66016H894.885V14.8477C894.885 15.668 894.641 16.3145 894.152 16.7871C893.668 17.2598 893.016 17.4961 892.195 17.4961C891.738 17.4961 891.291 17.3984 890.854 17.2031C890.416 17.0078 890.082 16.7402 889.852 16.4004L890.414 15.75C890.879 16.3242 891.447 16.6113 892.119 16.6113C892.646 16.6113 893.057 16.4629 893.35 16.166C893.646 15.8691 893.795 15.4512 893.795 14.9121V14.3672C893.361 14.8672 892.77 15.1172 892.02 15.1172C891.277 15.1172 890.676 14.8184 890.215 14.2207C889.758 13.623 889.529 12.8086 889.529 11.7773ZM890.619 11.9004C890.619 12.6152 890.766 13.1777 891.059 13.5879C891.352 13.9941 891.762 14.1973 892.289 14.1973C892.973 14.1973 893.475 13.8867 893.795 13.2656V10.3711C893.463 9.76562 892.965 9.46289 892.301 9.46289C891.773 9.46289 891.361 9.66797 891.064 10.0781C890.768 10.4883 890.619 11.0957 890.619 11.9004ZM899.156 15.1172C898.297 15.1172 897.598 14.8359 897.059 14.2734C896.52 13.707 896.25 12.9512 896.25 12.0059V11.8066C896.25 11.1777 896.369 10.6172 896.607 10.125C896.85 9.62891 897.186 9.24219 897.615 8.96484C898.049 8.68359 898.518 8.54297 899.021 8.54297C899.846 8.54297 900.486 8.81445 900.943 9.35742C901.4 9.90039 901.629 10.6777 901.629 11.6895V12.1406H897.334C897.35 12.7656 897.531 13.2715 897.879 13.6582C898.23 14.041 898.676 14.2324 899.215 14.2324C899.598 14.2324 899.922 14.1543 900.188 13.998C900.453 13.8418 900.686 13.6348 900.885 13.377L901.547 13.8926C901.016 14.709 900.219 15.1172 899.156 15.1172ZM899.021 9.43359C898.584 9.43359 898.217 9.59375 897.92 9.91406C897.623 10.2305 897.439 10.6758 897.369 11.25H900.545V11.168C900.514 10.6172 900.365 10.1914 900.1 9.89062C899.834 9.58594 899.475 9.43359 899.021 9.43359ZM903.914 8.66016L903.949 9.45703C904.434 8.84766 905.066 8.54297 905.848 8.54297C907.188 8.54297 907.863 9.29883 907.875 10.8105V15H906.791V10.8047C906.787 10.3477 906.682 10.0098 906.475 9.79102C906.271 9.57227 905.953 9.46289 905.52 9.46289C905.168 9.46289 904.859 9.55664 904.594 9.74414C904.328 9.93164 904.121 10.1777 903.973 10.4824V15H902.889V8.66016H903.914ZM913.201 13.3184C913.201 13.0254 913.09 12.7988 912.867 12.6387C912.648 12.4746 912.264 12.334 911.713 12.2168C911.166 12.0996 910.73 11.959 910.406 11.7949C910.086 11.6309 909.848 11.4355 909.691 11.209C909.539 10.9824 909.463 10.7129 909.463 10.4004C909.463 9.88086 909.682 9.44141 910.119 9.08203C910.561 8.72266 911.123 8.54297 911.807 8.54297C912.525 8.54297 913.107 8.72852 913.553 9.09961C914.002 9.4707 914.227 9.94531 914.227 10.5234H913.137C913.137 10.2266 913.01 9.9707 912.756 9.75586C912.506 9.54102 912.189 9.43359 911.807 9.43359C911.412 9.43359 911.104 9.51953 910.881 9.69141C910.658 9.86328 910.547 10.0879 910.547 10.3652C910.547 10.627 910.65 10.8242 910.857 10.957C911.064 11.0898 911.438 11.2168 911.977 11.3379C912.52 11.459 912.959 11.6035 913.295 11.7715C913.631 11.9395 913.879 12.1426 914.039 12.3809C914.203 12.6152 914.285 12.9023 914.285 13.2422C914.285 13.8086 914.059 14.2637 913.605 14.6074C913.152 14.9473 912.564 15.1172 911.842 15.1172C911.334 15.1172 910.885 15.0273 910.494 14.8477C910.104 14.668 909.797 14.418 909.574 14.0977C909.355 13.7734 909.246 13.4238 909.246 13.0488H910.33C910.35 13.4121 910.494 13.7012 910.764 13.916C911.037 14.127 911.396 14.2324 911.842 14.2324C912.252 14.2324 912.58 14.1504 912.826 13.9863C913.076 13.8184 913.201 13.5957 913.201 13.3184Z" fill="#223D5C"/>
<rect width="127" height="22" rx="2" transform="matrix(1 0 0 -1 963 22)" fill="#F8961E"/>
<path d="M999.627 15H998.496L994.201 8.42578V15H993.07V6.46875H994.201L998.508 13.0723V6.46875H999.627V15ZM1001.17 11.7715C1001.17 11.1504 1001.29 10.5918 1001.53 10.0957C1001.78 9.59961 1002.12 9.2168 1002.55 8.94727C1002.99 8.67773 1003.49 8.54297 1004.04 8.54297C1004.91 8.54297 1005.61 8.8418 1006.14 9.43945C1006.67 10.0371 1006.94 10.832 1006.94 11.8242V11.9004C1006.94 12.5176 1006.82 13.0723 1006.58 13.5645C1006.35 14.0527 1006.01 14.4336 1005.57 14.707C1005.13 14.9805 1004.63 15.1172 1004.06 15.1172C1003.2 15.1172 1002.5 14.8184 1001.96 14.2207C1001.43 13.623 1001.17 12.832 1001.17 11.8477V11.7715ZM1002.26 11.9004C1002.26 12.6035 1002.42 13.168 1002.74 13.5938C1003.07 14.0195 1003.51 14.2324 1004.06 14.2324C1004.61 14.2324 1005.04 14.0176 1005.37 13.5879C1005.69 13.1543 1005.86 12.5488 1005.86 11.7715C1005.86 11.0762 1005.69 10.5137 1005.36 10.084C1005.03 9.65039 1004.59 9.43359 1004.04 9.43359C1003.51 9.43359 1003.08 9.64648 1002.75 10.0723C1002.42 10.498 1002.26 11.1074 1002.26 11.9004ZM1013.67 11.9004C1013.67 12.8691 1013.44 13.6484 1013 14.2383C1012.55 14.8242 1011.96 15.1172 1011.21 15.1172C1010.4 15.1172 1009.79 14.834 1009.35 14.2676L1009.29 15H1008.3V6H1009.38V9.35742C1009.82 8.81445 1010.42 8.54297 1011.19 8.54297C1011.96 8.54297 1012.57 8.83398 1013 9.41602C1013.45 9.99805 1013.67 10.7949 1013.67 11.8066V11.9004ZM1012.58 11.7773C1012.58 11.0391 1012.44 10.4688 1012.15 10.0664C1011.87 9.66406 1011.46 9.46289 1010.92 9.46289C1010.21 9.46289 1009.7 9.79492 1009.38 10.459V13.2012C1009.71 13.8652 1010.23 14.1973 1010.94 14.1973C1011.46 14.1973 1011.86 13.9961 1012.15 13.5938C1012.44 13.1914 1012.58 12.5859 1012.58 11.7773ZM1016.21 15H1015.13V6H1016.21V15ZM1020.59 15.1172C1019.73 15.1172 1019.03 14.8359 1018.49 14.2734C1017.95 13.707 1017.68 12.9512 1017.68 12.0059V11.8066C1017.68 11.1777 1017.8 10.6172 1018.04 10.125C1018.28 9.62891 1018.62 9.24219 1019.04 8.96484C1019.48 8.68359 1019.95 8.54297 1020.45 8.54297C1021.28 8.54297 1021.92 8.81445 1022.37 9.35742C1022.83 9.90039 1023.06 10.6777 1023.06 11.6895V12.1406H1018.76C1018.78 12.7656 1018.96 13.2715 1019.31 13.6582C1019.66 14.041 1020.11 14.2324 1020.64 14.2324C1021.03 14.2324 1021.35 14.1543 1021.62 13.998C1021.88 13.8418 1022.12 13.6348 1022.31 13.377L1022.98 13.8926C1022.45 14.709 1021.65 15.1172 1020.59 15.1172ZM1020.45 9.43359C1020.01 9.43359 1019.65 9.59375 1019.35 9.91406C1019.05 10.2305 1018.87 10.6758 1018.8 11.25H1021.97V11.168C1021.94 10.6172 1021.79 10.1914 1021.53 9.89062C1021.26 9.58594 1020.9 9.43359 1020.45 9.43359ZM1033.76 13.8809C1033.47 14.2949 1033.07 14.6055 1032.55 14.8125C1032.04 15.0156 1031.43 15.1172 1030.75 15.1172C1030.05 15.1172 1029.43 14.9551 1028.89 14.6309C1028.36 14.3027 1027.94 13.8379 1027.64 13.2363C1027.35 12.6348 1027.2 11.9375 1027.19 11.1445V10.4004C1027.19 9.11523 1027.49 8.11914 1028.09 7.41211C1028.69 6.70508 1029.53 6.35156 1030.62 6.35156C1031.51 6.35156 1032.22 6.58008 1032.77 7.03711C1033.31 7.49023 1033.64 8.13477 1033.76 8.9707H1032.64C1032.43 7.8418 1031.76 7.27734 1030.62 7.27734C1029.87 7.27734 1029.3 7.54297 1028.91 8.07422C1028.52 8.60156 1028.32 9.36719 1028.32 10.3711V11.0684C1028.32 12.0254 1028.54 12.7871 1028.98 13.3535C1029.41 13.916 1030.01 14.1973 1030.75 14.1973C1031.17 14.1973 1031.54 14.1504 1031.86 14.0566C1032.18 13.9629 1032.44 13.8047 1032.64 13.582V11.666H1030.67V10.752H1033.76V13.8809ZM1039.39 15C1039.33 14.875 1039.28 14.6523 1039.24 14.332C1038.73 14.8555 1038.13 15.1172 1037.43 15.1172C1036.81 15.1172 1036.29 14.9414 1035.89 14.5898C1035.49 14.2344 1035.29 13.7852 1035.29 13.2422C1035.29 12.582 1035.54 12.0703 1036.04 11.707C1036.55 11.3398 1037.25 11.1562 1038.16 11.1562H1039.22V10.6582C1039.22 10.2793 1039.11 9.97852 1038.88 9.75586C1038.65 9.5293 1038.32 9.41602 1037.88 9.41602C1037.49 9.41602 1037.17 9.51367 1036.9 9.70898C1036.64 9.9043 1036.51 10.1406 1036.51 10.418H1035.42C1035.42 10.1016 1035.53 9.79688 1035.76 9.50391C1035.98 9.20703 1036.29 8.97266 1036.67 8.80078C1037.06 8.62891 1037.48 8.54297 1037.94 8.54297C1038.67 8.54297 1039.24 8.72656 1039.66 9.09375C1040.07 9.45703 1040.29 9.95898 1040.3 10.5996V13.5176C1040.3 14.0996 1040.38 14.5625 1040.53 14.9062V15H1039.39ZM1037.59 14.1738C1037.93 14.1738 1038.25 14.0859 1038.56 13.9102C1038.86 13.7344 1039.08 13.5059 1039.22 13.2246V11.9238H1038.37C1037.04 11.9238 1036.38 12.3125 1036.38 13.0898C1036.38 13.4297 1036.49 13.6953 1036.72 13.8867C1036.94 14.0781 1037.23 14.1738 1037.59 14.1738ZM1045.69 13.3184C1045.69 13.0254 1045.58 12.7988 1045.36 12.6387C1045.14 12.4746 1044.76 12.334 1044.21 12.2168C1043.66 12.0996 1043.22 11.959 1042.9 11.7949C1042.58 11.6309 1042.34 11.4355 1042.18 11.209C1042.03 10.9824 1041.96 10.7129 1041.96 10.4004C1041.96 9.88086 1042.17 9.44141 1042.61 9.08203C1043.05 8.72266 1043.62 8.54297 1044.3 8.54297C1045.02 8.54297 1045.6 8.72852 1046.04 9.09961C1046.49 9.4707 1046.72 9.94531 1046.72 10.5234H1045.63C1045.63 10.2266 1045.5 9.9707 1045.25 9.75586C1045 9.54102 1044.68 9.43359 1044.3 9.43359C1043.9 9.43359 1043.6 9.51953 1043.37 9.69141C1043.15 9.86328 1043.04 10.0879 1043.04 10.3652C1043.04 10.627 1043.14 10.8242 1043.35 10.957C1043.56 11.0898 1043.93 11.2168 1044.47 11.3379C1045.01 11.459 1045.45 11.6035 1045.79 11.7715C1046.12 11.9395 1046.37 12.1426 1046.53 12.3809C1046.7 12.6152 1046.78 12.9023 1046.78 13.2422C1046.78 13.8086 1046.55 14.2637 1046.1 14.6074C1045.64 14.9473 1045.06 15.1172 1044.33 15.1172C1043.83 15.1172 1043.38 15.0273 1042.99 14.8477C1042.6 14.668 1042.29 14.418 1042.07 14.0977C1041.85 13.7734 1041.74 13.4238 1041.74 13.0488H1042.82C1042.84 13.4121 1042.99 13.7012 1043.26 13.916C1043.53 14.127 1043.89 14.2324 1044.33 14.2324C1044.74 14.2324 1045.07 14.1504 1045.32 13.9863C1045.57 13.8184 1045.69 13.5957 1045.69 13.3184ZM1050.82 15.1172C1049.96 15.1172 1049.26 14.8359 1048.72 14.2734C1048.18 13.707 1047.91 12.9512 1047.91 12.0059V11.8066C1047.91 11.1777 1048.03 10.6172 1048.27 10.125C1048.51 9.62891 1048.85 9.24219 1049.28 8.96484C1049.71 8.68359 1050.18 8.54297 1050.69 8.54297C1051.51 8.54297 1052.15 8.81445 1052.61 9.35742C1053.06 9.90039 1053.29 10.6777 1053.29 11.6895V12.1406H1049C1049.01 12.7656 1049.2 13.2715 1049.54 13.6582C1049.89 14.041 1050.34 14.2324 1050.88 14.2324C1051.26 14.2324 1051.59 14.1543 1051.85 13.998C1052.12 13.8418 1052.35 13.6348 1052.55 13.377L1053.21 13.8926C1052.68 14.709 1051.88 15.1172 1050.82 15.1172ZM1050.69 9.43359C1050.25 9.43359 1049.88 9.59375 1049.58 9.91406C1049.29 10.2305 1049.1 10.6758 1049.03 11.25H1052.21V11.168C1052.18 10.6172 1052.03 10.1914 1051.76 9.89062C1051.5 9.58594 1051.14 9.43359 1050.69 9.43359ZM1058.24 13.3184C1058.24 13.0254 1058.13 12.7988 1057.91 12.6387C1057.69 12.4746 1057.31 12.334 1056.76 12.2168C1056.21 12.0996 1055.77 11.959 1055.45 11.7949C1055.13 11.6309 1054.89 11.4355 1054.73 11.209C1054.58 10.9824 1054.51 10.7129 1054.51 10.4004C1054.51 9.88086 1054.72 9.44141 1055.16 9.08203C1055.6 8.72266 1056.17 8.54297 1056.85 8.54297C1057.57 8.54297 1058.15 8.72852 1058.6 9.09961C1059.04 9.4707 1059.27 9.94531 1059.27 10.5234H1058.18C1058.18 10.2266 1058.05 9.9707 1057.8 9.75586C1057.55 9.54102 1057.23 9.43359 1056.85 9.43359C1056.46 9.43359 1056.15 9.51953 1055.92 9.69141C1055.7 9.86328 1055.59 10.0879 1055.59 10.3652C1055.59 10.627 1055.69 10.8242 1055.9 10.957C1056.11 11.0898 1056.48 11.2168 1057.02 11.3379C1057.56 11.459 1058 11.6035 1058.34 11.7715C1058.67 11.9395 1058.92 12.1426 1059.08 12.3809C1059.25 12.6152 1059.33 12.9023 1059.33 13.2422C1059.33 13.8086 1059.1 14.2637 1058.65 14.6074C1058.2 14.9473 1057.61 15.1172 1056.88 15.1172C1056.38 15.1172 1055.93 15.0273 1055.54 14.8477C1055.15 14.668 1054.84 14.418 1054.62 14.0977C1054.4 13.7734 1054.29 13.4238 1054.29 13.0488H1055.37C1055.39 13.4121 1055.54 13.7012 1055.81 13.916C1056.08 14.127 1056.44 14.2324 1056.88 14.2324C1057.29 14.2324 1057.62 14.1504 1057.87 13.9863C1058.12 13.8184 1058.24 13.5957 1058.24 13.3184Z" fill="#223D5C"/>
</g>
<defs>
<filter id="filter0_d_2_1271" x="0" y="0" width="1094" height="30" filterUnits="userSpaceOnUse" color-interpolation-filters="sRGB">
<feFlood flood-opacity="0" result="BackgroundImageFix"/>
<feColorMatrix in="SourceAlpha" type="matrix" values="0 0 0 0 0 0 0 0 0 0 0 0 0 0 0 0 0 0 127 0" result="hardAlpha"/>
<feOffset dy="4"/>
<feGaussianBlur stdDeviation="2"/>
<feComposite in2="hardAlpha" operator="out"/>
<feColorMatrix type="matrix" values="0 0 0 0 0 0 0 0 0 0 0 0 0 0 0 0 0 0 0.25 0"/>
<feBlend mode="normal" in2="BackgroundImageFix" result="effect1_dropShadow_2_1271"/>
<feBlend mode="normal" in="SourceGraphic" in2="effect1_dropShadow_2_1271" result="shape"/>
</filter>
</defs>
</svg>
