<svg width="1369" height="332" viewBox="0 0 1369 332" fill="none" xmlns="http://www.w3.org/2000/svg">
<g filter="url(#filter0_d_6_158)">
<rect x="916.5" y="0.5" width="68" height="74" rx="1.5" fill="white" stroke="#90BE6D"/>
<rect x="916" width="69" height="19" rx="2" fill="#90BE6D"/>
<rect x="992.5" y="0.5" width="68" height="74" rx="1.5" fill="white" stroke="#F9C74F"/>
<rect x="992" width="69" height="19" rx="2" fill="#F9C74F"/>
<rect x="1068.5" y="0.5" width="68" height="74" rx="1.5" fill="white" stroke="#F9C74F"/>
<rect x="1068" width="69" height="19" rx="2" fill="#F9C74F"/>
<rect x="1144.5" y="0.5" width="68" height="74" rx="1.5" fill="white" stroke="#277DA1"/>
<rect x="1144" width="69" height="19" rx="2" fill="#277DA1"/>
<rect x="1220.5" y="0.5" width="68" height="74" rx="1.5" fill="white" stroke="#F9844A"/>
<rect x="1220" width="69" height="19" rx="2" fill="#F9844A"/>
<rect x="1296.5" y="0.5" width="68" height="74" rx="1.5" fill="white" stroke="#F8961E"/>
<rect x="1296" width="69" height="19" rx="2" fill="#F8961E"/>
<rect x="80.5" y="0.5" width="68" height="74" rx="1.5" fill="white" stroke="#4D908E"/>
<rect x="80" width="69" height="19" rx="2" fill="#4D908E"/>
<rect x="156.5" y="0.5" width="68" height="74" rx="1.5" fill="white" stroke="#43AA8B"/>
<rect x="156" width="69" height="19" rx="2" fill="#43AA8B"/>
<rect x="916.5" y="83.5" width="68" height="74" rx="1.5" fill="white" stroke="#90BE6D"/>
<rect x="916" y="83" width="69" height="19" rx="2" fill="#90BE6D"/>
<rect x="992.5" y="83.5" width="68" height="74" rx="1.5" fill="white" stroke="#90BE6D"/>
<rect x="992" y="83" width="69" height="19" rx="2" fill="#90BE6D"/>
<rect x="1068.5" y="83.5" width="68" height="74" rx="1.5" fill="white" stroke="#F9C74F"/>
<rect x="1068" y="83" width="69" height="19" rx="2" fill="#F9C74F"/>
<rect x="1144.5" y="83.5" width="68" height="74" rx="1.5" fill="white" stroke="#F9C74F"/>
<rect x="1144" y="83" width="69" height="19" rx="2" fill="#F9C74F"/>
<rect x="1220.5" y="83.5" width="68" height="74" rx="1.5" fill="white" stroke="#F9844A"/>
<rect x="1220" y="83" width="69" height="19" rx="2" fill="#F9844A"/>
<rect x="1296.5" y="83.5" width="68" height="74" rx="1.5" fill="white" stroke="#F8961E"/>
<rect x="1296" y="83" width="69" height="19" rx="2" fill="#F8961E"/>
<rect x="4.5" y="83.5" width="68" height="74" rx="1.5" fill="white" stroke="#577590"/>
<rect x="4" y="83" width="69" height="19" rx="2" fill="#577590"/>
<rect x="4.5" y="0.5" width="68" height="74" rx="1.5" fill="white" stroke="#577590"/>
<rect x="4" width="69" height="19" rx="2" fill="#577590"/>
<rect x="80.5" y="83.5" width="68" height="74" rx="1.5" fill="white" stroke="#4D908E"/>
<rect x="80" y="83" width="69" height="19" rx="2" fill="#4D908E"/>
<rect x="156.5" y="83.5" width="68" height="74" rx="1.5" fill="white" stroke="#43AA8B"/>
<rect x="156" y="83" width="69" height="19" rx="2" fill="#43AA8B"/>
<rect x="232.5" y="0.5" width="68" height="74" rx="1.5" fill="white" stroke="#43AA8B"/>
<rect x="232" width="69" height="19" rx="2" fill="#43AA8B"/>
<rect x="232.5" y="83.5" width="68" height="74" rx="1.5" fill="white" stroke="#43AA8B"/>
<rect x="232" y="83" width="69" height="19" rx="2" fill="#43AA8B"/>
<rect x="232.5" y="166.5" width="68" height="74" rx="1.5" fill="white" stroke="#43AA8B"/>
<rect x="232" y="166" width="69" height="19" rx="2" fill="#43AA8B"/>
<rect x="232.5" y="249.5" width="68" height="74" rx="1.5" fill="white" stroke="#43AA8B"/>
<rect x="232" y="249" width="69" height="19" rx="2" fill="#43AA8B"/>
<rect x="308.5" y="0.5" width="68" height="74" rx="1.5" fill="white" stroke="#43AA8B"/>
<rect x="308" width="69" height="19" rx="2" fill="#43AA8B"/>
<rect x="308.5" y="83.5" width="68" height="74" rx="1.5" fill="white" stroke="#43AA8B"/>
<rect x="308" y="83" width="69" height="19" rx="2" fill="#43AA8B"/>
<rect x="308.5" y="166.5" width="68" height="74" rx="1.5" fill="white" stroke="#43AA8B"/>
<rect x="308" y="166" width="69" height="19" rx="2" fill="#43AA8B"/>
<rect x="308.5" y="249.5" width="68" height="74" rx="1.5" fill="white" stroke="#43AA8B"/>
<rect x="308" y="249" width="69" height="19" rx="2" fill="#43AA8B"/>
<rect x="384.5" y="0.5" width="68" height="74" rx="1.5" fill="white" stroke="#43AA8B"/>
<rect x="384" width="69" height="19" rx="2" fill="#43AA8B"/>
<rect x="384.5" y="83.5" width="68" height="74" rx="1.5" fill="white" stroke="#43AA8B"/>
<rect x="384" y="83" width="69" height="19" rx="2" fill="#43AA8B"/>
<rect x="384.5" y="166.5" width="68" height="74" rx="1.5" fill="white" stroke="#43AA8B"/>
<rect x="384" y="166" width="69" height="19" rx="2" fill="#43AA8B"/>
<rect x="384.5" y="249.5" width="68" height="74" rx="1.5" fill="white" stroke="#43AA8B"/>
<rect x="384" y="249" width="69" height="19" rx="2" fill="#43AA8B"/>
<rect x="536.5" y="0.5" width="68" height="74" rx="1.5" fill="white" stroke="#43AA8B"/>
<rect x="536" width="69" height="19" rx="2" fill="#43AA8B"/>
<rect x="536.5" y="83.5" width="68" height="74" rx="1.5" fill="white" stroke="#43AA8B"/>
<rect x="536" y="83" width="69" height="19" rx="2" fill="#43AA8B"/>
<rect x="536.5" y="166.5" width="68" height="74" rx="1.5" fill="white" stroke="#43AA8B"/>
<rect x="536" y="166" width="69" height="19" rx="2" fill="#43AA8B"/>
<rect x="536.5" y="249.5" width="68" height="74" rx="1.5" fill="white" stroke="#43AA8B"/>
<rect x="536" y="249" width="69" height="19" rx="2" fill="#43AA8B"/>
<rect x="460.5" y="0.5" width="68" height="74" rx="1.5" fill="white" stroke="#43AA8B"/>
<rect x="460" width="69" height="19" rx="2" fill="#43AA8B"/>
<rect x="460.5" y="83.5" width="68" height="74" rx="1.5" fill="white" stroke="#43AA8B"/>
<rect x="460" y="83" width="69" height="19" rx="2" fill="#43AA8B"/>
<rect x="460.5" y="166.5" width="68" height="74" rx="1.5" fill="white" stroke="#43AA8B"/>
<rect x="460" y="166" width="69" height="19" rx="2" fill="#43AA8B"/>
<rect x="460.5" y="249.5" width="68" height="74" rx="1.5" fill="white" stroke="#43AA8B"/>
<rect x="460" y="249" width="69" height="19" rx="2" fill="#43AA8B"/>
<rect x="612.5" y="0.5" width="68" height="74" rx="1.5" fill="white" stroke="#43AA8B"/>
<rect x="612" width="69" height="19" rx="2" fill="#43AA8B"/>
<rect x="612.5" y="83.5" width="68" height="74" rx="1.5" fill="white" stroke="#43AA8B"/>
<rect x="612" y="83" width="69" height="19" rx="2" fill="#43AA8B"/>
<rect x="612.5" y="166.5" width="68" height="74" rx="1.5" fill="white" stroke="#43AA8B"/>
<rect x="612" y="166" width="69" height="19" rx="2" fill="#43AA8B"/>
<rect x="612.5" y="249.5" width="68" height="74" rx="1.5" fill="white" stroke="#43AA8B"/>
<rect x="612" y="249" width="69" height="19" rx="2" fill="#43AA8B"/>
<rect x="764.5" y="0.5" width="68" height="74" rx="1.5" fill="white" stroke="#43AA8B"/>
<rect x="764" width="69" height="19" rx="2" fill="#43AA8B"/>
<rect x="764.5" y="83.5" width="68" height="74" rx="1.5" fill="white" stroke="#43AA8B"/>
<rect x="764" y="83" width="69" height="19" rx="2" fill="#43AA8B"/>
<rect x="764.5" y="166.5" width="68" height="74" rx="1.5" fill="white" stroke="#43AA8B"/>
<rect x="764" y="166" width="69" height="19" rx="2" fill="#43AA8B"/>
<rect x="764.5" y="249.5" width="68" height="74" rx="1.5" fill="white" stroke="#43AA8B"/>
<rect x="764" y="249" width="69" height="19" rx="2" fill="#43AA8B"/>
<rect x="840.5" y="0.5" width="68" height="74" rx="1.5" fill="white" stroke="#43AA8B"/>
<rect x="840" width="69" height="19" rx="2" fill="#43AA8B"/>
<rect x="840.5" y="83.5" width="68" height="74" rx="1.5" fill="white" stroke="#43AA8B"/>
<rect x="840" y="83" width="69" height="19" rx="2" fill="#43AA8B"/>
<rect x="840.5" y="166.5" width="68" height="74" rx="1.5" fill="white" stroke="#43AA8B"/>
<rect x="840" y="166" width="69" height="19" rx="2" fill="#43AA8B"/>
<rect x="840.5" y="249.5" width="68" height="74" rx="1.5" fill="white" stroke="#43AA8B"/>
<rect x="840" y="249" width="69" height="19" rx="2" fill="#43AA8B"/>
<rect x="688.5" y="0.5" width="68" height="74" rx="1.5" fill="white" stroke="#43AA8B"/>
<rect x="688" width="69" height="19" rx="2" fill="#43AA8B"/>
<rect x="688.5" y="83.5" width="68" height="74" rx="1.5" fill="white" stroke="#43AA8B"/>
<rect x="688" y="83" width="69" height="19" rx="2" fill="#43AA8B"/>
<rect x="688.5" y="166.5" width="68" height="74" rx="1.5" fill="white" stroke="#43AA8B"/>
<rect x="688" y="166" width="69" height="19" rx="2" fill="#43AA8B"/>
<rect x="688.5" y="249.5" width="68" height="74" rx="1.5" fill="white" stroke="#43AA8B"/>
<rect x="688" y="249" width="69" height="19" rx="2" fill="#43AA8B"/>
<rect x="916.5" y="166.5" width="68" height="74" rx="1.5" fill="white" stroke="#90BE6D"/>
<rect x="916" y="166" width="69" height="19" rx="2" fill="#90BE6D"/>
<rect x="992.5" y="166.5" width="68" height="74" rx="1.5" fill="white" stroke="#90BE6D"/>
<rect x="992" y="166" width="69" height="19" rx="2" fill="#90BE6D"/>
<rect x="1068.5" y="166.5" width="68" height="74" rx="1.5" fill="white" stroke="#90BE6D"/>
<rect x="1068" y="166" width="69" height="19" rx="2" fill="#90BE6D"/>
<rect x="1144.5" y="166.5" width="68" height="74" rx="1.5" fill="white" stroke="#F9C74F"/>
<rect x="1144" y="166" width="69" height="19" rx="2" fill="#F9C74F"/>
<rect x="1220.5" y="166.5" width="68" height="74" rx="1.5" fill="white" stroke="#F9844A"/>
<rect x="1220" y="166" width="69" height="19" rx="2" fill="#F9844A"/>
<rect x="1296.5" y="166.5" width="68" height="74" rx="1.5" fill="white" stroke="#F8961E"/>
<rect x="1296" y="166" width="69" height="19" rx="2" fill="#F8961E"/>
<rect x="4.5" y="166.5" width="68" height="74" rx="1.5" fill="white" stroke="#577590"/>
<rect x="4" y="166" width="69" height="19" rx="2" fill="#577590"/>
<rect x="80.5" y="166.5" width="68" height="74" rx="1.5" fill="white" stroke="#4D908E"/>
<rect x="80" y="166" width="69" height="19" rx="2" fill="#4D908E"/>
<rect x="916.5" y="249.5" width="68" height="74" rx="1.5" fill="white" stroke="#90BE6D"/>
<rect x="916" y="249" width="69" height="19" rx="2" fill="#90BE6D"/>
<rect x="992.5" y="249.5" width="68" height="74" rx="1.5" fill="white" stroke="#90BE6D"/>
<rect x="992" y="249" width="69" height="19" rx="2" fill="#90BE6D"/>
<rect x="1068.5" y="249.5" width="68" height="74" rx="1.5" fill="white" stroke="#90BE6D"/>
<rect x="1068" y="249" width="69" height="19" rx="2" fill="#90BE6D"/>
<rect x="1144.5" y="249.5" width="68" height="74" rx="1.5" fill="white" stroke="#90BE6D"/>
<rect x="1144" y="249" width="69" height="19" rx="2" fill="#90BE6D"/>
<rect x="1220.5" y="249.5" width="68" height="74" rx="1.5" fill="white" stroke="#F9844A"/>
<rect x="1220" y="249" width="69" height="19" rx="2" fill="#F9844A"/>
<rect x="1296.5" y="249.5" width="68" height="74" rx="1.5" fill="white" stroke="#F8961E"/>
<rect x="1296" y="249" width="69" height="19" rx="2" fill="#F8961E"/>
<rect x="4.5" y="249.5" width="68" height="74" rx="1.5" fill="white" stroke="#577590"/>
<rect x="4" y="249" width="69" height="19" rx="2" fill="#577590"/>
<rect x="80.5" y="249.5" width="68" height="74" rx="1.5" fill="white" stroke="#4D908E"/>
<rect x="80" y="249" width="69" height="19" rx="2" fill="#4D908E"/>
</g>
<defs>
<filter id="filter0_d_6_158" x="0" y="0" width="1369" height="332" filterUnits="userSpaceOnUse" color-interpolation-filters="sRGB">
<feFlood flood-opacity="0" result="BackgroundImageFix"/>
<feColorMatrix in="SourceAlpha" type="matrix" values="0 0 0 0 0 0 0 0 0 0 0 0 0 0 0 0 0 0 127 0" result="hardAlpha"/>
<feOffset dy="4"/>
<feGaussianBlur stdDeviation="2"/>
<feComposite in2="hardAlpha" operator="out"/>
<feColorMatrix type="matrix" values="0 0 0 0 0 0 0 0 0 0 0 0 0 0 0 0 0 0 0.25 0"/>
<feBlend mode="normal" in2="BackgroundImageFix" result="effect1_dropShadow_6_158"/>
<feBlend mode="normal" in="SourceGraphic" in2="effect1_dropShadow_6_158" result="shape"/>
</filter>
</defs>
</svg>
