<svg width="131" height="50" viewBox="0 0 131 50" fill="none" xmlns="http://www.w3.org/2000/svg">
<g filter="url(#filter0_d_103_5)">
<path d="M4 0H127V22C127 33.0457 118.046 42 107 42H24C12.9543 42 4 33.0457 4 22V0Z" fill="white"/>
<path d="M24.9062 11.9375H31.2695C32.5742 11.9375 33.6953 12.1328 34.6328 12.5234C35.5781 12.9141 36.3047 13.4922 36.8125 14.2578C37.3203 15.0234 37.5742 15.9648 37.5742 17.082C37.5742 17.9961 37.418 18.7812 37.1055 19.4375C36.8008 20.0859 36.3672 20.6289 35.8047 21.0664C35.25 21.4961 34.5977 21.8398 33.8477 22.0977L32.7344 22.6836H27.2031L27.1797 19.9414H31.293C31.9102 19.9414 32.4219 19.832 32.8281 19.6133C33.2344 19.3945 33.5391 19.0898 33.7422 18.6992C33.9531 18.3086 34.0586 17.8555 34.0586 17.3398C34.0586 16.793 33.957 16.3203 33.7539 15.9219C33.5508 15.5234 33.2422 15.2188 32.8281 15.0078C32.4141 14.7969 31.8945 14.6914 31.2695 14.6914H28.4219V29H24.9062V11.9375ZM34.4453 29L30.5547 21.3945L34.2695 21.3711L38.207 28.8359V29H34.4453ZM45.9062 29.2344C44.9219 29.2344 44.0391 29.0781 43.2578 28.7656C42.4766 28.4453 41.8125 28.0039 41.2656 27.4414C40.7266 26.8789 40.3125 26.2266 40.0234 25.4844C39.7344 24.7344 39.5898 23.9375 39.5898 23.0938V22.625C39.5898 21.6641 39.7266 20.7852 40 19.9883C40.2734 19.1914 40.6641 18.5 41.1719 17.9141C41.6875 17.3281 42.3125 16.8789 43.0469 16.5664C43.7812 16.2461 44.6094 16.0859 45.5312 16.0859C46.4297 16.0859 47.2266 16.2344 47.9219 16.5312C48.6172 16.8281 49.1992 17.25 49.668 17.7969C50.1445 18.3438 50.5039 19 50.7461 19.7656C50.9883 20.5234 51.1094 21.3672 51.1094 22.2969V23.7031H41.0312V21.4531H47.793V21.1953C47.793 20.7266 47.707 20.3086 47.5352 19.9414C47.3711 19.5664 47.1211 19.2695 46.7852 19.0508C46.4492 18.832 46.0195 18.7227 45.4961 18.7227C45.0508 18.7227 44.668 18.8203 44.3477 19.0156C44.0273 19.2109 43.7656 19.4844 43.5625 19.8359C43.3672 20.1875 43.2188 20.6016 43.1172 21.0781C43.0234 21.5469 42.9766 22.0625 42.9766 22.625V23.0938C42.9766 23.6016 43.0469 24.0703 43.1875 24.5C43.3359 24.9297 43.543 25.3008 43.8086 25.6133C44.082 25.9258 44.4102 26.168 44.793 26.3398C45.1836 26.5117 45.625 26.5977 46.1172 26.5977C46.7266 26.5977 47.293 26.4805 47.8164 26.2461C48.3477 26.0039 48.8047 25.6406 49.1875 25.1562L50.8281 26.9375C50.5625 27.3203 50.1992 27.6875 49.7383 28.0391C49.2852 28.3906 48.7383 28.6797 48.0977 28.9062C47.457 29.125 46.7266 29.2344 45.9062 29.2344ZM57.332 29H53.9336V15.1953C53.9336 14.2344 54.1211 13.4258 54.4961 12.7695C54.8789 12.1055 55.4141 11.6055 56.1016 11.2695C56.7969 10.9258 57.6211 10.7539 58.5742 10.7539C58.8867 10.7539 59.1875 10.7773 59.4766 10.8242C59.7656 10.8633 60.0469 10.9141 60.3203 10.9766L60.2852 13.5195C60.1367 13.4805 59.9805 13.4531 59.8164 13.4375C59.6523 13.4219 59.4609 13.4141 59.2422 13.4141C58.8359 13.4141 58.4883 13.4844 58.1992 13.625C57.918 13.7578 57.7031 13.957 57.5547 14.2227C57.4062 14.4883 57.332 14.8125 57.332 15.1953V29ZM59.8633 16.3203V18.7109H52.0469V16.3203H59.8633ZM65.0078 19.0859V29H61.6328V16.3203H64.8086L65.0078 19.0859ZM68.8281 16.2383L68.7695 19.3672C68.6055 19.3438 68.4062 19.3242 68.1719 19.3086C67.9453 19.2852 67.7383 19.2734 67.5508 19.2734C67.0742 19.2734 66.6602 19.3359 66.3086 19.4609C65.9648 19.5781 65.6758 19.7539 65.4414 19.9883C65.2148 20.2227 65.043 20.5078 64.9258 20.8438C64.8164 21.1797 64.7539 21.5625 64.7383 21.9922L64.0586 21.7812C64.0586 20.9609 64.1406 20.207 64.3047 19.5195C64.4688 18.8242 64.707 18.2188 65.0195 17.7031C65.3398 17.1875 65.7305 16.7891 66.1914 16.5078C66.6523 16.2266 67.1797 16.0859 67.7734 16.0859C67.9609 16.0859 68.1523 16.1016 68.3477 16.1328C68.543 16.1562 68.7031 16.1914 68.8281 16.2383ZM76.0234 29.2344C75.0391 29.2344 74.1562 29.0781 73.375 28.7656C72.5938 28.4453 71.9297 28.0039 71.3828 27.4414C70.8438 26.8789 70.4297 26.2266 70.1406 25.4844C69.8516 24.7344 69.707 23.9375 69.707 23.0938V22.625C69.707 21.6641 69.8438 20.7852 70.1172 19.9883C70.3906 19.1914 70.7812 18.5 71.2891 17.9141C71.8047 17.3281 72.4297 16.8789 73.1641 16.5664C73.8984 16.2461 74.7266 16.0859 75.6484 16.0859C76.5469 16.0859 77.3438 16.2344 78.0391 16.5312C78.7344 16.8281 79.3164 17.25 79.7852 17.7969C80.2617 18.3438 80.6211 19 80.8633 19.7656C81.1055 20.5234 81.2266 21.3672 81.2266 22.2969V23.7031H71.1484V21.4531H77.9102V21.1953C77.9102 20.7266 77.8242 20.3086 77.6523 19.9414C77.4883 19.5664 77.2383 19.2695 76.9023 19.0508C76.5664 18.832 76.1367 18.7227 75.6133 18.7227C75.168 18.7227 74.7852 18.8203 74.4648 19.0156C74.1445 19.2109 73.8828 19.4844 73.6797 19.8359C73.4844 20.1875 73.3359 20.6016 73.2344 21.0781C73.1406 21.5469 73.0938 22.0625 73.0938 22.625V23.0938C73.0938 23.6016 73.1641 24.0703 73.3047 24.5C73.4531 24.9297 73.6602 25.3008 73.9258 25.6133C74.1992 25.9258 74.5273 26.168 74.9102 26.3398C75.3008 26.5117 75.7422 26.5977 76.2344 26.5977C76.8438 26.5977 77.4102 26.4805 77.9336 26.2461C78.4648 26.0039 78.9219 25.6406 79.3047 25.1562L80.9453 26.9375C80.6797 27.3203 80.3164 27.6875 79.8555 28.0391C79.4023 28.3906 78.8555 28.6797 78.2148 28.9062C77.5742 29.125 76.8438 29.2344 76.0234 29.2344ZM90.0039 25.4961C90.0039 25.2539 89.9336 25.0352 89.793 24.8398C89.6523 24.6445 89.3906 24.4648 89.0078 24.3008C88.6328 24.1289 88.0898 23.9727 87.3789 23.832C86.7383 23.6914 86.1406 23.5156 85.5859 23.3047C85.0391 23.0859 84.5625 22.8242 84.1562 22.5195C83.7578 22.2148 83.4453 21.8555 83.2188 21.4414C82.9922 21.0195 82.8789 20.5391 82.8789 20C82.8789 19.4688 82.9922 18.9688 83.2188 18.5C83.4531 18.0312 83.7852 17.6172 84.2148 17.2578C84.6523 16.8906 85.1836 16.6055 85.8086 16.4023C86.4414 16.1914 87.1523 16.0859 87.9414 16.0859C89.043 16.0859 89.9883 16.2617 90.7773 16.6133C91.5742 16.9648 92.1836 17.4492 92.6055 18.0664C93.0352 18.6758 93.25 19.3711 93.25 20.1523H89.875C89.875 19.8242 89.8047 19.5312 89.6641 19.2734C89.5312 19.0078 89.3203 18.8008 89.0312 18.6523C88.75 18.4961 88.3828 18.418 87.9297 18.418C87.5547 18.418 87.2305 18.4844 86.957 18.6172C86.6836 18.7422 86.4727 18.9141 86.3242 19.1328C86.1836 19.3438 86.1133 19.5781 86.1133 19.8359C86.1133 20.0312 86.1523 20.207 86.2305 20.3633C86.3164 20.5117 86.4531 20.6484 86.6406 20.7734C86.8281 20.8984 87.0703 21.0156 87.3672 21.125C87.6719 21.2266 88.0469 21.3203 88.4922 21.4062C89.4062 21.5938 90.2227 21.8398 90.9414 22.1445C91.6602 22.4414 92.2305 22.8477 92.6523 23.3633C93.0742 23.8711 93.2852 24.5391 93.2852 25.3672C93.2852 25.9297 93.1602 26.4453 92.9102 26.9141C92.6602 27.3828 92.3008 27.793 91.832 28.1445C91.3633 28.4883 90.8008 28.7578 90.1445 28.9531C89.4961 29.1406 88.7656 29.2344 87.9531 29.2344C86.7734 29.2344 85.7734 29.0234 84.9531 28.6016C84.1406 28.1797 83.5234 27.6445 83.1016 26.9961C82.6875 26.3398 82.4805 25.668 82.4805 24.9805H85.6797C85.6953 25.4414 85.8125 25.8125 86.0312 26.0938C86.2578 26.375 86.543 26.5781 86.8867 26.7031C87.2383 26.8281 87.6172 26.8906 88.0234 26.8906C88.4609 26.8906 88.8242 26.832 89.1133 26.7148C89.4023 26.5898 89.6211 26.4258 89.7695 26.2227C89.9258 26.0117 90.0039 25.7695 90.0039 25.4961ZM98.7695 11V29H95.3945V11H98.7695ZM98.2891 22.2148H97.3633C97.3711 21.332 97.4883 20.5195 97.7148 19.7773C97.9414 19.0273 98.2656 18.3789 98.6875 17.832C99.1094 17.2773 99.6133 16.8477 100.199 16.543C100.793 16.2383 101.449 16.0859 102.168 16.0859C102.793 16.0859 103.359 16.1758 103.867 16.3555C104.383 16.5273 104.824 16.8086 105.191 17.1992C105.566 17.582 105.855 18.0859 106.059 18.7109C106.262 19.3359 106.363 20.0938 106.363 20.9844V29H102.965V20.9609C102.965 20.3984 102.883 19.957 102.719 19.6367C102.562 19.3086 102.332 19.0781 102.027 18.9453C101.73 18.8047 101.363 18.7344 100.926 18.7344C100.441 18.7344 100.027 18.8242 99.6836 19.0039C99.3477 19.1836 99.0781 19.4336 98.875 19.7539C98.6719 20.0664 98.5234 20.4336 98.4297 20.8555C98.3359 21.2773 98.2891 21.7305 98.2891 22.2148Z" fill="#223D5C"/>
</g>
<defs>
<filter id="filter0_d_103_5" x="0" y="0" width="131" height="50" filterUnits="userSpaceOnUse" color-interpolation-filters="sRGB">
<feFlood flood-opacity="0" result="BackgroundImageFix"/>
<feColorMatrix in="SourceAlpha" type="matrix" values="0 0 0 0 0 0 0 0 0 0 0 0 0 0 0 0 0 0 127 0" result="hardAlpha"/>
<feOffset dy="4"/>
<feGaussianBlur stdDeviation="2"/>
<feComposite in2="hardAlpha" operator="out"/>
<feColorMatrix type="matrix" values="0 0 0 0 1 0 0 0 0 1 0 0 0 0 1 0 0 0 0.25 0"/>
<feBlend mode="normal" in2="BackgroundImageFix" result="effect1_dropShadow_103_5"/>
<feBlend mode="normal" in="SourceGraphic" in2="effect1_dropShadow_103_5" result="shape"/>
</filter>
</defs>
</svg>
