<svg width="69" height="75" viewBox="0 0 69 75" fill="none" xmlns="http://www.w3.org/2000/svg">
<rect x="0.5" y="0.5" width="68" height="74" rx="1.5" fill="white" stroke="#277DA1"/>
<rect width="69" height="19" rx="2" fill="#277DA1"/>
<path d="M44.3086 52H40.916V40.1699H28.0137V52H24.6387V26.4062H28.0137V37.4102H40.916V26.4062H44.3086V52Z" fill="#277DA1"/>
<path d="M16.8242 69H15.6934V65.0566H11.3926V69H10.2676V60.4688H11.3926V64.1367H15.6934V60.4688H16.8242V69ZM20.7266 67.4121L22.2031 62.6602H23.3633L20.8145 69.9785C20.4199 71.0332 19.793 71.5605 18.9336 71.5605L18.7285 71.543L18.3242 71.4668V70.5879L18.6172 70.6113C18.9844 70.6113 19.2695 70.5371 19.4727 70.3887C19.6797 70.2402 19.8496 69.9688 19.9824 69.5742L20.2227 68.9297L17.9609 62.6602H19.1445L20.7266 67.4121ZM23.9902 65.7773C23.9902 64.8047 24.2207 64.0234 24.6816 63.4336C25.1426 62.8398 25.7461 62.543 26.4922 62.543C27.2344 62.543 27.8223 62.7969 28.2559 63.3047V60H29.3398V69H28.3438L28.291 68.3203C27.8574 68.8516 27.2539 69.1172 26.4805 69.1172C25.7461 69.1172 25.1465 68.8164 24.6816 68.2148C24.2207 67.6133 23.9902 66.8281 23.9902 65.8594V65.7773ZM25.0742 65.9004C25.0742 66.6191 25.2227 67.1816 25.5195 67.5879C25.8164 67.9941 26.2266 68.1973 26.75 68.1973C27.4375 68.1973 27.9395 67.8887 28.2559 67.2715V64.3594C27.9316 63.7617 27.4336 63.4629 26.7617 63.4629C26.2305 63.4629 25.8164 63.668 25.5195 64.0781C25.2227 64.4883 25.0742 65.0957 25.0742 65.9004ZM34.0918 63.6328C33.9277 63.6055 33.75 63.5918 33.5586 63.5918C32.8477 63.5918 32.3652 63.8945 32.1113 64.5V69H31.0273V62.6602H32.082L32.0996 63.3926C32.4551 62.8262 32.959 62.543 33.6113 62.543C33.8223 62.543 33.9824 62.5703 34.0918 62.625V63.6328ZM34.6895 65.7715C34.6895 65.1504 34.8105 64.5918 35.0527 64.0957C35.2988 63.5996 35.6387 63.2168 36.0723 62.9473C36.5098 62.6777 37.0078 62.543 37.5664 62.543C38.4297 62.543 39.127 62.8418 39.6582 63.4395C40.1934 64.0371 40.4609 64.832 40.4609 65.8242V65.9004C40.4609 66.5176 40.3418 67.0723 40.1035 67.5645C39.8691 68.0527 39.5312 68.4336 39.0898 68.707C38.6523 68.9805 38.1484 69.1172 37.5781 69.1172C36.7188 69.1172 36.0215 68.8184 35.4863 68.2207C34.9551 67.623 34.6895 66.832 34.6895 65.8477V65.7715ZM35.7793 65.9004C35.7793 66.6035 35.9414 67.168 36.2656 67.5938C36.5938 68.0195 37.0312 68.2324 37.5781 68.2324C38.1289 68.2324 38.5664 68.0176 38.8906 67.5879C39.2148 67.1543 39.377 66.5488 39.377 65.7715C39.377 65.0762 39.2109 64.5137 38.8789 64.084C38.5508 63.6504 38.1133 63.4336 37.5664 63.4336C37.0312 63.4336 36.5996 63.6465 36.2715 64.0723C35.9434 64.498 35.7793 65.1074 35.7793 65.9004ZM41.5625 65.7773C41.5625 64.7891 41.791 64.0039 42.248 63.4219C42.7051 62.8359 43.3105 62.543 44.0645 62.543C44.8379 62.543 45.4414 62.8164 45.875 63.3633L45.9277 62.6602H46.918V68.8477C46.918 69.668 46.6738 70.3145 46.1855 70.7871C45.7012 71.2598 45.0488 71.4961 44.2285 71.4961C43.7715 71.4961 43.3242 71.3984 42.8867 71.2031C42.4492 71.0078 42.1152 70.7402 41.8848 70.4004L42.4473 69.75C42.9121 70.3242 43.4805 70.6113 44.1523 70.6113C44.6797 70.6113 45.0898 70.4629 45.3828 70.166C45.6797 69.8691 45.8281 69.4512 45.8281 68.9121V68.3672C45.3945 68.8672 44.8027 69.1172 44.0527 69.1172C43.3105 69.1172 42.709 68.8184 42.248 68.2207C41.791 67.623 41.5625 66.8086 41.5625 65.7773ZM42.6523 65.9004C42.6523 66.6152 42.7988 67.1777 43.0918 67.5879C43.3848 67.9941 43.7949 68.1973 44.3223 68.1973C45.0059 68.1973 45.5078 67.8867 45.8281 67.2656V64.3711C45.4961 63.7656 44.998 63.4629 44.334 63.4629C43.8066 63.4629 43.3945 63.668 43.0977 64.0781C42.8008 64.4883 42.6523 65.0957 42.6523 65.9004ZM51.1895 69.1172C50.3301 69.1172 49.6309 68.8359 49.0918 68.2734C48.5527 67.707 48.2832 66.9512 48.2832 66.0059V65.8066C48.2832 65.1777 48.4023 64.6172 48.6406 64.125C48.8828 63.6289 49.2188 63.2422 49.6484 62.9648C50.082 62.6836 50.5508 62.543 51.0547 62.543C51.8789 62.543 52.5195 62.8145 52.9766 63.3574C53.4336 63.9004 53.6621 64.6777 53.6621 65.6895V66.1406H49.3672C49.3828 66.7656 49.5645 67.2715 49.9121 67.6582C50.2637 68.041 50.709 68.2324 51.248 68.2324C51.6309 68.2324 51.9551 68.1543 52.2207 67.998C52.4863 67.8418 52.7188 67.6348 52.918 67.377L53.5801 67.8926C53.0488 68.709 52.252 69.1172 51.1895 69.1172ZM51.0547 63.4336C50.6172 63.4336 50.25 63.5938 49.9531 63.9141C49.6562 64.2305 49.4727 64.6758 49.4023 65.25H52.5781V65.168C52.5469 64.6172 52.3984 64.1914 52.1328 63.8906C51.8672 63.5859 51.5078 63.4336 51.0547 63.4336ZM55.9473 62.6602L55.9824 63.457C56.4668 62.8477 57.0996 62.543 57.8809 62.543C59.2207 62.543 59.8965 63.2988 59.9082 64.8105V69H58.8242V64.8047C58.8203 64.3477 58.7148 64.0098 58.5078 63.791C58.3047 63.5723 57.9863 63.4629 57.5527 63.4629C57.2012 63.4629 56.8926 63.5566 56.627 63.7441C56.3613 63.9316 56.1543 64.1777 56.0059 64.4824V69H54.9219V62.6602H55.9473Z" fill="#277DA1"/>
<path d="M9.40234 13H8.3125V5.77539L6.12695 6.57812V5.59375L9.23242 4.42773H9.40234V13Z" fill="white"/>
</svg>
