<svg width="69" height="75" viewBox="0 0 69 75" fill="none" xmlns="http://www.w3.org/2000/svg">
<rect x="0.5" y="0.5" width="68" height="74" rx="1.5" fill="white" stroke="#F8961E"/>
<rect width="69" height="19" rx="2" fill="#F8961E"/>
<path d="M34.7637 52H31.3711L18.4863 32.2773V52H15.0938V26.4062H18.4863L31.4062 46.2168V26.4062H34.7637V52ZM48.1406 52.3516C45.5625 52.3516 43.4648 51.5078 41.8477 49.8203C40.2305 48.1211 39.4219 45.8535 39.4219 43.0176V42.4199C39.4219 40.5332 39.7793 38.8516 40.4941 37.375C41.2207 35.8867 42.2285 34.7266 43.5176 33.8945C44.8184 33.0508 46.2246 32.6289 47.7363 32.6289C50.209 32.6289 52.1309 33.4434 53.502 35.0723C54.873 36.7012 55.5586 39.0332 55.5586 42.0684V43.4219H42.6738C42.7207 45.2969 43.2656 46.8145 44.3086 47.9746C45.3633 49.123 46.6992 49.6973 48.3164 49.6973C49.4648 49.6973 50.4375 49.4629 51.2344 48.9941C52.0312 48.5254 52.7285 47.9043 53.3262 47.1309L55.3125 48.6777C53.7188 51.127 51.3281 52.3516 48.1406 52.3516ZM47.7363 35.3008C46.4238 35.3008 45.3223 35.7812 44.4316 36.7422C43.541 37.6914 42.9902 39.0273 42.7793 40.75H52.3066V40.5039C52.2129 38.8516 51.7676 37.5742 50.9707 36.6719C50.1738 35.7578 49.0957 35.3008 47.7363 35.3008Z" fill="#F8961E"/>
<path d="M28.8555 69H27.7246L23.4297 62.4258V69H22.2988V60.4688H23.4297L27.7363 67.0723V60.4688H28.8555V69ZM33.3145 69.1172C32.4551 69.1172 31.7559 68.8359 31.2168 68.2734C30.6777 67.707 30.4082 66.9512 30.4082 66.0059V65.8066C30.4082 65.1777 30.5273 64.6172 30.7656 64.125C31.0078 63.6289 31.3438 63.2422 31.7734 62.9648C32.207 62.6836 32.6758 62.543 33.1797 62.543C34.0039 62.543 34.6445 62.8145 35.1016 63.3574C35.5586 63.9004 35.7871 64.6777 35.7871 65.6895V66.1406H31.4922C31.5078 66.7656 31.6895 67.2715 32.0371 67.6582C32.3887 68.041 32.834 68.2324 33.373 68.2324C33.7559 68.2324 34.0801 68.1543 34.3457 67.998C34.6113 67.8418 34.8438 67.6348 35.043 67.377L35.7051 67.8926C35.1738 68.709 34.377 69.1172 33.3145 69.1172ZM33.1797 63.4336C32.7422 63.4336 32.375 63.5938 32.0781 63.9141C31.7812 64.2305 31.5977 64.6758 31.5273 65.25H34.7031V65.168C34.6719 64.6172 34.5234 64.1914 34.2578 63.8906C33.9922 63.5859 33.6328 63.4336 33.1797 63.4336ZM36.7598 65.7715C36.7598 65.1504 36.8809 64.5918 37.123 64.0957C37.3691 63.5996 37.709 63.2168 38.1426 62.9473C38.5801 62.6777 39.0781 62.543 39.6367 62.543C40.5 62.543 41.1973 62.8418 41.7285 63.4395C42.2637 64.0371 42.5312 64.832 42.5312 65.8242V65.9004C42.5312 66.5176 42.4121 67.0723 42.1738 67.5645C41.9395 68.0527 41.6016 68.4336 41.1602 68.707C40.7227 68.9805 40.2188 69.1172 39.6484 69.1172C38.7891 69.1172 38.0918 68.8184 37.5566 68.2207C37.0254 67.623 36.7598 66.832 36.7598 65.8477V65.7715ZM37.8496 65.9004C37.8496 66.6035 38.0117 67.168 38.3359 67.5938C38.6641 68.0195 39.1016 68.2324 39.6484 68.2324C40.1992 68.2324 40.6367 68.0176 40.9609 67.5879C41.2852 67.1543 41.4473 66.5488 41.4473 65.7715C41.4473 65.0762 41.2812 64.5137 40.9492 64.084C40.6211 63.6504 40.1836 63.4336 39.6367 63.4336C39.1016 63.4336 38.6699 63.6465 38.3418 64.0723C38.0137 64.498 37.8496 65.1074 37.8496 65.9004ZM44.916 62.6602L44.9512 63.457C45.4355 62.8477 46.0684 62.543 46.8496 62.543C48.1895 62.543 48.8652 63.2988 48.877 64.8105V69H47.793V64.8047C47.7891 64.3477 47.6836 64.0098 47.4766 63.791C47.2734 63.5723 46.9551 63.4629 46.5215 63.4629C46.1699 63.4629 45.8613 63.5566 45.5957 63.7441C45.3301 63.9316 45.123 64.1777 44.9746 64.4824V69H43.8906V62.6602H44.916Z" fill="#F8961E"/>
<path d="M5.5332 13H4.44336V5.77539L2.25781 6.57812V5.59375L5.36328 4.42773H5.5332V13ZM14.0586 9.36133C14.0586 10.6309 13.8418 11.5742 13.4082 12.1914C12.9746 12.8086 12.2969 13.1172 11.375 13.1172C10.4648 13.1172 9.79102 12.8164 9.35352 12.2148C8.91602 11.6094 8.68945 10.707 8.67383 9.50781V8.06055C8.67383 6.80664 8.89062 5.875 9.32422 5.26562C9.75781 4.65625 10.4375 4.35156 11.3633 4.35156C12.2812 4.35156 12.957 4.64648 13.3906 5.23633C13.8242 5.82227 14.0469 6.72852 14.0586 7.95508V9.36133ZM12.9746 7.87891C12.9746 6.96094 12.8457 6.29297 12.5879 5.875C12.3301 5.45312 11.9219 5.24219 11.3633 5.24219C10.8086 5.24219 10.4043 5.45117 10.1504 5.86914C9.89648 6.28711 9.76562 6.92969 9.75781 7.79688V9.53125C9.75781 10.4531 9.89062 11.1348 10.1562 11.5762C10.4258 12.0137 10.832 12.2324 11.375 12.2324C11.9102 12.2324 12.3066 12.0254 12.5645 11.6113C12.8262 11.1973 12.9629 10.5449 12.9746 9.6543V7.87891Z" fill="white"/>
</svg>
