<svg width="69" height="75" viewBox="0 0 69 75" fill="none" xmlns="http://www.w3.org/2000/svg">
<rect x="0.5" y="0.5" width="68" height="74" rx="1.5" fill="white" stroke="#577590"/>
<rect width="69" height="19" rx="2" fill="#577590"/>
<path d="M34.5176 52H31.125L18.2402 32.2773V52H14.8477V26.4062H18.2402L31.1602 46.2168V26.4062H34.5176V52ZM51.7441 52C51.5566 51.625 51.4043 50.957 51.2871 49.9961C49.7754 51.5664 47.9707 52.3516 45.873 52.3516C43.998 52.3516 42.457 51.8242 41.25 50.7695C40.0547 49.7031 39.457 48.3555 39.457 46.7266C39.457 44.7461 40.207 43.2109 41.707 42.1211C43.2188 41.0195 45.3398 40.4688 48.0703 40.4688H51.2344V38.9746C51.2344 37.8379 50.8945 36.9355 50.2148 36.2676C49.5352 35.5879 48.5332 35.248 47.209 35.248C46.0488 35.248 45.0762 35.541 44.291 36.127C43.5059 36.7129 43.1133 37.4219 43.1133 38.2539H39.8438C39.8438 37.3047 40.1777 36.3906 40.8457 35.5117C41.5254 34.6211 42.4395 33.918 43.5879 33.4023C44.748 32.8867 46.0195 32.6289 47.4023 32.6289C49.5938 32.6289 51.3105 33.1797 52.5527 34.2812C53.7949 35.3711 54.4395 36.877 54.4863 38.7988V47.5527C54.4863 49.2988 54.709 50.6875 55.1543 51.7188V52H51.7441ZM46.3477 49.5215C47.3672 49.5215 48.334 49.2578 49.248 48.7305C50.1621 48.2031 50.8242 47.5176 51.2344 46.6738V42.7715H48.6855C44.7012 42.7715 42.709 43.9375 42.709 46.2695C42.709 47.2891 43.0488 48.0859 43.7285 48.6602C44.4082 49.2344 45.2812 49.5215 46.3477 49.5215Z" fill="#577590"/>
<path d="M18.6016 65.1973C17.6367 64.9199 16.9336 64.5801 16.4922 64.1777C16.0547 63.7715 15.8359 63.2715 15.8359 62.6777C15.8359 62.0059 16.1035 61.4512 16.6387 61.0137C17.1777 60.5723 17.877 60.3516 18.7363 60.3516C19.3223 60.3516 19.8438 60.4648 20.3008 60.6914C20.7617 60.918 21.1172 61.2305 21.3672 61.6289C21.6211 62.0273 21.748 62.4629 21.748 62.9355H20.6172C20.6172 62.4199 20.4531 62.0156 20.125 61.7227C19.7969 61.4258 19.334 61.2773 18.7363 61.2773C18.1816 61.2773 17.748 61.4004 17.4355 61.6465C17.127 61.8887 16.9727 62.2266 16.9727 62.6602C16.9727 63.0078 17.1191 63.3027 17.4121 63.5449C17.709 63.7832 18.2109 64.002 18.918 64.2012C19.6289 64.4004 20.1836 64.6211 20.582 64.8633C20.9844 65.1016 21.2812 65.3809 21.4727 65.7012C21.668 66.0215 21.7656 66.3984 21.7656 66.832C21.7656 67.5234 21.4961 68.0781 20.957 68.4961C20.418 68.9102 19.6973 69.1172 18.7949 69.1172C18.209 69.1172 17.6621 69.0059 17.1543 68.7832C16.6465 68.5566 16.2539 68.248 15.9766 67.8574C15.7031 67.4668 15.5664 67.0234 15.5664 66.5273H16.6973C16.6973 67.043 16.8867 67.4512 17.2656 67.752C17.6484 68.0488 18.1582 68.1973 18.7949 68.1973C19.3887 68.1973 19.8438 68.0762 20.1602 67.834C20.4766 67.5918 20.6348 67.2617 20.6348 66.8438C20.6348 66.4258 20.4883 66.1035 20.1953 65.877C19.9023 65.6465 19.3711 65.4199 18.6016 65.1973ZM22.7559 65.7715C22.7559 65.1504 22.877 64.5918 23.1191 64.0957C23.3652 63.5996 23.7051 63.2168 24.1387 62.9473C24.5762 62.6777 25.0742 62.543 25.6328 62.543C26.4961 62.543 27.1934 62.8418 27.7246 63.4395C28.2598 64.0371 28.5273 64.832 28.5273 65.8242V65.9004C28.5273 66.5176 28.4082 67.0723 28.1699 67.5645C27.9355 68.0527 27.5977 68.4336 27.1562 68.707C26.7188 68.9805 26.2148 69.1172 25.6445 69.1172C24.7852 69.1172 24.0879 68.8184 23.5527 68.2207C23.0215 67.623 22.7559 66.832 22.7559 65.8477V65.7715ZM23.8457 65.9004C23.8457 66.6035 24.0078 67.168 24.332 67.5938C24.6602 68.0195 25.0977 68.2324 25.6445 68.2324C26.1953 68.2324 26.6328 68.0176 26.957 67.5879C27.2812 67.1543 27.4434 66.5488 27.4434 65.7715C27.4434 65.0762 27.2773 64.5137 26.9453 64.084C26.6172 63.6504 26.1797 63.4336 25.6328 63.4336C25.0977 63.4336 24.666 63.6465 24.3379 64.0723C24.0098 64.498 23.8457 65.1074 23.8457 65.9004ZM29.623 65.7773C29.623 64.8047 29.8535 64.0234 30.3145 63.4336C30.7754 62.8398 31.3789 62.543 32.125 62.543C32.8672 62.543 33.4551 62.7969 33.8887 63.3047V60H34.9727V69H33.9766L33.9238 68.3203C33.4902 68.8516 32.8867 69.1172 32.1133 69.1172C31.3789 69.1172 30.7793 68.8164 30.3145 68.2148C29.8535 67.6133 29.623 66.8281 29.623 65.8594V65.7773ZM30.707 65.9004C30.707 66.6191 30.8555 67.1816 31.1523 67.5879C31.4492 67.9941 31.8594 68.1973 32.3828 68.1973C33.0703 68.1973 33.5723 67.8887 33.8887 67.2715V64.3594C33.5645 63.7617 33.0664 63.4629 32.3945 63.4629C31.8633 63.4629 31.4492 63.668 31.1523 64.0781C30.8555 64.4883 30.707 65.0957 30.707 65.9004ZM37.8379 69H36.7539V62.6602H37.8379V69ZM36.666 60.9785C36.666 60.8027 36.7188 60.6543 36.8242 60.5332C36.9336 60.4121 37.0938 60.3516 37.3047 60.3516C37.5156 60.3516 37.6758 60.4121 37.7852 60.5332C37.8945 60.6543 37.9492 60.8027 37.9492 60.9785C37.9492 61.1543 37.8945 61.3008 37.7852 61.418C37.6758 61.5352 37.5156 61.5938 37.3047 61.5938C37.0938 61.5938 36.9336 61.5352 36.8242 61.418C36.7188 61.3008 36.666 61.1543 36.666 60.9785ZM43.4922 68.373C43.0703 68.8691 42.4512 69.1172 41.6348 69.1172C40.959 69.1172 40.4434 68.9219 40.0879 68.5312C39.7363 68.1367 39.5586 67.5547 39.5547 66.7852V62.6602H40.6387V66.7559C40.6387 67.7168 41.0293 68.1973 41.8105 68.1973C42.6387 68.1973 43.1895 67.8887 43.4629 67.2715V62.6602H44.5469V69H43.5156L43.4922 68.373ZM47.2188 62.6602L47.248 63.3633C47.7129 62.8164 48.3398 62.543 49.1289 62.543C50.0156 62.543 50.6191 62.8828 50.9395 63.5625C51.1504 63.2578 51.4238 63.0117 51.7598 62.8242C52.0996 62.6367 52.5 62.543 52.9609 62.543C54.3516 62.543 55.0586 63.2793 55.082 64.752V69H53.998V64.8164C53.998 64.3633 53.8945 64.0254 53.6875 63.8027C53.4805 63.5762 53.1328 63.4629 52.6445 63.4629C52.2422 63.4629 51.9082 63.584 51.6426 63.8262C51.377 64.0645 51.2227 64.3867 51.1797 64.793V69H50.0898V64.8457C50.0898 63.9238 49.6387 63.4629 48.7363 63.4629C48.0254 63.4629 47.5391 63.7656 47.2773 64.3711V69H46.1934V62.6602H47.2188Z" fill="#577590"/>
<path d="M5.5332 13H4.44336V5.77539L2.25781 6.57812V5.59375L5.36328 4.42773H5.5332V13ZM12.2715 13H11.1816V5.77539L8.99609 6.57812V5.59375L12.1016 4.42773H12.2715V13Z" fill="white"/>
</svg>
