<svg width="69" height="75" viewBox="0 0 69 75" fill="none" xmlns="http://www.w3.org/2000/svg">
<rect x="0.5" y="0.5" width="68" height="74" rx="1.5" fill="white" stroke="#4D908E"/>
<rect width="69" height="19" rx="2" fill="#4D908E"/>
<path d="M16.0078 26.4062L24.375 47.2891L32.7422 26.4062H37.1191V52H33.7441V42.0332L34.0605 31.2754L25.6582 52H23.0742L14.6895 31.3281L15.0234 42.0332V52H11.6484V26.4062H16.0078ZM41.7949 42.332C41.7949 39.3672 42.4805 37.0117 43.8516 35.2656C45.2227 33.5078 47.0391 32.6289 49.3008 32.6289C51.6211 32.6289 53.4316 33.4492 54.7324 35.0898L54.8906 32.9805H57.8613V51.543C57.8613 54.0039 57.1289 55.9434 55.6641 57.3613C54.2109 58.7793 52.2539 59.4883 49.793 59.4883C48.4219 59.4883 47.0801 59.1953 45.7676 58.6094C44.4551 58.0234 43.4531 57.2207 42.7617 56.2012L44.4492 54.25C45.8438 55.9727 47.5488 56.834 49.5645 56.834C51.1465 56.834 52.377 56.3887 53.2559 55.498C54.1465 54.6074 54.5918 53.3535 54.5918 51.7363V50.1016C53.291 51.6016 51.5156 52.3516 49.2656 52.3516C47.0391 52.3516 45.2344 51.4551 43.8516 49.6621C42.4805 47.8691 41.7949 45.4258 41.7949 42.332ZM45.0645 42.7012C45.0645 44.8457 45.5039 46.5332 46.3828 47.7637C47.2617 48.9824 48.4922 49.5918 50.0742 49.5918C52.125 49.5918 53.6309 48.6602 54.5918 46.7969V38.1133C53.5957 36.2969 52.1016 35.3887 50.1094 35.3887C48.5273 35.3887 47.291 36.0039 46.4004 37.2344C45.5098 38.4648 45.0645 40.2871 45.0645 42.7012Z" fill="#4D908E"/>
<path d="M6.45508 60.4688L9.24414 67.4297L12.0332 60.4688H13.4922V69H12.3672V65.6777L12.4727 62.0918L9.67188 69H8.81055L6.01562 62.1094L6.12695 65.6777V69H5.00195V60.4688H6.45508ZM19.2227 69C19.1602 68.875 19.1094 68.6523 19.0703 68.332C18.5664 68.8555 17.9648 69.1172 17.2656 69.1172C16.6406 69.1172 16.127 68.9414 15.7246 68.5898C15.3262 68.2344 15.127 67.7852 15.127 67.2422C15.127 66.582 15.377 66.0703 15.877 65.707C16.3809 65.3398 17.0879 65.1562 17.998 65.1562H19.0527V64.6582C19.0527 64.2793 18.9395 63.9785 18.7129 63.7559C18.4863 63.5293 18.1523 63.416 17.7109 63.416C17.3242 63.416 17 63.5137 16.7383 63.709C16.4766 63.9043 16.3457 64.1406 16.3457 64.418H15.2559C15.2559 64.1016 15.3672 63.7969 15.5898 63.5039C15.8164 63.207 16.1211 62.9727 16.5039 62.8008C16.8906 62.6289 17.3145 62.543 17.7754 62.543C18.5059 62.543 19.0781 62.7266 19.4922 63.0938C19.9062 63.457 20.1211 63.959 20.1367 64.5996V67.5176C20.1367 68.0996 20.2109 68.5625 20.3594 68.9062V69H19.2227ZM17.4238 68.1738C17.7637 68.1738 18.0859 68.0859 18.3906 67.9102C18.6953 67.7344 18.916 67.5059 19.0527 67.2246V65.9238H18.2031C16.875 65.9238 16.2109 66.3125 16.2109 67.0898C16.2109 67.4297 16.3242 67.6953 16.5508 67.8867C16.7773 68.0781 17.0684 68.1738 17.4238 68.1738ZM21.5781 65.7773C21.5781 64.7891 21.8066 64.0039 22.2637 63.4219C22.7207 62.8359 23.3262 62.543 24.0801 62.543C24.8535 62.543 25.457 62.8164 25.8906 63.3633L25.9434 62.6602H26.9336V68.8477C26.9336 69.668 26.6895 70.3145 26.2012 70.7871C25.7168 71.2598 25.0645 71.4961 24.2441 71.4961C23.7871 71.4961 23.3398 71.3984 22.9023 71.2031C22.4648 71.0078 22.1309 70.7402 21.9004 70.4004L22.4629 69.75C22.9277 70.3242 23.4961 70.6113 24.168 70.6113C24.6953 70.6113 25.1055 70.4629 25.3984 70.166C25.6953 69.8691 25.8438 69.4512 25.8438 68.9121V68.3672C25.4102 68.8672 24.8184 69.1172 24.0684 69.1172C23.3262 69.1172 22.7246 68.8184 22.2637 68.2207C21.8066 67.623 21.5781 66.8086 21.5781 65.7773ZM22.668 65.9004C22.668 66.6152 22.8145 67.1777 23.1074 67.5879C23.4004 67.9941 23.8105 68.1973 24.3379 68.1973C25.0215 68.1973 25.5234 67.8867 25.8438 67.2656V64.3711C25.5117 63.7656 25.0137 63.4629 24.3496 63.4629C23.8223 63.4629 23.4102 63.668 23.1133 64.0781C22.8164 64.4883 22.668 65.0957 22.668 65.9004ZM29.5996 62.6602L29.6348 63.457C30.1191 62.8477 30.752 62.543 31.5332 62.543C32.873 62.543 33.5488 63.2988 33.5605 64.8105V69H32.4766V64.8047C32.4727 64.3477 32.3672 64.0098 32.1602 63.791C31.957 63.5723 31.6387 63.4629 31.2051 63.4629C30.8535 63.4629 30.5449 63.5566 30.2793 63.7441C30.0137 63.9316 29.8066 64.1777 29.6582 64.4824V69H28.5742V62.6602H29.5996ZM37.8262 69.1172C36.9668 69.1172 36.2676 68.8359 35.7285 68.2734C35.1895 67.707 34.9199 66.9512 34.9199 66.0059V65.8066C34.9199 65.1777 35.0391 64.6172 35.2773 64.125C35.5195 63.6289 35.8555 63.2422 36.2852 62.9648C36.7188 62.6836 37.1875 62.543 37.6914 62.543C38.5156 62.543 39.1562 62.8145 39.6133 63.3574C40.0703 63.9004 40.2988 64.6777 40.2988 65.6895V66.1406H36.0039C36.0195 66.7656 36.2012 67.2715 36.5488 67.6582C36.9004 68.041 37.3457 68.2324 37.8848 68.2324C38.2676 68.2324 38.5918 68.1543 38.8574 67.998C39.123 67.8418 39.3555 67.6348 39.5547 67.377L40.2168 67.8926C39.6855 68.709 38.8887 69.1172 37.8262 69.1172ZM37.6914 63.4336C37.2539 63.4336 36.8867 63.5938 36.5898 63.9141C36.293 64.2305 36.1094 64.6758 36.0391 65.25H39.2148V65.168C39.1836 64.6172 39.0352 64.1914 38.7695 63.8906C38.5039 63.5859 38.1445 63.4336 37.6914 63.4336ZM45.25 67.3184C45.25 67.0254 45.1387 66.7988 44.916 66.6387C44.6973 66.4746 44.3125 66.334 43.7617 66.2168C43.2148 66.0996 42.7793 65.959 42.4551 65.7949C42.1348 65.6309 41.8965 65.4355 41.7402 65.209C41.5879 64.9824 41.5117 64.7129 41.5117 64.4004C41.5117 63.8809 41.7305 63.4414 42.168 63.082C42.6094 62.7227 43.1719 62.543 43.8555 62.543C44.5742 62.543 45.1562 62.7285 45.6016 63.0996C46.0508 63.4707 46.2754 63.9453 46.2754 64.5234H45.1855C45.1855 64.2266 45.0586 63.9707 44.8047 63.7559C44.5547 63.541 44.2383 63.4336 43.8555 63.4336C43.4609 63.4336 43.1523 63.5195 42.9297 63.6914C42.707 63.8633 42.5957 64.0879 42.5957 64.3652C42.5957 64.627 42.6992 64.8242 42.9062 64.957C43.1133 65.0898 43.4863 65.2168 44.0254 65.3379C44.5684 65.459 45.0078 65.6035 45.3438 65.7715C45.6797 65.9395 45.9277 66.1426 46.0879 66.3809C46.252 66.6152 46.334 66.9023 46.334 67.2422C46.334 67.8086 46.1074 68.2637 45.6543 68.6074C45.2012 68.9473 44.6133 69.1172 43.8906 69.1172C43.3828 69.1172 42.9336 69.0273 42.543 68.8477C42.1523 68.668 41.8457 68.418 41.623 68.0977C41.4043 67.7734 41.2949 67.4238 41.2949 67.0488H42.3789C42.3984 67.4121 42.543 67.7012 42.8125 67.916C43.0859 68.127 43.4453 68.2324 43.8906 68.2324C44.3008 68.2324 44.6289 68.1504 44.875 67.9863C45.125 67.8184 45.25 67.5957 45.25 67.3184ZM48.9238 69H47.8398V62.6602H48.9238V69ZM47.752 60.9785C47.752 60.8027 47.8047 60.6543 47.9102 60.5332C48.0195 60.4121 48.1797 60.3516 48.3906 60.3516C48.6016 60.3516 48.7617 60.4121 48.8711 60.5332C48.9805 60.6543 49.0352 60.8027 49.0352 60.9785C49.0352 61.1543 48.9805 61.3008 48.8711 61.418C48.7617 61.5352 48.6016 61.5938 48.3906 61.5938C48.1797 61.5938 48.0195 61.5352 47.9102 61.418C47.8047 61.3008 47.752 61.1543 47.752 60.9785ZM54.5781 68.373C54.1562 68.8691 53.5371 69.1172 52.7207 69.1172C52.0449 69.1172 51.5293 68.9219 51.1738 68.5312C50.8223 68.1367 50.6445 67.5547 50.6406 66.7852V62.6602H51.7246V66.7559C51.7246 67.7168 52.1152 68.1973 52.8965 68.1973C53.7246 68.1973 54.2754 67.8887 54.5488 67.2715V62.6602H55.6328V69H54.6016L54.5781 68.373ZM58.3047 62.6602L58.334 63.3633C58.7988 62.8164 59.4258 62.543 60.2148 62.543C61.1016 62.543 61.7051 62.8828 62.0254 63.5625C62.2363 63.2578 62.5098 63.0117 62.8457 62.8242C63.1855 62.6367 63.5859 62.543 64.0469 62.543C65.4375 62.543 66.1445 63.2793 66.168 64.752V69H65.084V64.8164C65.084 64.3633 64.9805 64.0254 64.7734 63.8027C64.5664 63.5762 64.2188 63.4629 63.7305 63.4629C63.3281 63.4629 62.9941 63.584 62.7285 63.8262C62.4629 64.0645 62.3086 64.3867 62.2656 64.793V69H61.1758V64.8457C61.1758 63.9238 60.7246 63.4629 59.8223 63.4629C59.1113 63.4629 58.625 63.7656 58.3633 64.3711V69H57.2793V62.6602H58.3047Z" fill="#4D908E"/>
<path d="M5.5332 13H4.44336V5.77539L2.25781 6.57812V5.59375L5.36328 4.42773H5.5332V13ZM14.2988 13H8.70898V12.2207L11.6621 8.93945C12.0996 8.44336 12.4004 8.04102 12.5645 7.73242C12.7324 7.41992 12.8164 7.09766 12.8164 6.76562C12.8164 6.32031 12.6816 5.95508 12.4121 5.66992C12.1426 5.38477 11.7832 5.24219 11.334 5.24219C10.7949 5.24219 10.375 5.39648 10.0742 5.70508C9.77734 6.00977 9.62891 6.43555 9.62891 6.98242H8.54492C8.54492 6.19727 8.79688 5.5625 9.30078 5.07812C9.80859 4.59375 10.4863 4.35156 11.334 4.35156C12.127 4.35156 12.7539 4.56055 13.2148 4.97852C13.6758 5.39258 13.9062 5.94531 13.9062 6.63672C13.9062 7.47656 13.3711 8.47656 12.3008 9.63672L10.0156 12.1152H14.2988V13Z" fill="white"/>
</svg>
