<svg width="69" height="75" viewBox="0 0 69 75" fill="none" xmlns="http://www.w3.org/2000/svg">
<rect x="0.5" y="0.5" width="68" height="74" rx="1.5" fill="white" stroke="#90BE6D"/>
<rect width="69" height="19" rx="2" fill="#90BE6D"/>
<path d="M35.4844 45.3203H24.7617L22.3535 52H18.873L28.6465 26.4062H31.5996L41.3906 52H37.9277L35.4844 45.3203ZM25.7812 42.543H34.4824L30.123 30.5723L25.7812 42.543ZM47.8594 52H44.6074V25H47.8594V52Z" fill="#90BE6D"/>
<path d="M11.9551 66.7734H8.38086L7.57812 69H6.41797L9.67578 60.4688H10.6602L13.9238 69H12.7695L11.9551 66.7734ZM8.7207 65.8477H11.6211L10.168 61.8574L8.7207 65.8477ZM16.0801 69H14.9961V60H16.0801V69ZM21.7344 68.373C21.3125 68.8691 20.6934 69.1172 19.877 69.1172C19.2012 69.1172 18.6855 68.9219 18.3301 68.5312C17.9785 68.1367 17.8008 67.5547 17.7969 66.7852V62.6602H18.8809V66.7559C18.8809 67.7168 19.2715 68.1973 20.0527 68.1973C20.8809 68.1973 21.4316 67.8887 21.7051 67.2715V62.6602H22.7891V69H21.7578L21.7344 68.373ZM25.4609 62.6602L25.4902 63.3633C25.9551 62.8164 26.582 62.543 27.3711 62.543C28.2578 62.543 28.8613 62.8828 29.1816 63.5625C29.3926 63.2578 29.666 63.0117 30.002 62.8242C30.3418 62.6367 30.7422 62.543 31.2031 62.543C32.5938 62.543 33.3008 63.2793 33.3242 64.752V69H32.2402V64.8164C32.2402 64.3633 32.1367 64.0254 31.9297 63.8027C31.7227 63.5762 31.375 63.4629 30.8867 63.4629C30.4844 63.4629 30.1504 63.584 29.8848 63.8262C29.6191 64.0645 29.4648 64.3867 29.4219 64.793V69H28.332V64.8457C28.332 63.9238 27.8809 63.4629 26.9785 63.4629C26.2676 63.4629 25.7812 63.7656 25.5195 64.3711V69H24.4355V62.6602H25.4609ZM36.1426 69H35.0586V62.6602H36.1426V69ZM34.9707 60.9785C34.9707 60.8027 35.0234 60.6543 35.1289 60.5332C35.2383 60.4121 35.3984 60.3516 35.6094 60.3516C35.8203 60.3516 35.9805 60.4121 36.0898 60.5332C36.1992 60.6543 36.2539 60.8027 36.2539 60.9785C36.2539 61.1543 36.1992 61.3008 36.0898 61.418C35.9805 61.5352 35.8203 61.5938 35.6094 61.5938C35.3984 61.5938 35.2383 61.5352 35.1289 61.418C35.0234 61.3008 34.9707 61.1543 34.9707 60.9785ZM38.9082 62.6602L38.9434 63.457C39.4277 62.8477 40.0605 62.543 40.8418 62.543C42.1816 62.543 42.8574 63.2988 42.8691 64.8105V69H41.7852V64.8047C41.7812 64.3477 41.6758 64.0098 41.4688 63.791C41.2656 63.5723 40.9473 63.4629 40.5137 63.4629C40.1621 63.4629 39.8535 63.5566 39.5879 63.7441C39.3223 63.9316 39.1152 64.1777 38.9668 64.4824V69H37.8828V62.6602H38.9082ZM45.6816 69H44.5977V62.6602H45.6816V69ZM44.5098 60.9785C44.5098 60.8027 44.5625 60.6543 44.668 60.5332C44.7773 60.4121 44.9375 60.3516 45.1484 60.3516C45.3594 60.3516 45.5195 60.4121 45.6289 60.5332C45.7383 60.6543 45.793 60.8027 45.793 60.9785C45.793 61.1543 45.7383 61.3008 45.6289 61.418C45.5195 61.5352 45.3594 61.5938 45.1484 61.5938C44.9375 61.5938 44.7773 61.5352 44.668 61.418C44.5625 61.3008 44.5098 61.1543 44.5098 60.9785ZM51.3359 68.373C50.9141 68.8691 50.2949 69.1172 49.4785 69.1172C48.8027 69.1172 48.2871 68.9219 47.9316 68.5312C47.5801 68.1367 47.4023 67.5547 47.3984 66.7852V62.6602H48.4824V66.7559C48.4824 67.7168 48.873 68.1973 49.6543 68.1973C50.4824 68.1973 51.0332 67.8887 51.3066 67.2715V62.6602H52.3906V69H51.3594L51.3359 68.373ZM55.0625 62.6602L55.0918 63.3633C55.5566 62.8164 56.1836 62.543 56.9727 62.543C57.8594 62.543 58.4629 62.8828 58.7832 63.5625C58.9941 63.2578 59.2676 63.0117 59.6035 62.8242C59.9434 62.6367 60.3438 62.543 60.8047 62.543C62.1953 62.543 62.9023 63.2793 62.9258 64.752V69H61.8418V64.8164C61.8418 64.3633 61.7383 64.0254 61.5312 63.8027C61.3242 63.5762 60.9766 63.4629 60.4883 63.4629C60.0859 63.4629 59.752 63.584 59.4863 63.8262C59.2207 64.0645 59.0664 64.3867 59.0234 64.793V69H57.9336V64.8457C57.9336 63.9238 57.4824 63.4629 56.5801 63.4629C55.8691 63.4629 55.3828 63.7656 55.1211 64.3711V69H54.0371V62.6602H55.0625Z" fill="#90BE6D"/>
<path d="M5.5332 13H4.44336V5.77539L2.25781 6.57812V5.59375L5.36328 4.42773H5.5332V13ZM10.2852 8.20703H11.0996C11.6113 8.19922 12.0137 8.06445 12.3066 7.80273C12.5996 7.54102 12.7461 7.1875 12.7461 6.74219C12.7461 5.74219 12.248 5.24219 11.252 5.24219C10.7832 5.24219 10.4082 5.37695 10.127 5.64648C9.84961 5.91211 9.71094 6.26562 9.71094 6.70703H8.62695C8.62695 6.03125 8.87305 5.4707 9.36523 5.02539C9.86133 4.57617 10.4902 4.35156 11.252 4.35156C12.0566 4.35156 12.6875 4.56445 13.1445 4.99023C13.6016 5.41602 13.8301 6.00781 13.8301 6.76562C13.8301 7.13672 13.709 7.49609 13.4668 7.84375C13.2285 8.19141 12.9023 8.45117 12.4883 8.62305C12.957 8.77148 13.3184 9.01758 13.5723 9.36133C13.8301 9.70508 13.959 10.125 13.959 10.6211C13.959 11.3867 13.709 11.9941 13.209 12.4434C12.709 12.8926 12.0586 13.1172 11.2578 13.1172C10.457 13.1172 9.80469 12.9004 9.30078 12.4668C8.80078 12.0332 8.55078 11.4609 8.55078 10.75H9.64062C9.64062 11.1992 9.78711 11.5586 10.0801 11.8281C10.373 12.0977 10.7656 12.2324 11.2578 12.2324C11.7812 12.2324 12.1816 12.0957 12.459 11.8223C12.7363 11.5488 12.875 11.1562 12.875 10.6445C12.875 10.1484 12.7227 9.76758 12.418 9.50195C12.1133 9.23633 11.6738 9.09961 11.0996 9.0918H10.2852V8.20703Z" fill="white"/>
</svg>
