<svg width="69" height="75" viewBox="0 0 69 75" fill="none" xmlns="http://www.w3.org/2000/svg">
<rect x="0.5" y="0.5" width="68" height="74" rx="1.5" fill="white" stroke="#F9C74F"/>
<rect width="69" height="19" rx="2" fill="#F9C74F"/>
<path d="M29.9473 40.5918C27.0527 39.7598 24.9434 38.7402 23.6191 37.5332C22.3066 36.3145 21.6504 34.8145 21.6504 33.0332C21.6504 31.0176 22.4531 29.3535 24.0586 28.041C25.6758 26.7168 27.7734 26.0547 30.3516 26.0547C32.1094 26.0547 33.6738 26.3945 35.0449 27.0742C36.4277 27.7539 37.4941 28.6914 38.2441 29.8867C39.0059 31.082 39.3867 32.3887 39.3867 33.8066H35.9941C35.9941 32.2598 35.502 31.0469 34.5176 30.168C33.5332 29.2773 32.1445 28.832 30.3516 28.832C28.6875 28.832 27.3867 29.2012 26.4492 29.9395C25.5234 30.666 25.0605 31.6797 25.0605 32.9805C25.0605 34.0234 25.5 34.9082 26.3789 35.6348C27.2695 36.3496 28.7754 37.0059 30.8965 37.6035C33.0293 38.2012 34.6934 38.8633 35.8887 39.5898C37.0957 40.3047 37.9863 41.1426 38.5605 42.1035C39.1465 43.0645 39.4395 44.1953 39.4395 45.4961C39.4395 47.5703 38.6309 49.2344 37.0137 50.4883C35.3965 51.7305 33.2344 52.3516 30.5273 52.3516C28.7695 52.3516 27.1289 52.0176 25.6055 51.3496C24.082 50.6699 22.9043 49.7441 22.0723 48.5723C21.252 47.4004 20.8418 46.0703 20.8418 44.582H24.2344C24.2344 46.1289 24.8027 47.3535 25.9395 48.2559C27.0879 49.1465 28.6172 49.5918 30.5273 49.5918C32.3086 49.5918 33.6738 49.2285 34.623 48.502C35.5723 47.7754 36.0469 46.7852 36.0469 45.5312C36.0469 44.2773 35.6074 43.3105 34.7285 42.6309C33.8496 41.9395 32.2559 41.2598 29.9473 40.5918ZM46.8047 52H43.5527V32.9805H46.8047V52ZM43.2891 27.9355C43.2891 27.4082 43.4473 26.9629 43.7637 26.5996C44.0918 26.2363 44.5723 26.0547 45.2051 26.0547C45.8379 26.0547 46.3184 26.2363 46.6465 26.5996C46.9746 26.9629 47.1387 27.4082 47.1387 27.9355C47.1387 28.4629 46.9746 28.9023 46.6465 29.2539C46.3184 29.6055 45.8379 29.7812 45.2051 29.7812C44.5723 29.7812 44.0918 29.6055 43.7637 29.2539C43.4473 28.9023 43.2891 28.4629 43.2891 27.9355Z" fill="#F9C74F"/>
<path d="M20.6914 65.1973C19.7266 64.9199 19.0234 64.5801 18.582 64.1777C18.1445 63.7715 17.9258 63.2715 17.9258 62.6777C17.9258 62.0059 18.1934 61.4512 18.7285 61.0137C19.2676 60.5723 19.9668 60.3516 20.8262 60.3516C21.4121 60.3516 21.9336 60.4648 22.3906 60.6914C22.8516 60.918 23.207 61.2305 23.457 61.6289C23.7109 62.0273 23.8379 62.4629 23.8379 62.9355H22.707C22.707 62.4199 22.543 62.0156 22.2148 61.7227C21.8867 61.4258 21.4238 61.2773 20.8262 61.2773C20.2715 61.2773 19.8379 61.4004 19.5254 61.6465C19.2168 61.8887 19.0625 62.2266 19.0625 62.6602C19.0625 63.0078 19.209 63.3027 19.502 63.5449C19.7988 63.7832 20.3008 64.002 21.0078 64.2012C21.7188 64.4004 22.2734 64.6211 22.6719 64.8633C23.0742 65.1016 23.3711 65.3809 23.5625 65.7012C23.7578 66.0215 23.8555 66.3984 23.8555 66.832C23.8555 67.5234 23.5859 68.0781 23.0469 68.4961C22.5078 68.9102 21.7871 69.1172 20.8848 69.1172C20.2988 69.1172 19.752 69.0059 19.2441 68.7832C18.7363 68.5566 18.3438 68.248 18.0664 67.8574C17.793 67.4668 17.6562 67.0234 17.6562 66.5273H18.7871C18.7871 67.043 18.9766 67.4512 19.3555 67.752C19.7383 68.0488 20.248 68.1973 20.8848 68.1973C21.4785 68.1973 21.9336 68.0762 22.25 67.834C22.5664 67.5918 22.7246 67.2617 22.7246 66.8438C22.7246 66.4258 22.5781 66.1035 22.2852 65.877C21.9922 65.6465 21.4609 65.4199 20.6914 65.1973ZM26.3105 69H25.2266V62.6602H26.3105V69ZM25.1387 60.9785C25.1387 60.8027 25.1914 60.6543 25.2969 60.5332C25.4062 60.4121 25.5664 60.3516 25.7773 60.3516C25.9883 60.3516 26.1484 60.4121 26.2578 60.5332C26.3672 60.6543 26.4219 60.8027 26.4219 60.9785C26.4219 61.1543 26.3672 61.3008 26.2578 61.418C26.1484 61.5352 25.9883 61.5938 25.7773 61.5938C25.5664 61.5938 25.4062 61.5352 25.2969 61.418C25.1914 61.3008 25.1387 61.1543 25.1387 60.9785ZM29.2285 69H28.1445V60H29.2285V69ZM32.1465 69H31.0625V62.6602H32.1465V69ZM30.9746 60.9785C30.9746 60.8027 31.0273 60.6543 31.1328 60.5332C31.2422 60.4121 31.4023 60.3516 31.6133 60.3516C31.8242 60.3516 31.9844 60.4121 32.0938 60.5332C32.2031 60.6543 32.2578 60.8027 32.2578 60.9785C32.2578 61.1543 32.2031 61.3008 32.0938 61.418C31.9844 61.5352 31.8242 61.5938 31.6133 61.5938C31.4023 61.5938 31.2422 61.5352 31.1328 61.418C31.0273 61.3008 30.9746 61.1543 30.9746 60.9785ZM36.4297 68.2324C36.8164 68.2324 37.1543 68.1152 37.4434 67.8809C37.7324 67.6465 37.8926 67.3535 37.9238 67.002H38.9492C38.9297 67.3652 38.8047 67.7109 38.5742 68.0391C38.3438 68.3672 38.0352 68.6289 37.6484 68.8242C37.2656 69.0195 36.8594 69.1172 36.4297 69.1172C35.5664 69.1172 34.8789 68.8301 34.3672 68.2559C33.8594 67.6777 33.6055 66.8887 33.6055 65.8887V65.707C33.6055 65.0898 33.7188 64.541 33.9453 64.0605C34.1719 63.5801 34.4961 63.207 34.918 62.9414C35.3438 62.6758 35.8457 62.543 36.4238 62.543C37.1348 62.543 37.7246 62.7559 38.1934 63.1816C38.666 63.6074 38.918 64.1602 38.9492 64.8398H37.9238C37.8926 64.4297 37.7363 64.0938 37.4551 63.832C37.1777 63.5664 36.834 63.4336 36.4238 63.4336C35.873 63.4336 35.4453 63.6328 35.1406 64.0312C34.8398 64.4258 34.6895 64.998 34.6895 65.748V65.9531C34.6895 66.6836 34.8398 67.2461 35.1406 67.6406C35.4414 68.0352 35.8711 68.2324 36.4297 68.2324ZM39.8809 65.7715C39.8809 65.1504 40.002 64.5918 40.2441 64.0957C40.4902 63.5996 40.8301 63.2168 41.2637 62.9473C41.7012 62.6777 42.1992 62.543 42.7578 62.543C43.6211 62.543 44.3184 62.8418 44.8496 63.4395C45.3848 64.0371 45.6523 64.832 45.6523 65.8242V65.9004C45.6523 66.5176 45.5332 67.0723 45.2949 67.5645C45.0605 68.0527 44.7227 68.4336 44.2812 68.707C43.8438 68.9805 43.3398 69.1172 42.7695 69.1172C41.9102 69.1172 41.2129 68.8184 40.6777 68.2207C40.1465 67.623 39.8809 66.832 39.8809 65.8477V65.7715ZM40.9707 65.9004C40.9707 66.6035 41.1328 67.168 41.457 67.5938C41.7852 68.0195 42.2227 68.2324 42.7695 68.2324C43.3203 68.2324 43.7578 68.0176 44.082 67.5879C44.4062 67.1543 44.5684 66.5488 44.5684 65.7715C44.5684 65.0762 44.4023 64.5137 44.0703 64.084C43.7422 63.6504 43.3047 63.4336 42.7578 63.4336C42.2227 63.4336 41.791 63.6465 41.4629 64.0723C41.1348 64.498 40.9707 65.1074 40.9707 65.9004ZM48.0371 62.6602L48.0723 63.457C48.5566 62.8477 49.1895 62.543 49.9707 62.543C51.3105 62.543 51.9863 63.2988 51.998 64.8105V69H50.9141V64.8047C50.9102 64.3477 50.8047 64.0098 50.5977 63.791C50.3945 63.5723 50.0762 63.4629 49.6426 63.4629C49.291 63.4629 48.9824 63.5566 48.7168 63.7441C48.4512 63.9316 48.2441 64.1777 48.0957 64.4824V69H47.0117V62.6602H48.0371Z" fill="#F9C74F"/>
<path d="M5.5332 13H4.44336V5.77539L2.25781 6.57812V5.59375L5.36328 4.42773H5.5332V13ZM13.2852 10.1348H14.4688V11.0195H13.2852V13H12.1953V11.0195H8.31055V10.3809L12.1309 4.46875H13.2852V10.1348ZM9.54102 10.1348H12.1953V5.95117L12.0664 6.18555L9.54102 10.1348Z" fill="white"/>
</svg>
