<svg width="69" height="75" viewBox="0 0 69 75" fill="none" xmlns="http://www.w3.org/2000/svg">
<rect x="0.5" y="0.5" width="68" height="74" rx="1.5" fill="white" stroke="#277DA1"/>
<rect width="69" height="19" rx="2" fill="#277DA1"/>
<path d="M29.4902 41.9805V52H26.1152V26.4062H35.5547C38.3555 26.4062 40.5469 27.1211 42.1289 28.5508C43.7227 29.9805 44.5195 31.873 44.5195 34.2285C44.5195 36.7129 43.7402 38.6289 42.1816 39.9766C40.6348 41.3125 38.4141 41.9805 35.5195 41.9805H29.4902ZM29.4902 39.2207H35.5547C37.3594 39.2207 38.7422 38.7988 39.7031 37.9551C40.6641 37.0996 41.1445 35.8691 41.1445 34.2637C41.1445 32.7402 40.6641 31.5215 39.7031 30.6074C38.7422 29.6934 37.4238 29.2188 35.748 29.1836H29.4902V39.2207Z" fill="#277DA1"/>
<path d="M5.47656 65.6602V69H4.35156V60.4688H7.49805C8.43164 60.4688 9.16211 60.707 9.68945 61.1836C10.2207 61.6602 10.4863 62.291 10.4863 63.0762C10.4863 63.9043 10.2266 64.543 9.70703 64.9922C9.19141 65.4375 8.45117 65.6602 7.48633 65.6602H5.47656ZM5.47656 64.7402H7.49805C8.09961 64.7402 8.56055 64.5996 8.88086 64.3184C9.20117 64.0332 9.36133 63.623 9.36133 63.0879C9.36133 62.5801 9.20117 62.1738 8.88086 61.8691C8.56055 61.5645 8.12109 61.4062 7.5625 61.3945H5.47656V64.7402ZM12.8359 63.4277C13.3164 62.8379 13.9414 62.543 14.7109 62.543C16.0508 62.543 16.7266 63.2988 16.7383 64.8105V69H15.6543V64.8047C15.6504 64.3477 15.5449 64.0098 15.3379 63.791C15.1348 63.5723 14.8164 63.4629 14.3828 63.4629C14.0312 63.4629 13.7227 63.5566 13.457 63.7441C13.1914 63.9316 12.9844 64.1777 12.8359 64.4824V69H11.752V60H12.8359V63.4277ZM18.0742 65.7715C18.0742 65.1504 18.1953 64.5918 18.4375 64.0957C18.6836 63.5996 19.0234 63.2168 19.457 62.9473C19.8945 62.6777 20.3926 62.543 20.9512 62.543C21.8145 62.543 22.5117 62.8418 23.043 63.4395C23.5781 64.0371 23.8457 64.832 23.8457 65.8242V65.9004C23.8457 66.5176 23.7266 67.0723 23.4883 67.5645C23.2539 68.0527 22.916 68.4336 22.4746 68.707C22.0371 68.9805 21.5332 69.1172 20.9629 69.1172C20.1035 69.1172 19.4062 68.8184 18.8711 68.2207C18.3398 67.623 18.0742 66.832 18.0742 65.8477V65.7715ZM19.1641 65.9004C19.1641 66.6035 19.3262 67.168 19.6504 67.5938C19.9785 68.0195 20.416 68.2324 20.9629 68.2324C21.5137 68.2324 21.9512 68.0176 22.2754 67.5879C22.5996 67.1543 22.7617 66.5488 22.7617 65.7715C22.7617 65.0762 22.5957 64.5137 22.2637 64.084C21.9355 63.6504 21.498 63.4336 20.9512 63.4336C20.416 63.4336 19.9844 63.6465 19.6562 64.0723C19.3281 64.498 19.1641 65.1074 19.1641 65.9004ZM28.8965 67.3184C28.8965 67.0254 28.7852 66.7988 28.5625 66.6387C28.3438 66.4746 27.959 66.334 27.4082 66.2168C26.8613 66.0996 26.4258 65.959 26.1016 65.7949C25.7812 65.6309 25.543 65.4355 25.3867 65.209C25.2344 64.9824 25.1582 64.7129 25.1582 64.4004C25.1582 63.8809 25.377 63.4414 25.8145 63.082C26.2559 62.7227 26.8184 62.543 27.502 62.543C28.2207 62.543 28.8027 62.7285 29.248 63.0996C29.6973 63.4707 29.9219 63.9453 29.9219 64.5234H28.832C28.832 64.2266 28.7051 63.9707 28.4512 63.7559C28.2012 63.541 27.8848 63.4336 27.502 63.4336C27.1074 63.4336 26.7988 63.5195 26.5762 63.6914C26.3535 63.8633 26.2422 64.0879 26.2422 64.3652C26.2422 64.627 26.3457 64.8242 26.5527 64.957C26.7598 65.0898 27.1328 65.2168 27.6719 65.3379C28.2148 65.459 28.6543 65.6035 28.9902 65.7715C29.3262 65.9395 29.5742 66.1426 29.7344 66.3809C29.8984 66.6152 29.9805 66.9023 29.9805 67.2422C29.9805 67.8086 29.7539 68.2637 29.3008 68.6074C28.8477 68.9473 28.2598 69.1172 27.5371 69.1172C27.0293 69.1172 26.5801 69.0273 26.1895 68.8477C25.7988 68.668 25.4922 68.418 25.2695 68.0977C25.0508 67.7734 24.9414 67.4238 24.9414 67.0488H26.0254C26.0449 67.4121 26.1895 67.7012 26.459 67.916C26.7324 68.127 27.0918 68.2324 27.5371 68.2324C27.9473 68.2324 28.2754 68.1504 28.5215 67.9863C28.7715 67.8184 28.8965 67.5957 28.8965 67.3184ZM36.748 65.9004C36.748 66.8652 36.5273 67.6426 36.0859 68.2324C35.6445 68.8223 35.0469 69.1172 34.293 69.1172C33.5234 69.1172 32.918 68.873 32.4766 68.3848V71.4375H31.3926V62.6602H32.3828L32.4355 63.3633C32.877 62.8164 33.4902 62.543 34.2754 62.543C35.0371 62.543 35.6387 62.8301 36.0801 63.4043C36.5254 63.9785 36.748 64.7773 36.748 65.8008V65.9004ZM35.6641 65.7773C35.6641 65.0625 35.5117 64.498 35.207 64.084C34.9023 63.6699 34.4844 63.4629 33.9531 63.4629C33.2969 63.4629 32.8047 63.7539 32.4766 64.3359V67.3652C32.8008 67.9434 33.2969 68.2324 33.9648 68.2324C34.4844 68.2324 34.8965 68.0273 35.2012 67.6172C35.5098 67.2031 35.6641 66.5898 35.6641 65.7773ZM39.2148 63.4277C39.6953 62.8379 40.3203 62.543 41.0898 62.543C42.4297 62.543 43.1055 63.2988 43.1172 64.8105V69H42.0332V64.8047C42.0293 64.3477 41.9238 64.0098 41.7168 63.791C41.5137 63.5723 41.1953 63.4629 40.7617 63.4629C40.4102 63.4629 40.1016 63.5566 39.8359 63.7441C39.5703 63.9316 39.3633 64.1777 39.2148 64.4824V69H38.1309V60H39.2148V63.4277ZM44.4531 65.7715C44.4531 65.1504 44.5742 64.5918 44.8164 64.0957C45.0625 63.5996 45.4023 63.2168 45.8359 62.9473C46.2734 62.6777 46.7715 62.543 47.3301 62.543C48.1934 62.543 48.8906 62.8418 49.4219 63.4395C49.957 64.0371 50.2246 64.832 50.2246 65.8242V65.9004C50.2246 66.5176 50.1055 67.0723 49.8672 67.5645C49.6328 68.0527 49.2949 68.4336 48.8535 68.707C48.416 68.9805 47.9121 69.1172 47.3418 69.1172C46.4824 69.1172 45.7852 68.8184 45.25 68.2207C44.7188 67.623 44.4531 66.832 44.4531 65.8477V65.7715ZM45.543 65.9004C45.543 66.6035 45.7051 67.168 46.0293 67.5938C46.3574 68.0195 46.7949 68.2324 47.3418 68.2324C47.8926 68.2324 48.3301 68.0176 48.6543 67.5879C48.9785 67.1543 49.1406 66.5488 49.1406 65.7715C49.1406 65.0762 48.9746 64.5137 48.6426 64.084C48.3145 63.6504 47.877 63.4336 47.3301 63.4336C46.7949 63.4336 46.3633 63.6465 46.0352 64.0723C45.707 64.498 45.543 65.1074 45.543 65.9004ZM54.6484 63.6328C54.4844 63.6055 54.3066 63.5918 54.1152 63.5918C53.4043 63.5918 52.9219 63.8945 52.668 64.5V69H51.584V62.6602H52.6387L52.6562 63.3926C53.0117 62.8262 53.5156 62.543 54.168 62.543C54.3789 62.543 54.5391 62.5703 54.6484 62.625V63.6328ZM59.5645 68.373C59.1426 68.8691 58.5234 69.1172 57.707 69.1172C57.0312 69.1172 56.5156 68.9219 56.1602 68.5312C55.8086 68.1367 55.6309 67.5547 55.627 66.7852V62.6602H56.7109V66.7559C56.7109 67.7168 57.1016 68.1973 57.8828 68.1973C58.7109 68.1973 59.2617 67.8887 59.5352 67.2715V62.6602H60.6191V69H59.5879L59.5645 68.373ZM65.9629 67.3184C65.9629 67.0254 65.8516 66.7988 65.6289 66.6387C65.4102 66.4746 65.0254 66.334 64.4746 66.2168C63.9277 66.0996 63.4922 65.959 63.168 65.7949C62.8477 65.6309 62.6094 65.4355 62.4531 65.209C62.3008 64.9824 62.2246 64.7129 62.2246 64.4004C62.2246 63.8809 62.4434 63.4414 62.8809 63.082C63.3223 62.7227 63.8848 62.543 64.5684 62.543C65.2871 62.543 65.8691 62.7285 66.3145 63.0996C66.7637 63.4707 66.9883 63.9453 66.9883 64.5234H65.8984C65.8984 64.2266 65.7715 63.9707 65.5176 63.7559C65.2676 63.541 64.9512 63.4336 64.5684 63.4336C64.1738 63.4336 63.8652 63.5195 63.6426 63.6914C63.4199 63.8633 63.3086 64.0879 63.3086 64.3652C63.3086 64.627 63.4121 64.8242 63.6191 64.957C63.8262 65.0898 64.1992 65.2168 64.7383 65.3379C65.2812 65.459 65.7207 65.6035 66.0566 65.7715C66.3926 65.9395 66.6406 66.1426 66.8008 66.3809C66.9648 66.6152 67.0469 66.9023 67.0469 67.2422C67.0469 67.8086 66.8203 68.2637 66.3672 68.6074C65.9141 68.9473 65.3262 69.1172 64.6035 69.1172C64.0957 69.1172 63.6465 69.0273 63.2559 68.8477C62.8652 68.668 62.5586 68.418 62.3359 68.0977C62.1172 67.7734 62.0078 67.4238 62.0078 67.0488H63.0918C63.1113 67.4121 63.2559 67.7012 63.5254 67.916C63.7988 68.127 64.1582 68.2324 64.6035 68.2324C65.0137 68.2324 65.3418 68.1504 65.5879 67.9863C65.8379 67.8184 65.9629 67.5957 65.9629 67.3184Z" fill="#277DA1"/>
<path d="M5.5332 13H4.44336V5.77539L2.25781 6.57812V5.59375L5.36328 4.42773H5.5332V13ZM9.20703 8.72266L9.64062 4.46875H14.0117V5.4707H10.5605L10.3027 7.79688C10.7207 7.55078 11.1953 7.42773 11.7266 7.42773C12.5039 7.42773 13.1211 7.68555 13.5781 8.20117C14.0352 8.71289 14.2637 9.40625 14.2637 10.2812C14.2637 11.1602 14.0254 11.8535 13.5488 12.3613C13.0762 12.8652 12.4141 13.1172 11.5625 13.1172C10.8086 13.1172 10.1934 12.9082 9.7168 12.4902C9.24023 12.0723 8.96875 11.4941 8.90234 10.7559H9.92773C9.99414 11.2441 10.168 11.6133 10.4492 11.8633C10.7305 12.1094 11.1016 12.2324 11.5625 12.2324C12.0664 12.2324 12.4609 12.0605 12.7461 11.7168C13.0352 11.373 13.1797 10.8984 13.1797 10.293C13.1797 9.72266 13.0234 9.26562 12.7109 8.92188C12.4023 8.57422 11.9902 8.40039 11.4746 8.40039C11.002 8.40039 10.6309 8.50391 10.3613 8.71094L10.0742 8.94531L9.20703 8.72266Z" fill="white"/>
</svg>
