<svg width="69" height="75" viewBox="0 0 69 75" fill="none" xmlns="http://www.w3.org/2000/svg">
<rect x="0.5" y="0.5" width="68" height="74" rx="1.5" fill="white" stroke="#277DA1"/>
<rect width="69" height="19" rx="2" fill="#277DA1"/>
<path d="M34.3242 40.5918C31.4297 39.7598 29.3203 38.7402 27.9961 37.5332C26.6836 36.3145 26.0273 34.8145 26.0273 33.0332C26.0273 31.0176 26.8301 29.3535 28.4355 28.041C30.0527 26.7168 32.1504 26.0547 34.7285 26.0547C36.4863 26.0547 38.0508 26.3945 39.4219 27.0742C40.8047 27.7539 41.8711 28.6914 42.6211 29.8867C43.3828 31.082 43.7637 32.3887 43.7637 33.8066H40.3711C40.3711 32.2598 39.8789 31.0469 38.8945 30.168C37.9102 29.2773 36.5215 28.832 34.7285 28.832C33.0645 28.832 31.7637 29.2012 30.8262 29.9395C29.9004 30.666 29.4375 31.6797 29.4375 32.9805C29.4375 34.0234 29.877 34.9082 30.7559 35.6348C31.6465 36.3496 33.1523 37.0059 35.2734 37.6035C37.4062 38.2012 39.0703 38.8633 40.2656 39.5898C41.4727 40.3047 42.3633 41.1426 42.9375 42.1035C43.5234 43.0645 43.8164 44.1953 43.8164 45.4961C43.8164 47.5703 43.0078 49.2344 41.3906 50.4883C39.7734 51.7305 37.6113 52.3516 34.9043 52.3516C33.1465 52.3516 31.5059 52.0176 29.9824 51.3496C28.459 50.6699 27.2812 49.7441 26.4492 48.5723C25.6289 47.4004 25.2188 46.0703 25.2188 44.582H28.6113C28.6113 46.1289 29.1797 47.3535 30.3164 48.2559C31.4648 49.1465 32.9941 49.5918 34.9043 49.5918C36.6855 49.5918 38.0508 49.2285 39 48.502C39.9492 47.7754 40.4238 46.7852 40.4238 45.5312C40.4238 44.2773 39.9844 43.3105 39.1055 42.6309C38.2266 41.9395 36.6328 41.2598 34.3242 40.5918Z" fill="#277DA1"/>
<path d="M18.6543 65.1973C17.6895 64.9199 16.9863 64.5801 16.5449 64.1777C16.1074 63.7715 15.8887 63.2715 15.8887 62.6777C15.8887 62.0059 16.1562 61.4512 16.6914 61.0137C17.2305 60.5723 17.9297 60.3516 18.7891 60.3516C19.375 60.3516 19.8965 60.4648 20.3535 60.6914C20.8145 60.918 21.1699 61.2305 21.4199 61.6289C21.6738 62.0273 21.8008 62.4629 21.8008 62.9355H20.6699C20.6699 62.4199 20.5059 62.0156 20.1777 61.7227C19.8496 61.4258 19.3867 61.2773 18.7891 61.2773C18.2344 61.2773 17.8008 61.4004 17.4883 61.6465C17.1797 61.8887 17.0254 62.2266 17.0254 62.6602C17.0254 63.0078 17.1719 63.3027 17.4648 63.5449C17.7617 63.7832 18.2637 64.002 18.9707 64.2012C19.6816 64.4004 20.2363 64.6211 20.6348 64.8633C21.0371 65.1016 21.334 65.3809 21.5254 65.7012C21.7207 66.0215 21.8184 66.3984 21.8184 66.832C21.8184 67.5234 21.5488 68.0781 21.0098 68.4961C20.4707 68.9102 19.75 69.1172 18.8477 69.1172C18.2617 69.1172 17.7148 69.0059 17.207 68.7832C16.6992 68.5566 16.3066 68.248 16.0293 67.8574C15.7559 67.4668 15.6191 67.0234 15.6191 66.5273H16.75C16.75 67.043 16.9395 67.4512 17.3184 67.752C17.7012 68.0488 18.2109 68.1973 18.8477 68.1973C19.4414 68.1973 19.8965 68.0762 20.2129 67.834C20.5293 67.5918 20.6875 67.2617 20.6875 66.8438C20.6875 66.4258 20.541 66.1035 20.248 65.877C19.9551 65.6465 19.4238 65.4199 18.6543 65.1973ZM27.0098 68.373C26.5879 68.8691 25.9688 69.1172 25.1523 69.1172C24.4766 69.1172 23.9609 68.9219 23.6055 68.5312C23.2539 68.1367 23.0762 67.5547 23.0723 66.7852V62.6602H24.1562V66.7559C24.1562 67.7168 24.5469 68.1973 25.3281 68.1973C26.1562 68.1973 26.707 67.8887 26.9805 67.2715V62.6602H28.0645V69H27.0332L27.0098 68.373ZM30.8945 69H29.8105V60H30.8945V69ZM37.9902 65.9004C37.9902 66.8652 37.7695 67.6426 37.3281 68.2324C36.8867 68.8223 36.2891 69.1172 35.5352 69.1172C34.7656 69.1172 34.1602 68.873 33.7188 68.3848V71.4375H32.6348V62.6602H33.625L33.6777 63.3633C34.1191 62.8164 34.7324 62.543 35.5176 62.543C36.2793 62.543 36.8809 62.8301 37.3223 63.4043C37.7676 63.9785 37.9902 64.7773 37.9902 65.8008V65.9004ZM36.9062 65.7773C36.9062 65.0625 36.7539 64.498 36.4492 64.084C36.1445 63.6699 35.7266 63.4629 35.1953 63.4629C34.5391 63.4629 34.0469 63.7539 33.7188 64.3359V67.3652C34.043 67.9434 34.5391 68.2324 35.207 68.2324C35.7266 68.2324 36.1387 68.0273 36.4434 67.6172C36.752 67.2031 36.9062 66.5898 36.9062 65.7773ZM40.457 63.4277C40.9375 62.8379 41.5625 62.543 42.332 62.543C43.6719 62.543 44.3477 63.2988 44.3594 64.8105V69H43.2754V64.8047C43.2715 64.3477 43.166 64.0098 42.959 63.791C42.7559 63.5723 42.4375 63.4629 42.0039 63.4629C41.6523 63.4629 41.3438 63.5566 41.0781 63.7441C40.8125 63.9316 40.6055 64.1777 40.457 64.4824V69H39.373V60H40.457V63.4277ZM49.8965 68.373C49.4746 68.8691 48.8555 69.1172 48.0391 69.1172C47.3633 69.1172 46.8477 68.9219 46.4922 68.5312C46.1406 68.1367 45.9629 67.5547 45.959 66.7852V62.6602H47.043V66.7559C47.043 67.7168 47.4336 68.1973 48.2148 68.1973C49.043 68.1973 49.5938 67.8887 49.8672 67.2715V62.6602H50.9512V69H49.9199L49.8965 68.373ZM55.668 63.6328C55.5039 63.6055 55.3262 63.5918 55.1348 63.5918C54.4238 63.5918 53.9414 63.8945 53.6875 64.5V69H52.6035V62.6602H53.6582L53.6758 63.3926C54.0312 62.8262 54.5352 62.543 55.1875 62.543C55.3984 62.543 55.5586 62.5703 55.668 62.625V63.6328Z" fill="#277DA1"/>
<path d="M5.5332 13H4.44336V5.77539L2.25781 6.57812V5.59375L5.36328 4.42773H5.5332V13ZM12.9629 4.46289V5.38281H12.7637C11.9199 5.39844 11.248 5.64844 10.748 6.13281C10.248 6.61719 9.95898 7.29883 9.88086 8.17773C10.3301 7.66211 10.9434 7.4043 11.7207 7.4043C12.4629 7.4043 13.0547 7.66602 13.4961 8.18945C13.9414 8.71289 14.1641 9.38867 14.1641 10.2168C14.1641 11.0957 13.9238 11.7988 13.4434 12.3262C12.9668 12.8535 12.3262 13.1172 11.5215 13.1172C10.7051 13.1172 10.043 12.8047 9.53516 12.1797C9.02734 11.5508 8.77344 10.7422 8.77344 9.75391V9.33789C8.77344 7.76758 9.10742 6.56836 9.77539 5.74023C10.4473 4.9082 11.4453 4.48242 12.7695 4.46289H12.9629ZM11.5391 8.30664C11.168 8.30664 10.8262 8.41797 10.5137 8.64062C10.2012 8.86328 9.98438 9.14258 9.86328 9.47852V9.87695C9.86328 10.5801 10.0215 11.1465 10.3379 11.5762C10.6543 12.0059 11.0488 12.2207 11.5215 12.2207C12.0098 12.2207 12.3926 12.041 12.6699 11.6816C12.9512 11.3223 13.0918 10.8516 13.0918 10.2695C13.0918 9.68359 12.9492 9.21094 12.6641 8.85156C12.3828 8.48828 12.0078 8.30664 11.5391 8.30664Z" fill="white"/>
</svg>
