<svg width="69" height="75" viewBox="0 0 69 75" fill="none" xmlns="http://www.w3.org/2000/svg">
<rect x="0.5" y="0.5" width="68" height="74" rx="1.5" fill="white" stroke="#F9844A"/>
<rect width="69" height="19" rx="2" fill="#F9844A"/>
<path d="M40.1953 43.8789C39.8789 46.5859 38.877 48.6777 37.1895 50.1543C35.5137 51.6191 33.2812 52.3516 30.4922 52.3516C27.4688 52.3516 25.043 51.2676 23.2148 49.0996C21.3984 46.9316 20.4902 44.0312 20.4902 40.3984V37.9375C20.4902 35.5586 20.9121 33.4668 21.7559 31.6621C22.6113 29.8574 23.8184 28.4746 25.377 27.5137C26.9355 26.541 28.7402 26.0547 30.791 26.0547C33.5098 26.0547 35.6895 26.8164 37.3301 28.3398C38.9707 29.8516 39.9258 31.9492 40.1953 34.6328H36.8027C36.5098 32.5938 35.8711 31.1172 34.8867 30.2031C33.9141 29.2891 32.5488 28.832 30.791 28.832C28.6348 28.832 26.9414 29.6289 25.7109 31.2227C24.4922 32.8164 23.8828 35.084 23.8828 38.0254V40.5039C23.8828 43.2812 24.4629 45.4902 25.623 47.1309C26.7832 48.7715 28.4062 49.5918 30.4922 49.5918C32.3672 49.5918 33.8027 49.1699 34.7988 48.3262C35.8066 47.4707 36.4746 45.9883 36.8027 43.8789H40.1953ZM47.8418 52H44.5898V25H47.8418V52Z" fill="#F9844A"/>
<path d="M20.6875 66.293C20.582 67.1953 20.248 67.8926 19.6855 68.3848C19.127 68.873 18.3828 69.1172 17.4531 69.1172C16.4453 69.1172 15.6367 68.7559 15.0273 68.0332C14.4219 67.3105 14.1191 66.3438 14.1191 65.1328V64.3125C14.1191 63.5195 14.2598 62.8223 14.541 62.2207C14.8262 61.6191 15.2285 61.1582 15.748 60.8379C16.2676 60.5137 16.8691 60.3516 17.5527 60.3516C18.459 60.3516 19.1855 60.6055 19.7324 61.1133C20.2793 61.6172 20.5977 62.3164 20.6875 63.2109H19.5566C19.459 62.5312 19.2461 62.0391 18.918 61.7344C18.5938 61.4297 18.1387 61.2773 17.5527 61.2773C16.834 61.2773 16.2695 61.543 15.8594 62.0742C15.4531 62.6055 15.25 63.3613 15.25 64.3418V65.168C15.25 66.0938 15.4434 66.8301 15.8301 67.377C16.2168 67.9238 16.7578 68.1973 17.4531 68.1973C18.0781 68.1973 18.5566 68.0566 18.8887 67.7754C19.2246 67.4902 19.4473 66.9961 19.5566 66.293H20.6875ZM23.1426 63.4277C23.623 62.8379 24.248 62.543 25.0176 62.543C26.3574 62.543 27.0332 63.2988 27.0449 64.8105V69H25.9609V64.8047C25.957 64.3477 25.8516 64.0098 25.6445 63.791C25.4414 63.5723 25.123 63.4629 24.6895 63.4629C24.3379 63.4629 24.0293 63.5566 23.7637 63.7441C23.498 63.9316 23.291 64.1777 23.1426 64.4824V69H22.0586V60H23.1426V63.4277ZM29.8457 69H28.7617V60H29.8457V69ZM31.2988 65.7715C31.2988 65.1504 31.4199 64.5918 31.6621 64.0957C31.9082 63.5996 32.248 63.2168 32.6816 62.9473C33.1191 62.6777 33.6172 62.543 34.1758 62.543C35.0391 62.543 35.7363 62.8418 36.2676 63.4395C36.8027 64.0371 37.0703 64.832 37.0703 65.8242V65.9004C37.0703 66.5176 36.9512 67.0723 36.7129 67.5645C36.4785 68.0527 36.1406 68.4336 35.6992 68.707C35.2617 68.9805 34.7578 69.1172 34.1875 69.1172C33.3281 69.1172 32.6309 68.8184 32.0957 68.2207C31.5645 67.623 31.2988 66.832 31.2988 65.8477V65.7715ZM32.3887 65.9004C32.3887 66.6035 32.5508 67.168 32.875 67.5938C33.2031 68.0195 33.6406 68.2324 34.1875 68.2324C34.7383 68.2324 35.1758 68.0176 35.5 67.5879C35.8242 67.1543 35.9863 66.5488 35.9863 65.7715C35.9863 65.0762 35.8203 64.5137 35.4883 64.084C35.1602 63.6504 34.7227 63.4336 34.1758 63.4336C33.6406 63.4336 33.209 63.6465 32.8809 64.0723C32.5527 64.498 32.3887 65.1074 32.3887 65.9004ZM41.4941 63.6328C41.3301 63.6055 41.1523 63.5918 40.9609 63.5918C40.25 63.5918 39.7676 63.8945 39.5137 64.5V69H38.4297V62.6602H39.4844L39.502 63.3926C39.8574 62.8262 40.3613 62.543 41.0137 62.543C41.2246 62.543 41.3848 62.5703 41.4941 62.625V63.6328ZM43.6738 69H42.5898V62.6602H43.6738V69ZM42.502 60.9785C42.502 60.8027 42.5547 60.6543 42.6602 60.5332C42.7695 60.4121 42.9297 60.3516 43.1406 60.3516C43.3516 60.3516 43.5117 60.4121 43.6211 60.5332C43.7305 60.6543 43.7852 60.8027 43.7852 60.9785C43.7852 61.1543 43.7305 61.3008 43.6211 61.418C43.5117 61.5352 43.3516 61.5938 43.1406 61.5938C42.9297 61.5938 42.7695 61.5352 42.6602 61.418C42.5547 61.3008 42.502 61.1543 42.502 60.9785ZM46.4395 62.6602L46.4746 63.457C46.959 62.8477 47.5918 62.543 48.373 62.543C49.7129 62.543 50.3887 63.2988 50.4004 64.8105V69H49.3164V64.8047C49.3125 64.3477 49.207 64.0098 49 63.791C48.7969 63.5723 48.4785 63.4629 48.0449 63.4629C47.6934 63.4629 47.3848 63.5566 47.1191 63.7441C46.8535 63.9316 46.6465 64.1777 46.498 64.4824V69H45.4141V62.6602H46.4395ZM54.666 69.1172C53.8066 69.1172 53.1074 68.8359 52.5684 68.2734C52.0293 67.707 51.7598 66.9512 51.7598 66.0059V65.8066C51.7598 65.1777 51.8789 64.6172 52.1172 64.125C52.3594 63.6289 52.6953 63.2422 53.125 62.9648C53.5586 62.6836 54.0273 62.543 54.5312 62.543C55.3555 62.543 55.9961 62.8145 56.4531 63.3574C56.9102 63.9004 57.1387 64.6777 57.1387 65.6895V66.1406H52.8438C52.8594 66.7656 53.041 67.2715 53.3887 67.6582C53.7402 68.041 54.1855 68.2324 54.7246 68.2324C55.1074 68.2324 55.4316 68.1543 55.6973 67.998C55.9629 67.8418 56.1953 67.6348 56.3945 67.377L57.0566 67.8926C56.5254 68.709 55.7285 69.1172 54.666 69.1172ZM54.5312 63.4336C54.0938 63.4336 53.7266 63.5938 53.4297 63.9141C53.1328 64.2305 52.9492 64.6758 52.8789 65.25H56.0547V65.168C56.0234 64.6172 55.875 64.1914 55.6094 63.8906C55.3438 63.5859 54.9844 63.4336 54.5312 63.4336Z" fill="#F9844A"/>
<path d="M5.5332 13H4.44336V5.77539L2.25781 6.57812V5.59375L5.36328 4.42773H5.5332V13ZM14.2168 5.07812L10.6836 13H9.54688L13.0684 5.35938H8.45117V4.46875H14.2168V5.07812Z" fill="white"/>
</svg>
