<svg width="69" height="75" viewBox="0 0 69 75" fill="none" xmlns="http://www.w3.org/2000/svg">
<rect x="0.5" y="0.5" width="68" height="74" rx="1.5" fill="white" stroke="#F8961E"/>
<rect width="69" height="19" rx="2" fill="#F8961E"/>
<path d="M33.7617 45.3203H23.0391L20.6309 52H17.1504L26.9238 26.4062H29.877L39.668 52H36.2051L33.7617 45.3203ZM24.0586 42.543H32.7598L28.4004 30.5723L24.0586 42.543ZM51.7969 35.8984C51.3047 35.8164 50.7715 35.7754 50.1973 35.7754C48.0645 35.7754 46.6172 36.6836 45.8555 38.5V52H42.6035V32.9805H45.7676L45.8203 35.1777C46.8867 33.4785 48.3984 32.6289 50.3555 32.6289C50.9883 32.6289 51.4688 32.7109 51.7969 32.875V35.8984Z" fill="#F8961E"/>
<path d="M24.7109 66.7734H21.1367L20.334 69H19.1738L22.4316 60.4688H23.416L26.6797 69H25.5254L24.7109 66.7734ZM21.4766 65.8477H24.377L22.9238 61.8574L21.4766 65.8477ZM30.7227 63.6328C30.5586 63.6055 30.3809 63.5918 30.1895 63.5918C29.4785 63.5918 28.9961 63.8945 28.7422 64.5V69H27.6582V62.6602H28.7129L28.7305 63.3926C29.0859 62.8262 29.5898 62.543 30.2422 62.543C30.4531 62.543 30.6133 62.5703 30.7227 62.625V63.6328ZM31.3496 65.7773C31.3496 64.7891 31.5781 64.0039 32.0352 63.4219C32.4922 62.8359 33.0977 62.543 33.8516 62.543C34.625 62.543 35.2285 62.8164 35.6621 63.3633L35.7148 62.6602H36.7051V68.8477C36.7051 69.668 36.4609 70.3145 35.9727 70.7871C35.4883 71.2598 34.8359 71.4961 34.0156 71.4961C33.5586 71.4961 33.1113 71.3984 32.6738 71.2031C32.2363 71.0078 31.9023 70.7402 31.6719 70.4004L32.2344 69.75C32.6992 70.3242 33.2676 70.6113 33.9395 70.6113C34.4668 70.6113 34.877 70.4629 35.1699 70.166C35.4668 69.8691 35.6152 69.4512 35.6152 68.9121V68.3672C35.1816 68.8672 34.5898 69.1172 33.8398 69.1172C33.0977 69.1172 32.4961 68.8184 32.0352 68.2207C31.5781 67.623 31.3496 66.8086 31.3496 65.7773ZM32.4395 65.9004C32.4395 66.6152 32.5859 67.1777 32.8789 67.5879C33.1719 67.9941 33.582 68.1973 34.1094 68.1973C34.793 68.1973 35.2949 67.8867 35.6152 67.2656V64.3711C35.2832 63.7656 34.7852 63.4629 34.1211 63.4629C33.5938 63.4629 33.1816 63.668 32.8848 64.0781C32.5879 64.4883 32.4395 65.0957 32.4395 65.9004ZM38.0586 65.7715C38.0586 65.1504 38.1797 64.5918 38.4219 64.0957C38.668 63.5996 39.0078 63.2168 39.4414 62.9473C39.8789 62.6777 40.377 62.543 40.9355 62.543C41.7988 62.543 42.4961 62.8418 43.0273 63.4395C43.5625 64.0371 43.8301 64.832 43.8301 65.8242V65.9004C43.8301 66.5176 43.7109 67.0723 43.4727 67.5645C43.2383 68.0527 42.9004 68.4336 42.459 68.707C42.0215 68.9805 41.5176 69.1172 40.9473 69.1172C40.0879 69.1172 39.3906 68.8184 38.8555 68.2207C38.3242 67.623 38.0586 66.832 38.0586 65.8477V65.7715ZM39.1484 65.9004C39.1484 66.6035 39.3105 67.168 39.6348 67.5938C39.9629 68.0195 40.4004 68.2324 40.9473 68.2324C41.498 68.2324 41.9355 68.0176 42.2598 67.5879C42.584 67.1543 42.7461 66.5488 42.7461 65.7715C42.7461 65.0762 42.5801 64.5137 42.248 64.084C41.9199 63.6504 41.4824 63.4336 40.9355 63.4336C40.4004 63.4336 39.9688 63.6465 39.6406 64.0723C39.3125 64.498 39.1484 65.1074 39.1484 65.9004ZM46.2148 62.6602L46.25 63.457C46.7344 62.8477 47.3672 62.543 48.1484 62.543C49.4883 62.543 50.1641 63.2988 50.1758 64.8105V69H49.0918V64.8047C49.0879 64.3477 48.9824 64.0098 48.7754 63.791C48.5723 63.5723 48.2539 63.4629 47.8203 63.4629C47.4688 63.4629 47.1602 63.5566 46.8945 63.7441C46.6289 63.9316 46.4219 64.1777 46.2734 64.4824V69H45.1895V62.6602H46.2148Z" fill="#F8961E"/>
<path d="M5.5332 13H4.44336V5.77539L2.25781 6.57812V5.59375L5.36328 4.42773H5.5332V13ZM13.8828 6.69531C13.8828 7.12109 13.7695 7.5 13.543 7.83203C13.3203 8.16406 13.0176 8.42383 12.6348 8.61133C13.0801 8.80273 13.4316 9.08203 13.6895 9.44922C13.9512 9.81641 14.082 10.2324 14.082 10.6973C14.082 11.4355 13.832 12.0234 13.332 12.4609C12.8359 12.8984 12.1816 13.1172 11.3691 13.1172C10.5488 13.1172 9.89062 12.8984 9.39453 12.4609C8.90234 12.0195 8.65625 11.4316 8.65625 10.6973C8.65625 10.2363 8.78125 9.82031 9.03125 9.44922C9.28516 9.07812 9.63477 8.79688 10.0801 8.60547C9.70117 8.41797 9.40234 8.1582 9.18359 7.82617C8.96484 7.49414 8.85547 7.11719 8.85547 6.69531C8.85547 5.97656 9.08594 5.40625 9.54688 4.98438C10.0078 4.5625 10.6152 4.35156 11.3691 4.35156C12.1191 4.35156 12.7246 4.5625 13.1855 4.98438C13.6504 5.40625 13.8828 5.97656 13.8828 6.69531ZM12.998 10.6738C12.998 10.1973 12.8457 9.80859 12.541 9.50781C12.2402 9.20703 11.8457 9.05664 11.3574 9.05664C10.8691 9.05664 10.4766 9.20508 10.1797 9.50195C9.88672 9.79883 9.74023 10.1895 9.74023 10.6738C9.74023 11.1582 9.88281 11.5391 10.168 11.8164C10.457 12.0938 10.8574 12.2324 11.3691 12.2324C11.877 12.2324 12.2754 12.0938 12.5645 11.8164C12.8535 11.5352 12.998 11.1543 12.998 10.6738ZM11.3691 5.24219C10.9434 5.24219 10.5977 5.375 10.332 5.64062C10.0703 5.90234 9.93945 6.25977 9.93945 6.71289C9.93945 7.14648 10.0684 7.49805 10.3262 7.76758C10.5879 8.0332 10.9355 8.16602 11.3691 8.16602C11.8027 8.16602 12.1484 8.0332 12.4062 7.76758C12.668 7.49805 12.7988 7.14648 12.7988 6.71289C12.7988 6.2793 12.6641 5.92578 12.3945 5.65234C12.125 5.37891 11.7832 5.24219 11.3691 5.24219Z" fill="white"/>
</svg>
