<svg width="69" height="75" viewBox="0 0 69 75" fill="none" xmlns="http://www.w3.org/2000/svg">
<rect x="0.5" y="0.5" width="68" height="74" rx="1.5" fill="white" stroke="#F8961E"/>
<rect width="69" height="19" rx="2" fill="#F8961E"/>
<path d="M34.7637 52H31.3711V40.1699H18.4688V52H15.0938V26.4062H18.4688V37.4102H31.3711V26.4062H34.7637V52ZM48.1406 52.3516C45.5625 52.3516 43.4648 51.5078 41.8477 49.8203C40.2305 48.1211 39.4219 45.8535 39.4219 43.0176V42.4199C39.4219 40.5332 39.7793 38.8516 40.4941 37.375C41.2207 35.8867 42.2285 34.7266 43.5176 33.8945C44.8184 33.0508 46.2246 32.6289 47.7363 32.6289C50.209 32.6289 52.1309 33.4434 53.502 35.0723C54.873 36.7012 55.5586 39.0332 55.5586 42.0684V43.4219H42.6738C42.7207 45.2969 43.2656 46.8145 44.3086 47.9746C45.3633 49.123 46.6992 49.6973 48.3164 49.6973C49.4648 49.6973 50.4375 49.4629 51.2344 48.9941C52.0312 48.5254 52.7285 47.9043 53.3262 47.1309L55.3125 48.6777C53.7188 51.127 51.3281 52.3516 48.1406 52.3516ZM47.7363 35.3008C46.4238 35.3008 45.3223 35.7812 44.4316 36.7422C43.541 37.6914 42.9902 39.0273 42.7793 40.75H52.3066V40.5039C52.2129 38.8516 51.7676 37.5742 50.9707 36.6719C50.1738 35.7578 49.0957 35.3008 47.7363 35.3008Z" fill="#F8961E"/>
<path d="M23.5977 69H22.4668V65.0566H18.166V69H17.041V60.4688H18.166V64.1367H22.4668V60.4688H23.5977V69ZM28.0566 69.1172C27.1973 69.1172 26.498 68.8359 25.959 68.2734C25.4199 67.707 25.1504 66.9512 25.1504 66.0059V65.8066C25.1504 65.1777 25.2695 64.6172 25.5078 64.125C25.75 63.6289 26.0859 63.2422 26.5156 62.9648C26.9492 62.6836 27.418 62.543 27.9219 62.543C28.7461 62.543 29.3867 62.8145 29.8438 63.3574C30.3008 63.9004 30.5293 64.6777 30.5293 65.6895V66.1406H26.2344C26.25 66.7656 26.4316 67.2715 26.7793 67.6582C27.1309 68.041 27.5762 68.2324 28.1152 68.2324C28.498 68.2324 28.8223 68.1543 29.0879 67.998C29.3535 67.8418 29.5859 67.6348 29.7852 67.377L30.4473 67.8926C29.916 68.709 29.1191 69.1172 28.0566 69.1172ZM27.9219 63.4336C27.4844 63.4336 27.1172 63.5938 26.8203 63.9141C26.5234 64.2305 26.3398 64.6758 26.2695 65.25H29.4453V65.168C29.4141 64.6172 29.2656 64.1914 29 63.8906C28.7344 63.5859 28.375 63.4336 27.9219 63.4336ZM32.9668 69H31.8828V60H32.9668V69ZM35.8848 69H34.8008V62.6602H35.8848V69ZM34.7129 60.9785C34.7129 60.8027 34.7656 60.6543 34.8711 60.5332C34.9805 60.4121 35.1406 60.3516 35.3516 60.3516C35.5625 60.3516 35.7227 60.4121 35.832 60.5332C35.9414 60.6543 35.9961 60.8027 35.9961 60.9785C35.9961 61.1543 35.9414 61.3008 35.832 61.418C35.7227 61.5352 35.5625 61.5938 35.3516 61.5938C35.1406 61.5938 34.9805 61.5352 34.8711 61.418C34.7656 61.3008 34.7129 61.1543 34.7129 60.9785ZM41.5391 68.373C41.1172 68.8691 40.498 69.1172 39.6816 69.1172C39.0059 69.1172 38.4902 68.9219 38.1348 68.5312C37.7832 68.1367 37.6055 67.5547 37.6016 66.7852V62.6602H38.6855V66.7559C38.6855 67.7168 39.0762 68.1973 39.8574 68.1973C40.6855 68.1973 41.2363 67.8887 41.5098 67.2715V62.6602H42.5938V69H41.5625L41.5391 68.373ZM45.2656 62.6602L45.2949 63.3633C45.7598 62.8164 46.3867 62.543 47.1758 62.543C48.0625 62.543 48.666 62.8828 48.9863 63.5625C49.1973 63.2578 49.4707 63.0117 49.8066 62.8242C50.1465 62.6367 50.5469 62.543 51.0078 62.543C52.3984 62.543 53.1055 63.2793 53.1289 64.752V69H52.0449V64.8164C52.0449 64.3633 51.9414 64.0254 51.7344 63.8027C51.5273 63.5762 51.1797 63.4629 50.6914 63.4629C50.2891 63.4629 49.9551 63.584 49.6895 63.8262C49.4238 64.0645 49.2695 64.3867 49.2266 64.793V69H48.1367V64.8457C48.1367 63.9238 47.6855 63.4629 46.7832 63.4629C46.0723 63.4629 45.5859 63.7656 45.3242 64.3711V69H44.2402V62.6602H45.2656Z" fill="#F8961E"/>
<path d="M11.4297 13H5.83984V12.2207L8.79297 8.93945C9.23047 8.44336 9.53125 8.04102 9.69531 7.73242C9.86328 7.41992 9.94727 7.09766 9.94727 6.76562C9.94727 6.32031 9.8125 5.95508 9.54297 5.66992C9.27344 5.38477 8.91406 5.24219 8.46484 5.24219C7.92578 5.24219 7.50586 5.39648 7.20508 5.70508C6.9082 6.00977 6.75977 6.43555 6.75977 6.98242H5.67578C5.67578 6.19727 5.92773 5.5625 6.43164 5.07812C6.93945 4.59375 7.61719 4.35156 8.46484 4.35156C9.25781 4.35156 9.88477 4.56055 10.3457 4.97852C10.8066 5.39258 11.0371 5.94531 11.0371 6.63672C11.0371 7.47656 10.502 8.47656 9.43164 9.63672L7.14648 12.1152H11.4297V13Z" fill="white"/>
</svg>
