<svg width="69" height="75" viewBox="0 0 69 75" fill="none" xmlns="http://www.w3.org/2000/svg">
<rect x="0.5" y="0.5" width="68" height="74" rx="1.5" fill="white" stroke="#577590"/>
<rect width="69" height="19" rx="2" fill="#577590"/>
<path d="M26.8008 49.2402H38.9297V52H23.4082V26.4062H26.8008V49.2402ZM45.8027 52H42.5508V32.9805H45.8027V52ZM42.2871 27.9355C42.2871 27.4082 42.4453 26.9629 42.7617 26.5996C43.0898 26.2363 43.5703 26.0547 44.2031 26.0547C44.8359 26.0547 45.3164 26.2363 45.6445 26.5996C45.9727 26.9629 46.1367 27.4082 46.1367 27.9355C46.1367 28.4629 45.9727 28.9023 45.6445 29.2539C45.3164 29.6055 44.8359 29.7812 44.2031 29.7812C43.5703 29.7812 43.0898 29.6055 42.7617 29.2539C42.4453 28.9023 42.2871 28.4629 42.2871 27.9355Z" fill="#577590"/>
<path d="M17.1348 68.0801H21.1777V69H16.0039V60.4688H17.1348V68.0801ZM23.4688 69H22.3848V62.6602H23.4688V69ZM22.2969 60.9785C22.2969 60.8027 22.3496 60.6543 22.4551 60.5332C22.5645 60.4121 22.7246 60.3516 22.9355 60.3516C23.1465 60.3516 23.3066 60.4121 23.416 60.5332C23.5254 60.6543 23.5801 60.8027 23.5801 60.9785C23.5801 61.1543 23.5254 61.3008 23.416 61.418C23.3066 61.5352 23.1465 61.5938 22.9355 61.5938C22.7246 61.5938 22.5645 61.5352 22.4551 61.418C22.3496 61.3008 22.2969 61.1543 22.2969 60.9785ZM26.6797 61.125V62.6602H27.8633V63.498H26.6797V67.4297C26.6797 67.6836 26.7324 67.875 26.8379 68.0039C26.9434 68.1289 27.123 68.1914 27.377 68.1914C27.502 68.1914 27.6738 68.168 27.8926 68.1211V69C27.6074 69.0781 27.3301 69.1172 27.0605 69.1172C26.5762 69.1172 26.2109 68.9707 25.9648 68.6777C25.7188 68.3848 25.5957 67.9688 25.5957 67.4297V63.498H24.4414V62.6602H25.5957V61.125H26.6797ZM30.2188 63.4277C30.6992 62.8379 31.3242 62.543 32.0938 62.543C33.4336 62.543 34.1094 63.2988 34.1211 64.8105V69H33.0371V64.8047C33.0332 64.3477 32.9277 64.0098 32.7207 63.791C32.5176 63.5723 32.1992 63.4629 31.7656 63.4629C31.4141 63.4629 31.1055 63.5566 30.8398 63.7441C30.5742 63.9316 30.3672 64.1777 30.2188 64.4824V69H29.1348V60H30.2188V63.4277ZM36.9219 69H35.8379V62.6602H36.9219V69ZM35.75 60.9785C35.75 60.8027 35.8027 60.6543 35.9082 60.5332C36.0176 60.4121 36.1777 60.3516 36.3887 60.3516C36.5996 60.3516 36.7598 60.4121 36.8691 60.5332C36.9785 60.6543 37.0332 60.8027 37.0332 60.9785C37.0332 61.1543 36.9785 61.3008 36.8691 61.418C36.7598 61.5352 36.5996 61.5938 36.3887 61.5938C36.1777 61.5938 36.0176 61.5352 35.9082 61.418C35.8027 61.3008 35.75 61.1543 35.75 60.9785ZM42.5762 68.373C42.1543 68.8691 41.5352 69.1172 40.7188 69.1172C40.043 69.1172 39.5273 68.9219 39.1719 68.5312C38.8203 68.1367 38.6426 67.5547 38.6387 66.7852V62.6602H39.7227V66.7559C39.7227 67.7168 40.1133 68.1973 40.8945 68.1973C41.7227 68.1973 42.2734 67.8887 42.5469 67.2715V62.6602H43.6309V69H42.5996L42.5762 68.373ZM46.3027 62.6602L46.332 63.3633C46.7969 62.8164 47.4238 62.543 48.2129 62.543C49.0996 62.543 49.7031 62.8828 50.0234 63.5625C50.2344 63.2578 50.5078 63.0117 50.8438 62.8242C51.1836 62.6367 51.584 62.543 52.0449 62.543C53.4355 62.543 54.1426 63.2793 54.166 64.752V69H53.082V64.8164C53.082 64.3633 52.9785 64.0254 52.7715 63.8027C52.5645 63.5762 52.2168 63.4629 51.7285 63.4629C51.3262 63.4629 50.9922 63.584 50.7266 63.8262C50.4609 64.0645 50.3066 64.3867 50.2637 64.793V69H49.1738V64.8457C49.1738 63.9238 48.7227 63.4629 47.8203 63.4629C47.1094 63.4629 46.623 63.7656 46.3613 64.3711V69H45.2773V62.6602H46.3027Z" fill="#577590"/>
<path d="M7.41602 8.20703H8.23047C8.74219 8.19922 9.14453 8.06445 9.4375 7.80273C9.73047 7.54102 9.87695 7.1875 9.87695 6.74219C9.87695 5.74219 9.37891 5.24219 8.38281 5.24219C7.91406 5.24219 7.53906 5.37695 7.25781 5.64648C6.98047 5.91211 6.8418 6.26562 6.8418 6.70703H5.75781C5.75781 6.03125 6.00391 5.4707 6.49609 5.02539C6.99219 4.57617 7.62109 4.35156 8.38281 4.35156C9.1875 4.35156 9.81836 4.56445 10.2754 4.99023C10.7324 5.41602 10.9609 6.00781 10.9609 6.76562C10.9609 7.13672 10.8398 7.49609 10.5977 7.84375C10.3594 8.19141 10.0332 8.45117 9.61914 8.62305C10.0879 8.77148 10.4492 9.01758 10.7031 9.36133C10.9609 9.70508 11.0898 10.125 11.0898 10.6211C11.0898 11.3867 10.8398 11.9941 10.3398 12.4434C9.83984 12.8926 9.18945 13.1172 8.38867 13.1172C7.58789 13.1172 6.93555 12.9004 6.43164 12.4668C5.93164 12.0332 5.68164 11.4609 5.68164 10.75H6.77148C6.77148 11.1992 6.91797 11.5586 7.21094 11.8281C7.50391 12.0977 7.89648 12.2324 8.38867 12.2324C8.91211 12.2324 9.3125 12.0957 9.58984 11.8223C9.86719 11.5488 10.0059 11.1562 10.0059 10.6445C10.0059 10.1484 9.85352 9.76758 9.54883 9.50195C9.24414 9.23633 8.80469 9.09961 8.23047 9.0918H7.41602V8.20703Z" fill="white"/>
</svg>
