<svg width="69" height="75" viewBox="0 0 69 75" fill="none" xmlns="http://www.w3.org/2000/svg">
<rect x="0.5" y="0.5" width="68" height="74" rx="1.5" fill="white" stroke="#4D908E"/>
<rect width="69" height="19" rx="2" fill="#4D908E"/>
<path d="M16.7109 52V26.4062H25.0781C27.8555 26.4062 29.9414 26.9805 31.3359 28.1289C32.7422 29.2773 33.4453 30.9766 33.4453 33.2266C33.4453 34.4219 33.1055 35.4824 32.4258 36.4082C31.7461 37.3223 30.8203 38.0312 29.6484 38.5352C31.0312 38.9219 32.1211 39.6602 32.918 40.75C33.7266 41.8281 34.1309 43.1172 34.1309 44.6172C34.1309 46.9141 33.3867 48.7188 31.8984 50.0312C30.4102 51.3438 28.3066 52 25.5879 52H16.7109ZM20.0859 40.0293V49.2402H25.6582C27.2285 49.2402 28.4648 48.8359 29.3672 48.0273C30.2812 47.207 30.7383 46.082 30.7383 44.6523C30.7383 41.5703 29.0625 40.0293 25.7109 40.0293H20.0859ZM20.0859 37.3223H25.1836C26.6602 37.3223 27.8379 36.9531 28.7168 36.2148C29.6074 35.4766 30.0527 34.4746 30.0527 33.209C30.0527 31.8027 29.6426 30.7832 28.8223 30.1504C28.002 29.5059 26.7539 29.1836 25.0781 29.1836H20.0859V37.3223ZM46.5234 52.3516C43.9453 52.3516 41.8477 51.5078 40.2305 49.8203C38.6133 48.1211 37.8047 45.8535 37.8047 43.0176V42.4199C37.8047 40.5332 38.1621 38.8516 38.877 37.375C39.6035 35.8867 40.6113 34.7266 41.9004 33.8945C43.2012 33.0508 44.6074 32.6289 46.1191 32.6289C48.5918 32.6289 50.5137 33.4434 51.8848 35.0723C53.2559 36.7012 53.9414 39.0332 53.9414 42.0684V43.4219H41.0566C41.1035 45.2969 41.6484 46.8145 42.6914 47.9746C43.7461 49.123 45.082 49.6973 46.6992 49.6973C47.8477 49.6973 48.8203 49.4629 49.6172 48.9941C50.4141 48.5254 51.1113 47.9043 51.709 47.1309L53.6953 48.6777C52.1016 51.127 49.7109 52.3516 46.5234 52.3516ZM46.1191 35.3008C44.8066 35.3008 43.7051 35.7812 42.8145 36.7422C41.9238 37.6914 41.373 39.0273 41.1621 40.75H50.6895V40.5039C50.5957 38.8516 50.1504 37.5742 49.3535 36.6719C48.5566 35.7578 47.4785 35.3008 46.1191 35.3008Z" fill="#4D908E"/>
<path d="M11.1934 69V60.4688H13.9824C14.9082 60.4688 15.6035 60.6602 16.0684 61.043C16.5371 61.4258 16.7715 61.9922 16.7715 62.7422C16.7715 63.1406 16.6582 63.4941 16.4316 63.8027C16.2051 64.1074 15.8965 64.3438 15.5059 64.5117C15.9668 64.6406 16.3301 64.8867 16.5957 65.25C16.8652 65.6094 17 66.0391 17 66.5391C17 67.3047 16.752 67.9062 16.2559 68.3438C15.7598 68.7812 15.0586 69 14.1523 69H11.1934ZM12.3184 65.0098V68.0801H14.1758C14.6992 68.0801 15.1113 67.9453 15.4121 67.6758C15.7168 67.4023 15.8691 67.0273 15.8691 66.5508C15.8691 65.5234 15.3105 65.0098 14.1934 65.0098H12.3184ZM12.3184 64.1074H14.0176C14.5098 64.1074 14.9023 63.9844 15.1953 63.7383C15.4922 63.4922 15.6406 63.1582 15.6406 62.7363C15.6406 62.2676 15.5039 61.9277 15.2305 61.7168C14.957 61.502 14.541 61.3945 13.9824 61.3945H12.3184V64.1074ZM21.1309 69.1172C20.2715 69.1172 19.5723 68.8359 19.0332 68.2734C18.4941 67.707 18.2246 66.9512 18.2246 66.0059V65.8066C18.2246 65.1777 18.3438 64.6172 18.582 64.125C18.8242 63.6289 19.1602 63.2422 19.5898 62.9648C20.0234 62.6836 20.4922 62.543 20.9961 62.543C21.8203 62.543 22.4609 62.8145 22.918 63.3574C23.375 63.9004 23.6035 64.6777 23.6035 65.6895V66.1406H19.3086C19.3242 66.7656 19.5059 67.2715 19.8535 67.6582C20.2051 68.041 20.6504 68.2324 21.1895 68.2324C21.5723 68.2324 21.8965 68.1543 22.1621 67.998C22.4277 67.8418 22.6602 67.6348 22.8594 67.377L23.5215 67.8926C22.9902 68.709 22.1934 69.1172 21.1309 69.1172ZM20.9961 63.4336C20.5586 63.4336 20.1914 63.5938 19.8945 63.9141C19.5977 64.2305 19.4141 64.6758 19.3438 65.25H22.5195V65.168C22.4883 64.6172 22.3398 64.1914 22.0742 63.8906C21.8086 63.5859 21.4492 63.4336 20.9961 63.4336ZM27.9277 63.6328C27.7637 63.6055 27.5859 63.5918 27.3945 63.5918C26.6836 63.5918 26.2012 63.8945 25.9473 64.5V69H24.8633V62.6602H25.918L25.9355 63.3926C26.291 62.8262 26.7949 62.543 27.4473 62.543C27.6582 62.543 27.8184 62.5703 27.9277 62.625V63.6328ZM31.1094 67.4121L32.5859 62.6602H33.7461L31.1973 69.9785C30.8027 71.0332 30.1758 71.5605 29.3164 71.5605L29.1113 71.543L28.707 71.4668V70.5879L29 70.6113C29.3672 70.6113 29.6523 70.5371 29.8555 70.3887C30.0625 70.2402 30.2324 69.9688 30.3652 69.5742L30.6055 68.9297L28.3438 62.6602H29.5273L31.1094 67.4121ZM35.8965 69H34.8125V60H35.8965V69ZM38.8145 69H37.7305V60H38.8145V69ZM41.7324 69H40.6484V62.6602H41.7324V69ZM40.5605 60.9785C40.5605 60.8027 40.6133 60.6543 40.7188 60.5332C40.8281 60.4121 40.9883 60.3516 41.1992 60.3516C41.4102 60.3516 41.5703 60.4121 41.6797 60.5332C41.7891 60.6543 41.8438 60.8027 41.8438 60.9785C41.8438 61.1543 41.7891 61.3008 41.6797 61.418C41.5703 61.5352 41.4102 61.5938 41.1992 61.5938C40.9883 61.5938 40.8281 61.5352 40.7188 61.418C40.6133 61.3008 40.5605 61.1543 40.5605 60.9785ZM47.3867 68.373C46.9648 68.8691 46.3457 69.1172 45.5293 69.1172C44.8535 69.1172 44.3379 68.9219 43.9824 68.5312C43.6309 68.1367 43.4531 67.5547 43.4492 66.7852V62.6602H44.5332V66.7559C44.5332 67.7168 44.9238 68.1973 45.7051 68.1973C46.5332 68.1973 47.084 67.8887 47.3574 67.2715V62.6602H48.4414V69H47.4102L47.3867 68.373ZM51.1133 62.6602L51.1426 63.3633C51.6074 62.8164 52.2344 62.543 53.0234 62.543C53.9102 62.543 54.5137 62.8828 54.834 63.5625C55.0449 63.2578 55.3184 63.0117 55.6543 62.8242C55.9941 62.6367 56.3945 62.543 56.8555 62.543C58.2461 62.543 58.9531 63.2793 58.9766 64.752V69H57.8926V64.8164C57.8926 64.3633 57.7891 64.0254 57.582 63.8027C57.375 63.5762 57.0273 63.4629 56.5391 63.4629C56.1367 63.4629 55.8027 63.584 55.5371 63.8262C55.2715 64.0645 55.1172 64.3867 55.0742 64.793V69H53.9844V64.8457C53.9844 63.9238 53.5332 63.4629 52.6309 63.4629C51.9199 63.4629 51.4336 63.7656 51.1719 64.3711V69H50.0879V62.6602H51.1133Z" fill="#4D908E"/>
<path d="M10.416 10.1348H11.5996V11.0195H10.416V13H9.32617V11.0195H5.44141V10.3809L9.26172 4.46875H10.416V10.1348ZM6.67188 10.1348H9.32617V5.95117L9.19727 6.18555L6.67188 10.1348Z" fill="white"/>
</svg>
