<svg width="69" height="75" viewBox="0 0 69 75" fill="none" xmlns="http://www.w3.org/2000/svg">
<rect x="0.5" y="0.5" width="68" height="74" rx="1.5" fill="white" stroke="#F9C74F"/>
<rect width="69" height="19" rx="2" fill="#F9C74F"/>
<path d="M26.2559 52V26.4062H34.623C37.4004 26.4062 39.4863 26.9805 40.8809 28.1289C42.2871 29.2773 42.9902 30.9766 42.9902 33.2266C42.9902 34.4219 42.6504 35.4824 41.9707 36.4082C41.291 37.3223 40.3652 38.0312 39.1934 38.5352C40.5762 38.9219 41.666 39.6602 42.4629 40.75C43.2715 41.8281 43.6758 43.1172 43.6758 44.6172C43.6758 46.9141 42.9316 48.7188 41.4434 50.0312C39.9551 51.3438 37.8516 52 35.1328 52H26.2559ZM29.6309 40.0293V49.2402H35.2031C36.7734 49.2402 38.0098 48.8359 38.9121 48.0273C39.8262 47.207 40.2832 46.082 40.2832 44.6523C40.2832 41.5703 38.6074 40.0293 35.2559 40.0293H29.6309ZM29.6309 37.3223H34.7285C36.2051 37.3223 37.3828 36.9531 38.2617 36.2148C39.1523 35.4766 39.5977 34.4746 39.5977 33.209C39.5977 31.8027 39.1875 30.7832 38.3672 30.1504C37.5469 29.5059 36.2988 29.1836 34.623 29.1836H29.6309V37.3223Z" fill="#F9C74F"/>
<path d="M20.123 69V60.4688H22.9121C23.8379 60.4688 24.5332 60.6602 24.998 61.043C25.4668 61.4258 25.7012 61.9922 25.7012 62.7422C25.7012 63.1406 25.5879 63.4941 25.3613 63.8027C25.1348 64.1074 24.8262 64.3438 24.4355 64.5117C24.8965 64.6406 25.2598 64.8867 25.5254 65.25C25.7949 65.6094 25.9297 66.0391 25.9297 66.5391C25.9297 67.3047 25.6816 67.9062 25.1855 68.3438C24.6895 68.7812 23.9883 69 23.082 69H20.123ZM21.248 65.0098V68.0801H23.1055C23.6289 68.0801 24.041 67.9453 24.3418 67.6758C24.6465 67.4023 24.7988 67.0273 24.7988 66.5508C24.7988 65.5234 24.2402 65.0098 23.123 65.0098H21.248ZM21.248 64.1074H22.9473C23.4395 64.1074 23.832 63.9844 24.125 63.7383C24.4219 63.4922 24.5703 63.1582 24.5703 62.7363C24.5703 62.2676 24.4336 61.9277 24.1602 61.7168C23.8867 61.502 23.4707 61.3945 22.9121 61.3945H21.248V64.1074ZM27.1426 65.7715C27.1426 65.1504 27.2637 64.5918 27.5059 64.0957C27.752 63.5996 28.0918 63.2168 28.5254 62.9473C28.9629 62.6777 29.4609 62.543 30.0195 62.543C30.8828 62.543 31.5801 62.8418 32.1113 63.4395C32.6465 64.0371 32.9141 64.832 32.9141 65.8242V65.9004C32.9141 66.5176 32.7949 67.0723 32.5566 67.5645C32.3223 68.0527 31.9844 68.4336 31.543 68.707C31.1055 68.9805 30.6016 69.1172 30.0312 69.1172C29.1719 69.1172 28.4746 68.8184 27.9395 68.2207C27.4082 67.623 27.1426 66.832 27.1426 65.8477V65.7715ZM28.2324 65.9004C28.2324 66.6035 28.3945 67.168 28.7188 67.5938C29.0469 68.0195 29.4844 68.2324 30.0312 68.2324C30.582 68.2324 31.0195 68.0176 31.3438 67.5879C31.668 67.1543 31.8301 66.5488 31.8301 65.7715C31.8301 65.0762 31.6641 64.5137 31.332 64.084C31.0039 63.6504 30.5664 63.4336 30.0195 63.4336C29.4844 63.4336 29.0527 63.6465 28.7246 64.0723C28.3965 64.498 28.2324 65.1074 28.2324 65.9004ZM37.3379 63.6328C37.1738 63.6055 36.9961 63.5918 36.8047 63.5918C36.0938 63.5918 35.6113 63.8945 35.3574 64.5V69H34.2734V62.6602H35.3281L35.3457 63.3926C35.7012 62.8262 36.2051 62.543 36.8574 62.543C37.0684 62.543 37.2285 62.5703 37.3379 62.625V63.6328ZM37.9355 65.7715C37.9355 65.1504 38.0566 64.5918 38.2988 64.0957C38.5449 63.5996 38.8848 63.2168 39.3184 62.9473C39.7559 62.6777 40.2539 62.543 40.8125 62.543C41.6758 62.543 42.373 62.8418 42.9043 63.4395C43.4395 64.0371 43.707 64.832 43.707 65.8242V65.9004C43.707 66.5176 43.5879 67.0723 43.3496 67.5645C43.1152 68.0527 42.7773 68.4336 42.3359 68.707C41.8984 68.9805 41.3945 69.1172 40.8242 69.1172C39.9648 69.1172 39.2676 68.8184 38.7324 68.2207C38.2012 67.623 37.9355 66.832 37.9355 65.8477V65.7715ZM39.0254 65.9004C39.0254 66.6035 39.1875 67.168 39.5117 67.5938C39.8398 68.0195 40.2773 68.2324 40.8242 68.2324C41.375 68.2324 41.8125 68.0176 42.1367 67.5879C42.4609 67.1543 42.623 66.5488 42.623 65.7715C42.623 65.0762 42.457 64.5137 42.125 64.084C41.7969 63.6504 41.3594 63.4336 40.8125 63.4336C40.2773 63.4336 39.8457 63.6465 39.5176 64.0723C39.1895 64.498 39.0254 65.1074 39.0254 65.9004ZM46.0918 62.6602L46.127 63.457C46.6113 62.8477 47.2441 62.543 48.0254 62.543C49.3652 62.543 50.041 63.2988 50.0527 64.8105V69H48.9688V64.8047C48.9648 64.3477 48.8594 64.0098 48.6523 63.791C48.4492 63.5723 48.1309 63.4629 47.6973 63.4629C47.3457 63.4629 47.0371 63.5566 46.7715 63.7441C46.5059 63.9316 46.2988 64.1777 46.1504 64.4824V69H45.0664V62.6602H46.0918Z" fill="#F9C74F"/>
<path d="M6.33789 8.72266L6.77148 4.46875H11.1426V5.4707H7.69141L7.43359 7.79688C7.85156 7.55078 8.32617 7.42773 8.85742 7.42773C9.63477 7.42773 10.252 7.68555 10.709 8.20117C11.166 8.71289 11.3945 9.40625 11.3945 10.2812C11.3945 11.1602 11.1562 11.8535 10.6797 12.3613C10.207 12.8652 9.54492 13.1172 8.69336 13.1172C7.93945 13.1172 7.32422 12.9082 6.84766 12.4902C6.37109 12.0723 6.09961 11.4941 6.0332 10.7559H7.05859C7.125 11.2441 7.29883 11.6133 7.58008 11.8633C7.86133 12.1094 8.23242 12.2324 8.69336 12.2324C9.19727 12.2324 9.5918 12.0605 9.87695 11.7168C10.166 11.373 10.3105 10.8984 10.3105 10.293C10.3105 9.72266 10.1543 9.26562 9.8418 8.92188C9.5332 8.57422 9.12109 8.40039 8.60547 8.40039C8.13281 8.40039 7.76172 8.50391 7.49219 8.71094L7.20508 8.94531L6.33789 8.72266Z" fill="white"/>
</svg>
