<svg width="69" height="75" viewBox="0 0 69 75" fill="none" xmlns="http://www.w3.org/2000/svg">
<rect x="0.5" y="0.5" width="68" height="74" rx="1.5" fill="white" stroke="#277DA1"/>
<rect width="69" height="19" rx="2" fill="#277DA1"/>
<path d="M44.5723 43.8789C44.2559 46.5859 43.2539 48.6777 41.5664 50.1543C39.8906 51.6191 37.6582 52.3516 34.8691 52.3516C31.8457 52.3516 29.4199 51.2676 27.5918 49.0996C25.7754 46.9316 24.8672 44.0312 24.8672 40.3984V37.9375C24.8672 35.5586 25.2891 33.4668 26.1328 31.6621C26.9883 29.8574 28.1953 28.4746 29.7539 27.5137C31.3125 26.541 33.1172 26.0547 35.168 26.0547C37.8867 26.0547 40.0664 26.8164 41.707 28.3398C43.3477 29.8516 44.3027 31.9492 44.5723 34.6328H41.1797C40.8867 32.5938 40.248 31.1172 39.2637 30.2031C38.291 29.2891 36.9258 28.832 35.168 28.832C33.0117 28.832 31.3184 29.6289 30.0879 31.2227C28.8691 32.8164 28.2598 35.084 28.2598 38.0254V40.5039C28.2598 43.2812 28.8398 45.4902 30 47.1309C31.1602 48.7715 32.7832 49.5918 34.8691 49.5918C36.7441 49.5918 38.1797 49.1699 39.1758 48.3262C40.1836 47.4707 40.8516 45.9883 41.1797 43.8789H44.5723Z" fill="#277DA1"/>
<path d="M23.459 66.293C23.3535 67.1953 23.0195 67.8926 22.457 68.3848C21.8984 68.873 21.1543 69.1172 20.2246 69.1172C19.2168 69.1172 18.4082 68.7559 17.7988 68.0332C17.1934 67.3105 16.8906 66.3438 16.8906 65.1328V64.3125C16.8906 63.5195 17.0312 62.8223 17.3125 62.2207C17.5977 61.6191 18 61.1582 18.5195 60.8379C19.0391 60.5137 19.6406 60.3516 20.3242 60.3516C21.2305 60.3516 21.957 60.6055 22.5039 61.1133C23.0508 61.6172 23.3691 62.3164 23.459 63.2109H22.3281C22.2305 62.5312 22.0176 62.0391 21.6895 61.7344C21.3652 61.4297 20.9102 61.2773 20.3242 61.2773C19.6055 61.2773 19.041 61.543 18.6309 62.0742C18.2246 62.6055 18.0215 63.3613 18.0215 64.3418V65.168C18.0215 66.0938 18.2148 66.8301 18.6016 67.377C18.9883 67.9238 19.5293 68.1973 20.2246 68.1973C20.8496 68.1973 21.3281 68.0566 21.6602 67.7754C21.9961 67.4902 22.2188 66.9961 22.3281 66.293H23.459ZM28.7441 69C28.6816 68.875 28.6309 68.6523 28.5918 68.332C28.0879 68.8555 27.4863 69.1172 26.7871 69.1172C26.1621 69.1172 25.6484 68.9414 25.2461 68.5898C24.8477 68.2344 24.6484 67.7852 24.6484 67.2422C24.6484 66.582 24.8984 66.0703 25.3984 65.707C25.9023 65.3398 26.6094 65.1562 27.5195 65.1562H28.5742V64.6582C28.5742 64.2793 28.4609 63.9785 28.2344 63.7559C28.0078 63.5293 27.6738 63.416 27.2324 63.416C26.8457 63.416 26.5215 63.5137 26.2598 63.709C25.998 63.9043 25.8672 64.1406 25.8672 64.418H24.7773C24.7773 64.1016 24.8887 63.7969 25.1113 63.5039C25.3379 63.207 25.6426 62.9727 26.0254 62.8008C26.4121 62.6289 26.8359 62.543 27.2969 62.543C28.0273 62.543 28.5996 62.7266 29.0137 63.0938C29.4277 63.457 29.6426 63.959 29.6582 64.5996V67.5176C29.6582 68.0996 29.7324 68.5625 29.8809 68.9062V69H28.7441ZM26.9453 68.1738C27.2852 68.1738 27.6074 68.0859 27.9121 67.9102C28.2168 67.7344 28.4375 67.5059 28.5742 67.2246V65.9238H27.7246C26.3965 65.9238 25.7324 66.3125 25.7324 67.0898C25.7324 67.4297 25.8457 67.6953 26.0723 67.8867C26.2988 68.0781 26.5898 68.1738 26.9453 68.1738ZM34.4219 63.6328C34.2578 63.6055 34.0801 63.5918 33.8887 63.5918C33.1777 63.5918 32.6953 63.8945 32.4414 64.5V69H31.3574V62.6602H32.4121L32.4297 63.3926C32.7852 62.8262 33.2891 62.543 33.9414 62.543C34.1523 62.543 34.3125 62.5703 34.4219 62.625V63.6328ZM40.791 65.9004C40.791 66.8691 40.5684 67.6484 40.123 68.2383C39.6777 68.8242 39.0801 69.1172 38.3301 69.1172C37.5293 69.1172 36.9102 68.834 36.4727 68.2676L36.4199 69H35.4238V60H36.5078V63.3574C36.9453 62.8145 37.5488 62.543 38.3184 62.543C39.0879 62.543 39.6914 62.834 40.1289 63.416C40.5703 63.998 40.791 64.7949 40.791 65.8066V65.9004ZM39.707 65.7773C39.707 65.0391 39.5645 64.4688 39.2793 64.0664C38.9941 63.6641 38.584 63.4629 38.0488 63.4629C37.334 63.4629 36.8203 63.7949 36.5078 64.459V67.2012C36.8398 67.8652 37.3574 68.1973 38.0605 68.1973C38.5801 68.1973 38.9844 67.9961 39.2734 67.5938C39.5625 67.1914 39.707 66.5859 39.707 65.7773ZM41.875 65.7715C41.875 65.1504 41.9961 64.5918 42.2383 64.0957C42.4844 63.5996 42.8242 63.2168 43.2578 62.9473C43.6953 62.6777 44.1934 62.543 44.752 62.543C45.6152 62.543 46.3125 62.8418 46.8438 63.4395C47.3789 64.0371 47.6465 64.832 47.6465 65.8242V65.9004C47.6465 66.5176 47.5273 67.0723 47.2891 67.5645C47.0547 68.0527 46.7168 68.4336 46.2754 68.707C45.8379 68.9805 45.334 69.1172 44.7637 69.1172C43.9043 69.1172 43.207 68.8184 42.6719 68.2207C42.1406 67.623 41.875 66.832 41.875 65.8477V65.7715ZM42.9648 65.9004C42.9648 66.6035 43.127 67.168 43.4512 67.5938C43.7793 68.0195 44.2168 68.2324 44.7637 68.2324C45.3145 68.2324 45.752 68.0176 46.0762 67.5879C46.4004 67.1543 46.5625 66.5488 46.5625 65.7715C46.5625 65.0762 46.3965 64.5137 46.0645 64.084C45.7363 63.6504 45.2988 63.4336 44.752 63.4336C44.2168 63.4336 43.7852 63.6465 43.457 64.0723C43.1289 64.498 42.9648 65.1074 42.9648 65.9004ZM50.0312 62.6602L50.0664 63.457C50.5508 62.8477 51.1836 62.543 51.9648 62.543C53.3047 62.543 53.9805 63.2988 53.9922 64.8105V69H52.9082V64.8047C52.9043 64.3477 52.7988 64.0098 52.5918 63.791C52.3887 63.5723 52.0703 63.4629 51.6367 63.4629C51.2852 63.4629 50.9766 63.5566 50.7109 63.7441C50.4453 63.9316 50.2383 64.1777 50.0898 64.4824V69H49.0059V62.6602H50.0312Z" fill="#277DA1"/>
<path d="M10.0938 4.46289V5.38281H9.89453C9.05078 5.39844 8.37891 5.64844 7.87891 6.13281C7.37891 6.61719 7.08984 7.29883 7.01172 8.17773C7.46094 7.66211 8.07422 7.4043 8.85156 7.4043C9.59375 7.4043 10.1855 7.66602 10.627 8.18945C11.0723 8.71289 11.2949 9.38867 11.2949 10.2168C11.2949 11.0957 11.0547 11.7988 10.5742 12.3262C10.0977 12.8535 9.45703 13.1172 8.65234 13.1172C7.83594 13.1172 7.17383 12.8047 6.66602 12.1797C6.1582 11.5508 5.9043 10.7422 5.9043 9.75391V9.33789C5.9043 7.76758 6.23828 6.56836 6.90625 5.74023C7.57812 4.9082 8.57617 4.48242 9.90039 4.46289H10.0938ZM8.66992 8.30664C8.29883 8.30664 7.95703 8.41797 7.64453 8.64062C7.33203 8.86328 7.11523 9.14258 6.99414 9.47852V9.87695C6.99414 10.5801 7.15234 11.1465 7.46875 11.5762C7.78516 12.0059 8.17969 12.2207 8.65234 12.2207C9.14062 12.2207 9.52344 12.041 9.80078 11.6816C10.082 11.3223 10.2227 10.8516 10.2227 10.2695C10.2227 9.68359 10.0801 9.21094 9.79492 8.85156C9.51367 8.48828 9.13867 8.30664 8.66992 8.30664Z" fill="white"/>
</svg>
