<svg width="69" height="75" viewBox="0 0 69 75" fill="none" xmlns="http://www.w3.org/2000/svg">
<rect x="0.5" y="0.5" width="68" height="74" rx="1.5" fill="white" stroke="#277DA1"/>
<rect width="69" height="19" rx="2" fill="#277DA1"/>
<path d="M44.3086 52H40.916L28.0312 32.2773V52H24.6387V26.4062H28.0312L40.9512 46.2168V26.4062H44.3086V52Z" fill="#277DA1"/>
<path d="M19.5898 69H18.459L14.1641 62.4258V69H13.0332V60.4688H14.1641L18.4707 67.0723V60.4688H19.5898V69ZM22.5957 69H21.5117V62.6602H22.5957V69ZM21.4238 60.9785C21.4238 60.8027 21.4766 60.6543 21.582 60.5332C21.6914 60.4121 21.8516 60.3516 22.0625 60.3516C22.2734 60.3516 22.4336 60.4121 22.543 60.5332C22.6523 60.6543 22.707 60.8027 22.707 60.9785C22.707 61.1543 22.6523 61.3008 22.543 61.418C22.4336 61.5352 22.2734 61.5938 22.0625 61.5938C21.8516 61.5938 21.6914 61.5352 21.582 61.418C21.4766 61.3008 21.4238 61.1543 21.4238 60.9785ZM25.8066 61.125V62.6602H26.9902V63.498H25.8066V67.4297C25.8066 67.6836 25.8594 67.875 25.9648 68.0039C26.0703 68.1289 26.25 68.1914 26.5039 68.1914C26.6289 68.1914 26.8008 68.168 27.0195 68.1211V69C26.7344 69.0781 26.457 69.1172 26.1875 69.1172C25.7031 69.1172 25.3379 68.9707 25.0918 68.6777C24.8457 68.3848 24.7227 67.9688 24.7227 67.4297V63.498H23.5684V62.6602H24.7227V61.125H25.8066ZM31.3262 63.6328C31.1621 63.6055 30.9844 63.5918 30.793 63.5918C30.082 63.5918 29.5996 63.8945 29.3457 64.5V69H28.2617V62.6602H29.3164L29.334 63.3926C29.6895 62.8262 30.1934 62.543 30.8457 62.543C31.0566 62.543 31.2168 62.5703 31.3262 62.625V63.6328ZM31.9238 65.7715C31.9238 65.1504 32.0449 64.5918 32.2871 64.0957C32.5332 63.5996 32.873 63.2168 33.3066 62.9473C33.7441 62.6777 34.2422 62.543 34.8008 62.543C35.6641 62.543 36.3613 62.8418 36.8926 63.4395C37.4277 64.0371 37.6953 64.832 37.6953 65.8242V65.9004C37.6953 66.5176 37.5762 67.0723 37.3379 67.5645C37.1035 68.0527 36.7656 68.4336 36.3242 68.707C35.8867 68.9805 35.3828 69.1172 34.8125 69.1172C33.9531 69.1172 33.2559 68.8184 32.7207 68.2207C32.1895 67.623 31.9238 66.832 31.9238 65.8477V65.7715ZM33.0137 65.9004C33.0137 66.6035 33.1758 67.168 33.5 67.5938C33.8281 68.0195 34.2656 68.2324 34.8125 68.2324C35.3633 68.2324 35.8008 68.0176 36.125 67.5879C36.4492 67.1543 36.6113 66.5488 36.6113 65.7715C36.6113 65.0762 36.4453 64.5137 36.1133 64.084C35.7852 63.6504 35.3477 63.4336 34.8008 63.4336C34.2656 63.4336 33.834 63.6465 33.5059 64.0723C33.1777 64.498 33.0137 65.1074 33.0137 65.9004ZM38.7969 65.7773C38.7969 64.7891 39.0254 64.0039 39.4824 63.4219C39.9395 62.8359 40.5449 62.543 41.2988 62.543C42.0723 62.543 42.6758 62.8164 43.1094 63.3633L43.1621 62.6602H44.1523V68.8477C44.1523 69.668 43.9082 70.3145 43.4199 70.7871C42.9355 71.2598 42.2832 71.4961 41.4629 71.4961C41.0059 71.4961 40.5586 71.3984 40.1211 71.2031C39.6836 71.0078 39.3496 70.7402 39.1191 70.4004L39.6816 69.75C40.1465 70.3242 40.7148 70.6113 41.3867 70.6113C41.9141 70.6113 42.3242 70.4629 42.6172 70.166C42.9141 69.8691 43.0625 69.4512 43.0625 68.9121V68.3672C42.6289 68.8672 42.0371 69.1172 41.2871 69.1172C40.5449 69.1172 39.9434 68.8184 39.4824 68.2207C39.0254 67.623 38.7969 66.8086 38.7969 65.7773ZM39.8867 65.9004C39.8867 66.6152 40.0332 67.1777 40.3262 67.5879C40.6191 67.9941 41.0293 68.1973 41.5566 68.1973C42.2402 68.1973 42.7422 67.8867 43.0625 67.2656V64.3711C42.7305 63.7656 42.2324 63.4629 41.5684 63.4629C41.041 63.4629 40.6289 63.668 40.332 64.0781C40.0352 64.4883 39.8867 65.0957 39.8867 65.9004ZM48.4238 69.1172C47.5645 69.1172 46.8652 68.8359 46.3262 68.2734C45.7871 67.707 45.5176 66.9512 45.5176 66.0059V65.8066C45.5176 65.1777 45.6367 64.6172 45.875 64.125C46.1172 63.6289 46.4531 63.2422 46.8828 62.9648C47.3164 62.6836 47.7852 62.543 48.2891 62.543C49.1133 62.543 49.7539 62.8145 50.2109 63.3574C50.668 63.9004 50.8965 64.6777 50.8965 65.6895V66.1406H46.6016C46.6172 66.7656 46.7988 67.2715 47.1465 67.6582C47.498 68.041 47.9434 68.2324 48.4824 68.2324C48.8652 68.2324 49.1895 68.1543 49.4551 67.998C49.7207 67.8418 49.9531 67.6348 50.1523 67.377L50.8145 67.8926C50.2832 68.709 49.4863 69.1172 48.4238 69.1172ZM48.2891 63.4336C47.8516 63.4336 47.4844 63.5938 47.1875 63.9141C46.8906 64.2305 46.707 64.6758 46.6367 65.25H49.8125V65.168C49.7812 64.6172 49.6328 64.1914 49.3672 63.8906C49.1016 63.5859 48.7422 63.4336 48.2891 63.4336ZM53.1816 62.6602L53.2168 63.457C53.7012 62.8477 54.334 62.543 55.1152 62.543C56.4551 62.543 57.1309 63.2988 57.1426 64.8105V69H56.0586V64.8047C56.0547 64.3477 55.9492 64.0098 55.7422 63.791C55.5391 63.5723 55.2207 63.4629 54.7871 63.4629C54.4355 63.4629 54.127 63.5566 53.8613 63.7441C53.5957 63.9316 53.3887 64.1777 53.2402 64.4824V69H52.1562V62.6602H53.1816Z" fill="#277DA1"/>
<path d="M11.3477 5.07812L7.81445 13H6.67773L10.1992 5.35938H5.58203V4.46875H11.3477V5.07812Z" fill="white"/>
</svg>
