<svg width="69" height="75" viewBox="0 0 69 75" fill="none" xmlns="http://www.w3.org/2000/svg">
<rect x="0.5" y="0.5" width="68" height="74" rx="1.5" fill="white" stroke="#277DA1"/>
<rect width="69" height="19" rx="2" fill="#277DA1"/>
<path d="M44.7832 40.0293C44.7832 42.5371 44.3613 44.7285 43.5176 46.6035C42.6738 48.4668 41.4785 49.8906 39.9316 50.875C38.3848 51.8594 36.5801 52.3516 34.5176 52.3516C32.502 52.3516 30.7148 51.8594 29.1562 50.875C27.5977 49.8789 26.3848 48.4668 25.5176 46.6387C24.6621 44.7988 24.2227 42.6719 24.1992 40.2578V38.4121C24.1992 35.9512 24.627 33.7773 25.4824 31.8906C26.3379 30.0039 27.5449 28.5625 29.1035 27.5664C30.6738 26.5586 32.4668 26.0547 34.4824 26.0547C36.5332 26.0547 38.3379 26.5527 39.8965 27.5488C41.4668 28.5332 42.6738 29.9688 43.5176 31.8555C44.3613 33.7305 44.7832 35.916 44.7832 38.4121V40.0293ZM41.4258 38.377C41.4258 35.3418 40.8164 33.0156 39.5977 31.3984C38.3789 29.7695 36.6738 28.9551 34.4824 28.9551C32.3496 28.9551 30.668 29.7695 29.4375 31.3984C28.2188 33.0156 27.5918 35.2656 27.5566 38.1484V40.0293C27.5566 42.9707 28.1719 45.2852 29.4023 46.9727C30.6445 48.6484 32.3496 49.4863 34.5176 49.4863C36.6973 49.4863 38.3848 48.6953 39.5801 47.1133C40.7754 45.5195 41.3906 43.2402 41.4258 40.2754V38.377Z" fill="#277DA1"/>
<path d="M22.7891 65.0098C22.7891 65.8457 22.6484 66.5762 22.3672 67.2012C22.0859 67.8223 21.6875 68.2969 21.1719 68.625C20.6562 68.9531 20.0547 69.1172 19.3672 69.1172C18.6953 69.1172 18.0996 68.9531 17.5801 68.625C17.0605 68.293 16.6562 67.8223 16.3672 67.2129C16.082 66.5996 15.9355 65.8906 15.9277 65.0859V64.4707C15.9277 63.6504 16.0703 62.9258 16.3555 62.2969C16.6406 61.668 17.043 61.1875 17.5625 60.8555C18.0859 60.5195 18.6836 60.3516 19.3555 60.3516C20.0391 60.3516 20.6406 60.5176 21.1602 60.8496C21.6836 61.1777 22.0859 61.6562 22.3672 62.2852C22.6484 62.9102 22.7891 63.6387 22.7891 64.4707V65.0098ZM21.6699 64.459C21.6699 63.4473 21.4668 62.6719 21.0605 62.1328C20.6543 61.5898 20.0859 61.3184 19.3555 61.3184C18.6445 61.3184 18.084 61.5898 17.6738 62.1328C17.2676 62.6719 17.0586 63.4219 17.0469 64.3828V65.0098C17.0469 65.9902 17.252 66.7617 17.6621 67.3242C18.0762 67.8828 18.6445 68.1621 19.3672 68.1621C20.0938 68.1621 20.6562 67.8984 21.0547 67.3711C21.4531 66.8398 21.6582 66.0801 21.6699 65.0918V64.459ZM26.4336 64.9746L27.8398 62.6602H29.1055L27.0312 65.7949L29.1699 69H27.916L26.4512 66.627L24.9863 69H23.7266L25.8652 65.7949L23.791 62.6602H25.0449L26.4336 64.9746ZM32.334 67.4121L33.8105 62.6602H34.9707L32.4219 69.9785C32.0273 71.0332 31.4004 71.5605 30.541 71.5605L30.3359 71.543L29.9316 71.4668V70.5879L30.2246 70.6113C30.5918 70.6113 30.877 70.5371 31.0801 70.3887C31.2871 70.2402 31.457 69.9688 31.5898 69.5742L31.8301 68.9297L29.5684 62.6602H30.752L32.334 67.4121ZM35.6035 65.7773C35.6035 64.7891 35.832 64.0039 36.2891 63.4219C36.7461 62.8359 37.3516 62.543 38.1055 62.543C38.8789 62.543 39.4824 62.8164 39.916 63.3633L39.9688 62.6602H40.959V68.8477C40.959 69.668 40.7148 70.3145 40.2266 70.7871C39.7422 71.2598 39.0898 71.4961 38.2695 71.4961C37.8125 71.4961 37.3652 71.3984 36.9277 71.2031C36.4902 71.0078 36.1562 70.7402 35.9258 70.4004L36.4883 69.75C36.9531 70.3242 37.5215 70.6113 38.1934 70.6113C38.7207 70.6113 39.1309 70.4629 39.4238 70.166C39.7207 69.8691 39.8691 69.4512 39.8691 68.9121V68.3672C39.4355 68.8672 38.8438 69.1172 38.0938 69.1172C37.3516 69.1172 36.75 68.8184 36.2891 68.2207C35.832 67.623 35.6035 66.8086 35.6035 65.7773ZM36.6934 65.9004C36.6934 66.6152 36.8398 67.1777 37.1328 67.5879C37.4258 67.9941 37.8359 68.1973 38.3633 68.1973C39.0469 68.1973 39.5488 67.8867 39.8691 67.2656V64.3711C39.5371 63.7656 39.0391 63.4629 38.375 63.4629C37.8477 63.4629 37.4355 63.668 37.1387 64.0781C36.8418 64.4883 36.6934 65.0957 36.6934 65.9004ZM45.2305 69.1172C44.3711 69.1172 43.6719 68.8359 43.1328 68.2734C42.5938 67.707 42.3242 66.9512 42.3242 66.0059V65.8066C42.3242 65.1777 42.4434 64.6172 42.6816 64.125C42.9238 63.6289 43.2598 63.2422 43.6895 62.9648C44.123 62.6836 44.5918 62.543 45.0957 62.543C45.9199 62.543 46.5605 62.8145 47.0176 63.3574C47.4746 63.9004 47.7031 64.6777 47.7031 65.6895V66.1406H43.4082C43.4238 66.7656 43.6055 67.2715 43.9531 67.6582C44.3047 68.041 44.75 68.2324 45.2891 68.2324C45.6719 68.2324 45.9961 68.1543 46.2617 67.998C46.5273 67.8418 46.7598 67.6348 46.959 67.377L47.6211 67.8926C47.0898 68.709 46.293 69.1172 45.2305 69.1172ZM45.0957 63.4336C44.6582 63.4336 44.291 63.5938 43.9941 63.9141C43.6973 64.2305 43.5137 64.6758 43.4434 65.25H46.6191V65.168C46.5879 64.6172 46.4395 64.1914 46.1738 63.8906C45.9082 63.5859 45.5488 63.4336 45.0957 63.4336ZM49.9883 62.6602L50.0234 63.457C50.5078 62.8477 51.1406 62.543 51.9219 62.543C53.2617 62.543 53.9375 63.2988 53.9492 64.8105V69H52.8652V64.8047C52.8613 64.3477 52.7559 64.0098 52.5488 63.791C52.3457 63.5723 52.0273 63.4629 51.5938 63.4629C51.2422 63.4629 50.9336 63.5566 50.668 63.7441C50.4023 63.9316 50.1953 64.1777 50.0469 64.4824V69H48.9629V62.6602H49.9883Z" fill="#277DA1"/>
<path d="M11.0137 6.69531C11.0137 7.12109 10.9004 7.5 10.6738 7.83203C10.4512 8.16406 10.1484 8.42383 9.76562 8.61133C10.2109 8.80273 10.5625 9.08203 10.8203 9.44922C11.082 9.81641 11.2129 10.2324 11.2129 10.6973C11.2129 11.4355 10.9629 12.0234 10.4629 12.4609C9.9668 12.8984 9.3125 13.1172 8.5 13.1172C7.67969 13.1172 7.02148 12.8984 6.52539 12.4609C6.0332 12.0195 5.78711 11.4316 5.78711 10.6973C5.78711 10.2363 5.91211 9.82031 6.16211 9.44922C6.41602 9.07812 6.76562 8.79688 7.21094 8.60547C6.83203 8.41797 6.5332 8.1582 6.31445 7.82617C6.0957 7.49414 5.98633 7.11719 5.98633 6.69531C5.98633 5.97656 6.2168 5.40625 6.67773 4.98438C7.13867 4.5625 7.74609 4.35156 8.5 4.35156C9.25 4.35156 9.85547 4.5625 10.3164 4.98438C10.7812 5.40625 11.0137 5.97656 11.0137 6.69531ZM10.1289 10.6738C10.1289 10.1973 9.97656 9.80859 9.67188 9.50781C9.37109 9.20703 8.97656 9.05664 8.48828 9.05664C8 9.05664 7.60742 9.20508 7.31055 9.50195C7.01758 9.79883 6.87109 10.1895 6.87109 10.6738C6.87109 11.1582 7.01367 11.5391 7.29883 11.8164C7.58789 12.0938 7.98828 12.2324 8.5 12.2324C9.00781 12.2324 9.40625 12.0938 9.69531 11.8164C9.98438 11.5352 10.1289 11.1543 10.1289 10.6738ZM8.5 5.24219C8.07422 5.24219 7.72852 5.375 7.46289 5.64062C7.20117 5.90234 7.07031 6.25977 7.07031 6.71289C7.07031 7.14648 7.19922 7.49805 7.45703 7.76758C7.71875 8.0332 8.06641 8.16602 8.5 8.16602C8.93359 8.16602 9.2793 8.0332 9.53711 7.76758C9.79883 7.49805 9.92969 7.14648 9.92969 6.71289C9.92969 6.2793 9.79492 5.92578 9.52539 5.65234C9.25586 5.37891 8.91406 5.24219 8.5 5.24219Z" fill="white"/>
</svg>
