<svg width="69" height="75" viewBox="0 0 69 75" fill="none" xmlns="http://www.w3.org/2000/svg">
<rect x="0.5" y="0.5" width="68" height="74" rx="1.5" fill="white" stroke="#F9844A"/>
<rect width="69" height="19" rx="2" fill="#F9844A"/>
<path d="M41.6367 40.6973H30.8965V52H27.5215V26.4062H43.377V29.1836H30.8965V37.9375H41.6367V40.6973Z" fill="#F9844A"/>
<path d="M19.7031 65.2324H16.123V69H14.998V60.4688H20.2832V61.3945H16.123V64.3125H19.7031V65.2324ZM22.6387 69H21.5547V60H22.6387V69ZM28.293 68.373C27.8711 68.8691 27.252 69.1172 26.4355 69.1172C25.7598 69.1172 25.2441 68.9219 24.8887 68.5312C24.5371 68.1367 24.3594 67.5547 24.3555 66.7852V62.6602H25.4395V66.7559C25.4395 67.7168 25.8301 68.1973 26.6113 68.1973C27.4395 68.1973 27.9902 67.8887 28.2637 67.2715V62.6602H29.3477V69H28.3164L28.293 68.373ZM30.7129 65.7715C30.7129 65.1504 30.834 64.5918 31.0762 64.0957C31.3223 63.5996 31.6621 63.2168 32.0957 62.9473C32.5332 62.6777 33.0312 62.543 33.5898 62.543C34.4531 62.543 35.1504 62.8418 35.6816 63.4395C36.2168 64.0371 36.4844 64.832 36.4844 65.8242V65.9004C36.4844 66.5176 36.3652 67.0723 36.127 67.5645C35.8926 68.0527 35.5547 68.4336 35.1133 68.707C34.6758 68.9805 34.1719 69.1172 33.6016 69.1172C32.7422 69.1172 32.0449 68.8184 31.5098 68.2207C30.9785 67.623 30.7129 66.832 30.7129 65.8477V65.7715ZM31.8027 65.9004C31.8027 66.6035 31.9648 67.168 32.2891 67.5938C32.6172 68.0195 33.0547 68.2324 33.6016 68.2324C34.1523 68.2324 34.5898 68.0176 34.9141 67.5879C35.2383 67.1543 35.4004 66.5488 35.4004 65.7715C35.4004 65.0762 35.2344 64.5137 34.9023 64.084C34.5742 63.6504 34.1367 63.4336 33.5898 63.4336C33.0547 63.4336 32.623 63.6465 32.2949 64.0723C31.9668 64.498 31.8027 65.1074 31.8027 65.9004ZM40.9082 63.6328C40.7441 63.6055 40.5664 63.5918 40.375 63.5918C39.6641 63.5918 39.1816 63.8945 38.9277 64.5V69H37.8438V62.6602H38.8984L38.916 63.3926C39.2715 62.8262 39.7754 62.543 40.4277 62.543C40.6387 62.543 40.7988 62.5703 40.9082 62.625V63.6328ZM43.0879 69H42.0039V62.6602H43.0879V69ZM41.916 60.9785C41.916 60.8027 41.9688 60.6543 42.0742 60.5332C42.1836 60.4121 42.3438 60.3516 42.5547 60.3516C42.7656 60.3516 42.9258 60.4121 43.0352 60.5332C43.1445 60.6543 43.1992 60.8027 43.1992 60.9785C43.1992 61.1543 43.1445 61.3008 43.0352 61.418C42.9258 61.5352 42.7656 61.5938 42.5547 61.5938C42.3438 61.5938 42.1836 61.5352 42.0742 61.418C41.9688 61.3008 41.916 61.1543 41.916 60.9785ZM45.8535 62.6602L45.8887 63.457C46.373 62.8477 47.0059 62.543 47.7871 62.543C49.127 62.543 49.8027 63.2988 49.8145 64.8105V69H48.7305V64.8047C48.7266 64.3477 48.6211 64.0098 48.4141 63.791C48.2109 63.5723 47.8926 63.4629 47.459 63.4629C47.1074 63.4629 46.7988 63.5566 46.5332 63.7441C46.2676 63.9316 46.0605 64.1777 45.9121 64.4824V69H44.8281V62.6602H45.8535ZM54.0801 69.1172C53.2207 69.1172 52.5215 68.8359 51.9824 68.2734C51.4434 67.707 51.1738 66.9512 51.1738 66.0059V65.8066C51.1738 65.1777 51.293 64.6172 51.5312 64.125C51.7734 63.6289 52.1094 63.2422 52.5391 62.9648C52.9727 62.6836 53.4414 62.543 53.9453 62.543C54.7695 62.543 55.4102 62.8145 55.8672 63.3574C56.3242 63.9004 56.5527 64.6777 56.5527 65.6895V66.1406H52.2578C52.2734 66.7656 52.4551 67.2715 52.8027 67.6582C53.1543 68.041 53.5996 68.2324 54.1387 68.2324C54.5215 68.2324 54.8457 68.1543 55.1113 67.998C55.377 67.8418 55.6094 67.6348 55.8086 67.377L56.4707 67.8926C55.9395 68.709 55.1426 69.1172 54.0801 69.1172ZM53.9453 63.4336C53.5078 63.4336 53.1406 63.5938 52.8438 63.9141C52.5469 64.2305 52.3633 64.6758 52.293 65.25H55.4688V65.168C55.4375 64.6172 55.2891 64.1914 55.0234 63.8906C54.7578 63.5859 54.3984 63.4336 53.9453 63.4336Z" fill="#F9844A"/>
<path d="M9.99414 9.25C9.76758 9.51953 9.49609 9.73633 9.17969 9.90039C8.86719 10.0645 8.52344 10.1465 8.14844 10.1465C7.65625 10.1465 7.22656 10.0254 6.85938 9.7832C6.49609 9.54102 6.21484 9.20117 6.01562 8.76367C5.81641 8.32227 5.7168 7.83594 5.7168 7.30469C5.7168 6.73438 5.82422 6.2207 6.03906 5.76367C6.25781 5.30664 6.56641 4.95703 6.96484 4.71484C7.36328 4.47266 7.82812 4.35156 8.35938 4.35156C9.20312 4.35156 9.86719 4.66797 10.3516 5.30078C10.8398 5.92969 11.084 6.78906 11.084 7.87891V8.19531C11.084 9.85547 10.7559 11.0684 10.0996 11.834C9.44336 12.5957 8.45312 12.9863 7.12891 13.0059H6.91797V12.0918H7.14648C8.04102 12.0762 8.72852 11.8438 9.20898 11.3945C9.68945 10.9414 9.95117 10.2266 9.99414 9.25ZM8.32422 9.25C8.6875 9.25 9.02148 9.13867 9.32617 8.91602C9.63477 8.69336 9.85938 8.41797 10 8.08984V7.65625C10 6.94531 9.8457 6.36719 9.53711 5.92188C9.22852 5.47656 8.83789 5.25391 8.36523 5.25391C7.88867 5.25391 7.50586 5.4375 7.2168 5.80469C6.92773 6.16797 6.7832 6.64844 6.7832 7.24609C6.7832 7.82812 6.92188 8.30859 7.19922 8.6875C7.48047 9.0625 7.85547 9.25 8.32422 9.25Z" fill="white"/>
</svg>
