<svg width="38" height="27" viewBox="0 0 38 27" fill="none" xmlns="http://www.w3.org/2000/svg">
<path d="M0.710938 26V0.40625H9.07812C11.8555 0.40625 13.9414 0.980469 15.3359 2.12891C16.7422 3.27734 17.4453 4.97656 17.4453 7.22656C17.4453 8.42188 17.1055 9.48242 16.4258 10.4082C15.7461 11.3223 14.8203 12.0312 13.6484 12.5352C15.0312 12.9219 16.1211 13.6602 16.918 14.75C17.7266 15.8281 18.1309 17.1172 18.1309 18.6172C18.1309 20.9141 17.3867 22.7188 15.8984 24.0312C14.4102 25.3438 12.3066 26 9.58789 26H0.710938ZM4.08594 14.0293V23.2402H9.6582C11.2285 23.2402 12.4648 22.8359 13.3672 22.0273C14.2812 21.207 14.7383 20.082 14.7383 18.6523C14.7383 15.5703 13.0625 14.0293 9.71094 14.0293H4.08594ZM4.08594 11.3223H9.18359C10.6602 11.3223 11.8379 10.9531 12.7168 10.2148C13.6074 9.47656 14.0527 8.47461 14.0527 7.20898C14.0527 5.80273 13.6426 4.7832 12.8223 4.15039C12.002 3.50586 10.7539 3.18359 9.07812 3.18359H4.08594V11.3223ZM30.5234 26.3516C27.9453 26.3516 25.8477 25.5078 24.2305 23.8203C22.6133 22.1211 21.8047 19.8535 21.8047 17.0176V16.4199C21.8047 14.5332 22.1621 12.8516 22.877 11.375C23.6035 9.88672 24.6113 8.72656 25.9004 7.89453C27.2012 7.05078 28.6074 6.62891 30.1191 6.62891C32.5918 6.62891 34.5137 7.44336 35.8848 9.07227C37.2559 10.7012 37.9414 13.0332 37.9414 16.0684V17.4219H25.0566C25.1035 19.2969 25.6484 20.8145 26.6914 21.9746C27.7461 23.123 29.082 23.6973 30.6992 23.6973C31.8477 23.6973 32.8203 23.4629 33.6172 22.9941C34.4141 22.5254 35.1113 21.9043 35.709 21.1309L37.6953 22.6777C36.1016 25.127 33.7109 26.3516 30.5234 26.3516ZM30.1191 9.30078C28.8066 9.30078 27.7051 9.78125 26.8145 10.7422C25.9238 11.6914 25.373 13.0273 25.1621 14.75H34.6895V14.5039C34.5957 12.8516 34.1504 11.5742 33.3535 10.6719C32.5566 9.75781 31.4785 9.30078 30.1191 9.30078Z" fill="#4D908E"/>
</svg>
