<svg width="28" height="27" viewBox="0 0 28 27" fill="none" xmlns="http://www.w3.org/2000/svg">
<path d="M9.94727 14.5918C7.05273 13.7598 4.94336 12.7402 3.61914 11.5332C2.30664 10.3145 1.65039 8.81445 1.65039 7.0332C1.65039 5.01758 2.45312 3.35352 4.05859 2.04102C5.67578 0.716797 7.77344 0.0546875 10.3516 0.0546875C12.1094 0.0546875 13.6738 0.394531 15.0449 1.07422C16.4277 1.75391 17.4941 2.69141 18.2441 3.88672C19.0059 5.08203 19.3867 6.38867 19.3867 7.80664H15.9941C15.9941 6.25977 15.502 5.04688 14.5176 4.16797C13.5332 3.27734 12.1445 2.83203 10.3516 2.83203C8.6875 2.83203 7.38672 3.20117 6.44922 3.93945C5.52344 4.66602 5.06055 5.67969 5.06055 6.98047C5.06055 8.02344 5.5 8.9082 6.37891 9.63477C7.26953 10.3496 8.77539 11.0059 10.8965 11.6035C13.0293 12.2012 14.6934 12.8633 15.8887 13.5898C17.0957 14.3047 17.9863 15.1426 18.5605 16.1035C19.1465 17.0645 19.4395 18.1953 19.4395 19.4961C19.4395 21.5703 18.6309 23.2344 17.0137 24.4883C15.3965 25.7305 13.2344 26.3516 10.5273 26.3516C8.76953 26.3516 7.12891 26.0176 5.60547 25.3496C4.08203 24.6699 2.9043 23.7441 2.07227 22.5723C1.25195 21.4004 0.841797 20.0703 0.841797 18.582H4.23438C4.23438 20.1289 4.80273 21.3535 5.93945 22.2559C7.08789 23.1465 8.61719 23.5918 10.5273 23.5918C12.3086 23.5918 13.6738 23.2285 14.623 22.502C15.5723 21.7754 16.0469 20.7852 16.0469 19.5312C16.0469 18.2773 15.6074 17.3105 14.7285 16.6309C13.8496 15.9395 12.2559 15.2598 9.94727 14.5918ZM26.8047 26H23.5527V6.98047H26.8047V26ZM23.2891 1.93555C23.2891 1.4082 23.4473 0.962891 23.7637 0.599609C24.0918 0.236328 24.5723 0.0546875 25.2051 0.0546875C25.8379 0.0546875 26.3184 0.236328 26.6465 0.599609C26.9746 0.962891 27.1387 1.4082 27.1387 1.93555C27.1387 2.46289 26.9746 2.90234 26.6465 3.25391C26.3184 3.60547 25.8379 3.78125 25.2051 3.78125C24.5723 3.78125 24.0918 3.60547 23.7637 3.25391C23.4473 2.90234 23.2891 2.46289 23.2891 1.93555Z" fill="#F9C74F"/>
</svg>
