<svg width="18" height="26" viewBox="0 0 18 26" fill="none" xmlns="http://www.w3.org/2000/svg">
<path d="M0.255859 26V0.40625H8.62305C11.4004 0.40625 13.4863 0.980469 14.8809 2.12891C16.2871 3.27734 16.9902 4.97656 16.9902 7.22656C16.9902 8.42188 16.6504 9.48242 15.9707 10.4082C15.291 11.3223 14.3652 12.0312 13.1934 12.5352C14.5762 12.9219 15.666 13.6602 16.4629 14.75C17.2715 15.8281 17.6758 17.1172 17.6758 18.6172C17.6758 20.9141 16.9316 22.7188 15.4434 24.0312C13.9551 25.3438 11.8516 26 9.13281 26H0.255859ZM3.63086 14.0293V23.2402H9.20312C10.7734 23.2402 12.0098 22.8359 12.9121 22.0273C13.8262 21.207 14.2832 20.082 14.2832 18.6523C14.2832 15.5703 12.6074 14.0293 9.25586 14.0293H3.63086ZM3.63086 11.3223H8.72852C10.2051 11.3223 11.3828 10.9531 12.2617 10.2148C13.1523 9.47656 13.5977 8.47461 13.5977 7.20898C13.5977 5.80273 13.1875 4.7832 12.3672 4.15039C11.5469 3.50586 10.2988 3.18359 8.62305 3.18359H3.63086V11.3223Z" fill="#F9C74F"/>
</svg>
