<svg width="41" height="27" viewBox="0 0 41 27" fill="none" xmlns="http://www.w3.org/2000/svg">
<path d="M19.7637 26H16.3711V14.1699H3.46875V26H0.09375V0.40625H3.46875V11.4102H16.3711V0.40625H19.7637V26ZM33.1406 26.3516C30.5625 26.3516 28.4648 25.5078 26.8477 23.8203C25.2305 22.1211 24.4219 19.8535 24.4219 17.0176V16.4199C24.4219 14.5332 24.7793 12.8516 25.4941 11.375C26.2207 9.88672 27.2285 8.72656 28.5176 7.89453C29.8184 7.05078 31.2246 6.62891 32.7363 6.62891C35.209 6.62891 37.1309 7.44336 38.502 9.07227C39.873 10.7012 40.5586 13.0332 40.5586 16.0684V17.4219H27.6738C27.7207 19.2969 28.2656 20.8145 29.3086 21.9746C30.3633 23.123 31.6992 23.6973 33.3164 23.6973C34.4648 23.6973 35.4375 23.4629 36.2344 22.9941C37.0312 22.5254 37.7285 21.9043 38.3262 21.1309L40.3125 22.6777C38.7188 25.127 36.3281 26.3516 33.1406 26.3516ZM32.7363 9.30078C31.4238 9.30078 30.3223 9.78125 29.4316 10.7422C28.541 11.6914 27.9902 13.0273 27.7793 14.75H37.3066V14.5039C37.2129 12.8516 36.7676 11.5742 35.9707 10.6719C35.1738 9.75781 34.0957 9.30078 32.7363 9.30078Z" fill="#F8961E"/>
</svg>
