<svg width="19" height="27" viewBox="0 0 19 27" fill="none" xmlns="http://www.w3.org/2000/svg">
<path d="M9.32422 14.5918C6.42969 13.7598 4.32031 12.7402 2.99609 11.5332C1.68359 10.3145 1.02734 8.81445 1.02734 7.0332C1.02734 5.01758 1.83008 3.35352 3.43555 2.04102C5.05273 0.716797 7.15039 0.0546875 9.72852 0.0546875C11.4863 0.0546875 13.0508 0.394531 14.4219 1.07422C15.8047 1.75391 16.8711 2.69141 17.6211 3.88672C18.3828 5.08203 18.7637 6.38867 18.7637 7.80664H15.3711C15.3711 6.25977 14.8789 5.04688 13.8945 4.16797C12.9102 3.27734 11.5215 2.83203 9.72852 2.83203C8.06445 2.83203 6.76367 3.20117 5.82617 3.93945C4.90039 4.66602 4.4375 5.67969 4.4375 6.98047C4.4375 8.02344 4.87695 8.9082 5.75586 9.63477C6.64648 10.3496 8.15234 11.0059 10.2734 11.6035C12.4062 12.2012 14.0703 12.8633 15.2656 13.5898C16.4727 14.3047 17.3633 15.1426 17.9375 16.1035C18.5234 17.0645 18.8164 18.1953 18.8164 19.4961C18.8164 21.5703 18.0078 23.2344 16.3906 24.4883C14.7734 25.7305 12.6113 26.3516 9.9043 26.3516C8.14648 26.3516 6.50586 26.0176 4.98242 25.3496C3.45898 24.6699 2.28125 23.7441 1.44922 22.5723C0.628906 21.4004 0.21875 20.0703 0.21875 18.582H3.61133C3.61133 20.1289 4.17969 21.3535 5.31641 22.2559C6.46484 23.1465 7.99414 23.5918 9.9043 23.5918C11.6855 23.5918 13.0508 23.2285 14 22.502C14.9492 21.7754 15.4238 20.7852 15.4238 19.5312C15.4238 18.2773 14.9844 17.3105 14.1055 16.6309C13.2266 15.9395 11.6328 15.2598 9.32422 14.5918Z" fill="#277DA1"/>
</svg>
