<svg width="19" height="26" viewBox="0 0 19 26" fill="none" xmlns="http://www.w3.org/2000/svg">
<path d="M3.49023 15.9805V26H0.115234V0.40625H9.55469C12.3555 0.40625 14.5469 1.12109 16.1289 2.55078C17.7227 3.98047 18.5195 5.87305 18.5195 8.22852C18.5195 10.7129 17.7402 12.6289 16.1816 13.9766C14.6348 15.3125 12.4141 15.9805 9.51953 15.9805H3.49023ZM3.49023 13.2207H9.55469C11.3594 13.2207 12.7422 12.7988 13.7031 11.9551C14.6641 11.0996 15.1445 9.86914 15.1445 8.26367C15.1445 6.74023 14.6641 5.52148 13.7031 4.60742C12.7422 3.69336 11.4238 3.21875 9.74805 3.18359H3.49023V13.2207Z" fill="#277DA1"/>
</svg>
