<svg width="24" height="26" viewBox="0 0 24 26" fill="none" xmlns="http://www.w3.org/2000/svg">
<path d="M3.80078 23.2402H15.9297V26H0.408203V0.40625H3.80078V23.2402ZM22.8027 26H19.5508V6.98047H22.8027V26ZM19.2871 1.93555C19.2871 1.4082 19.4453 0.962891 19.7617 0.599609C20.0898 0.236328 20.5703 0.0546875 21.2031 0.0546875C21.8359 0.0546875 22.3164 0.236328 22.6445 0.599609C22.9727 0.962891 23.1367 1.4082 23.1367 1.93555C23.1367 2.46289 22.9727 2.90234 22.6445 3.25391C22.3164 3.60547 21.8359 3.78125 21.2031 3.78125C20.5703 3.78125 20.0898 3.60547 19.7617 3.25391C19.4453 2.90234 19.2871 2.46289 19.2871 1.93555Z" fill="#577590"/>
</svg>
