<svg width="21" height="27" viewBox="0 0 21 27" fill="none" xmlns="http://www.w3.org/2000/svg">
<path d="M20.7832 14.0293C20.7832 16.5371 20.3613 18.7285 19.5176 20.6035C18.6738 22.4668 17.4785 23.8906 15.9316 24.875C14.3848 25.8594 12.5801 26.3516 10.5176 26.3516C8.50195 26.3516 6.71484 25.8594 5.15625 24.875C3.59766 23.8789 2.38477 22.4668 1.51758 20.6387C0.662109 18.7988 0.222656 16.6719 0.199219 14.2578V12.4121C0.199219 9.95117 0.626953 7.77734 1.48242 5.89062C2.33789 4.00391 3.54492 2.5625 5.10352 1.56641C6.67383 0.558594 8.4668 0.0546875 10.4824 0.0546875C12.5332 0.0546875 14.3379 0.552734 15.8965 1.54883C17.4668 2.5332 18.6738 3.96875 19.5176 5.85547C20.3613 7.73047 20.7832 9.91602 20.7832 12.4121V14.0293ZM17.4258 12.377C17.4258 9.3418 16.8164 7.01562 15.5977 5.39844C14.3789 3.76953 12.6738 2.95508 10.4824 2.95508C8.34961 2.95508 6.66797 3.76953 5.4375 5.39844C4.21875 7.01562 3.5918 9.26562 3.55664 12.1484V14.0293C3.55664 16.9707 4.17188 19.2852 5.40234 20.9727C6.64453 22.6484 8.34961 23.4863 10.5176 23.4863C12.6973 23.4863 14.3848 22.6953 15.5801 21.1133C16.7754 19.5195 17.3906 17.2402 17.4258 14.2754V12.377Z" fill="#277DA1"/>
</svg>
