<svg width="28" height="28" viewBox="0 0 28 28" fill="none" xmlns="http://www.w3.org/2000/svg">
<path d="M20.1953 18.8789C19.8789 21.5859 18.877 23.6777 17.1895 25.1543C15.5137 26.6191 13.2812 27.3516 10.4922 27.3516C7.46875 27.3516 5.04297 26.2676 3.21484 24.0996C1.39844 21.9316 0.490234 19.0312 0.490234 15.3984V12.9375C0.490234 10.5586 0.912109 8.4668 1.75586 6.66211C2.61133 4.85742 3.81836 3.47461 5.37695 2.51367C6.93555 1.54102 8.74023 1.05469 10.791 1.05469C13.5098 1.05469 15.6895 1.81641 17.3301 3.33984C18.9707 4.85156 19.9258 6.94922 20.1953 9.63281H16.8027C16.5098 7.59375 15.8711 6.11719 14.8867 5.20312C13.9141 4.28906 12.5488 3.83203 10.791 3.83203C8.63477 3.83203 6.94141 4.62891 5.71094 6.22266C4.49219 7.81641 3.88281 10.084 3.88281 13.0254V15.5039C3.88281 18.2812 4.46289 20.4902 5.62305 22.1309C6.7832 23.7715 8.40625 24.5918 10.4922 24.5918C12.3672 24.5918 13.8027 24.1699 14.7988 23.3262C15.8066 22.4707 16.4746 20.9883 16.8027 18.8789H20.1953ZM27.8418 27H24.5898V0H27.8418V27Z" fill="#F9844A"/>
</svg>
