<svg width="21" height="27" viewBox="0 0 21 27" fill="none" xmlns="http://www.w3.org/2000/svg">
<path d="M20.5723 17.8789C20.2559 20.5859 19.2539 22.6777 17.5664 24.1543C15.8906 25.6191 13.6582 26.3516 10.8691 26.3516C7.8457 26.3516 5.41992 25.2676 3.5918 23.0996C1.77539 20.9316 0.867188 18.0312 0.867188 14.3984V11.9375C0.867188 9.55859 1.28906 7.4668 2.13281 5.66211C2.98828 3.85742 4.19531 2.47461 5.75391 1.51367C7.3125 0.541016 9.11719 0.0546875 11.168 0.0546875C13.8867 0.0546875 16.0664 0.816406 17.707 2.33984C19.3477 3.85156 20.3027 5.94922 20.5723 8.63281H17.1797C16.8867 6.59375 16.248 5.11719 15.2637 4.20312C14.291 3.28906 12.9258 2.83203 11.168 2.83203C9.01172 2.83203 7.31836 3.62891 6.08789 5.22266C4.86914 6.81641 4.25977 9.08398 4.25977 12.0254V14.5039C4.25977 17.2812 4.83984 19.4902 6 21.1309C7.16016 22.7715 8.7832 23.5918 10.8691 23.5918C12.7441 23.5918 14.1797 23.1699 15.1758 22.3262C16.1836 21.4707 16.8516 19.9883 17.1797 17.8789H20.5723Z" fill="#277DA1"/>
</svg>
