<svg width="47" height="34" viewBox="0 0 47 34" fill="none" xmlns="http://www.w3.org/2000/svg">
<path d="M5.00781 0.40625L13.375 21.2891L21.7422 0.40625H26.1191V26H22.7441V16.0332L23.0605 5.27539L14.6582 26H12.0742L3.68945 5.32812L4.02344 16.0332V26H0.648438V0.40625H5.00781ZM30.7949 16.332C30.7949 13.3672 31.4805 11.0117 32.8516 9.26562C34.2227 7.50781 36.0391 6.62891 38.3008 6.62891C40.6211 6.62891 42.4316 7.44922 43.7324 9.08984L43.8906 6.98047H46.8613V25.543C46.8613 28.0039 46.1289 29.9434 44.6641 31.3613C43.2109 32.7793 41.2539 33.4883 38.793 33.4883C37.4219 33.4883 36.0801 33.1953 34.7676 32.6094C33.4551 32.0234 32.4531 31.2207 31.7617 30.2012L33.4492 28.25C34.8438 29.9727 36.5488 30.834 38.5645 30.834C40.1465 30.834 41.377 30.3887 42.2559 29.498C43.1465 28.6074 43.5918 27.3535 43.5918 25.7363V24.1016C42.291 25.6016 40.5156 26.3516 38.2656 26.3516C36.0391 26.3516 34.2344 25.4551 32.8516 23.6621C31.4805 21.8691 30.7949 19.4258 30.7949 16.332ZM34.0645 16.7012C34.0645 18.8457 34.5039 20.5332 35.3828 21.7637C36.2617 22.9824 37.4922 23.5918 39.0742 23.5918C41.125 23.5918 42.6309 22.6602 43.5918 20.7969V12.1133C42.5957 10.2969 41.1016 9.38867 39.1094 9.38867C37.5273 9.38867 36.291 10.0039 35.4004 11.2344C34.5098 12.4648 34.0645 14.2871 34.0645 16.7012Z" fill="#4D908E"/>
</svg>
