<svg width="42" height="27" viewBox="0 0 42 27" fill="none" xmlns="http://www.w3.org/2000/svg">
<path d="M20.5176 26H17.125L4.24023 6.27734V26H0.847656V0.40625H4.24023L17.1602 20.2168V0.40625H20.5176V26ZM37.7441 26C37.5566 25.625 37.4043 24.957 37.2871 23.9961C35.7754 25.5664 33.9707 26.3516 31.873 26.3516C29.998 26.3516 28.457 25.8242 27.25 24.7695C26.0547 23.7031 25.457 22.3555 25.457 20.7266C25.457 18.7461 26.207 17.2109 27.707 16.1211C29.2188 15.0195 31.3398 14.4688 34.0703 14.4688H37.2344V12.9746C37.2344 11.8379 36.8945 10.9355 36.2148 10.2676C35.5352 9.58789 34.5332 9.24805 33.209 9.24805C32.0488 9.24805 31.0762 9.54102 30.291 10.127C29.5059 10.7129 29.1133 11.4219 29.1133 12.2539H25.8438C25.8438 11.3047 26.1777 10.3906 26.8457 9.51172C27.5254 8.62109 28.4395 7.91797 29.5879 7.40234C30.748 6.88672 32.0195 6.62891 33.4023 6.62891C35.5938 6.62891 37.3105 7.17969 38.5527 8.28125C39.7949 9.37109 40.4395 10.877 40.4863 12.7988V21.5527C40.4863 23.2988 40.709 24.6875 41.1543 25.7188V26H37.7441ZM32.3477 23.5215C33.3672 23.5215 34.334 23.2578 35.248 22.7305C36.1621 22.2031 36.8242 21.5176 37.2344 20.6738V16.7715H34.6855C30.7012 16.7715 28.709 17.9375 28.709 20.2695C28.709 21.2891 29.0488 22.0859 29.7285 22.6602C30.4082 23.2344 31.2812 23.5215 32.3477 23.5215Z" fill="#577590"/>
</svg>
